{"glyphs":{"0":{"ha":625,"x_min":196,"x_max":703,"o":"m 389 29 q 338 49 374 29 q 281 86 301 68 q 219 181 242 124 q 196 299 196 239 q 199 339 196 311 q 265 513 214 426 q 383 658 315 600 q 449 708 419 690 q 519 735 479 725 q 581 740 539 740 q 635 729 607 740 q 683 702 664 718 q 703 672 703 686 q 701 657 703 660 q 689 658 699 654 l 675 658 l 689 618 q 699 588 694 606 q 703 554 703 569 q 688 458 703 529 q 661 361 672 386 q 656 332 656 350 l 621 256 q 613 246 615 251 q 614 236 610 240 q 599 205 614 231 q 581 179 585 179 q 576 178 579 179 q 574 174 574 178 q 555 144 574 168 q 513 97 536 121 q 451 52 492 75 q 389 29 410 29 m 385 117 q 438 136 418 117 q 497 192 464 154 q 544 265 529 231 q 567 306 558 285 q 597 388 576 326 q 612 423 607 401 q 617 463 617 444 q 624 549 617 524 q 622 598 624 588 q 611 619 621 608 q 578 632 596 632 q 542 622 568 632 q 504 604 515 611 q 492 601 496 601 q 477 605 483 601 q 471 614 471 608 q 463 624 471 624 q 432 607 451 624 q 390 564 413 590 q 349 515 368 542 q 331 482 331 488 q 326 467 331 478 q 318 449 321 456 q 292 395 308 433 q 271 340 275 357 l 271 265 q 275 211 271 231 q 290 171 279 192 q 308 147 296 161 q 324 129 321 133 q 340 116 333 119 q 356 113 346 113 q 385 117 367 113 z "},"1":{"ha":625,"x_min":229,"x_max":689,"o":"m 446 -14 q 401 8 433 -24 q 393 25 393 15 q 404 83 393 32 q 410 111 407 103 q 427 183 417 144 q 440 232 438 221 q 490 368 451 238 q 538 522 511 443 q 557 590 550 561 q 567 628 564 619 q 513 597 554 621 q 436 544 472 572 q 383 507 433 543 q 353 486 372 500 q 322 465 335 472 q 288 440 301 449 q 269 431 275 431 q 256 436 267 431 q 229 482 229 460 q 233 499 229 490 q 283 532 239 500 q 340 571 333 568 q 356 581 343 571 q 379 599 368 592 q 444 647 383 604 l 518 701 q 646 771 635 774 q 669 758 653 769 q 686 735 685 746 q 689 725 689 729 q 678 690 689 715 q 633 568 665 664 q 583 417 600 472 q 554 328 574 381 q 542 292 550 315 q 529 246 535 269 q 501 161 517 215 q 478 69 486 107 l 464 28 q 446 -14 451 -10 z "},"2":{"ha":625,"x_min":168,"x_max":710,"o":"m 221 32 q 193 51 211 36 q 169 79 175 67 q 168 88 168 81 q 172 110 168 97 q 181 122 176 122 q 203 144 185 118 q 224 176 222 169 q 233 187 225 182 q 243 193 240 192 q 263 217 250 204 q 281 236 276 231 q 301 259 286 243 q 329 288 317 275 q 378 335 363 318 q 453 425 450 413 q 458 431 454 426 q 469 439 463 435 q 508 471 490 453 q 524 501 510 481 q 551 536 538 522 q 572 570 563 551 q 585 603 581 589 l 588 615 q 581 624 588 621 q 565 631 574 628 q 550 635 556 633 q 494 644 518 644 q 389 607 443 644 q 358 597 369 603 q 326 590 333 589 q 314 603 322 592 q 299 621 306 614 l 285 650 l 328 674 q 478 731 414 731 q 517 725 500 731 q 542 722 529 725 q 557 718 554 719 q 601 692 574 719 q 642 635 628 664 q 658 583 658 610 q 614 476 658 542 q 521 372 583 440 q 444 293 458 304 q 364 213 428 285 q 306 140 300 140 l 306 138 q 392 159 306 146 q 526 172 479 172 q 547 169 542 172 q 552 165 550 164 q 554 167 554 165 q 574 172 556 172 q 649 160 606 172 q 663 156 653 158 q 678 150 674 153 q 682 144 682 147 q 687 137 683 143 q 697 122 690 131 q 710 106 710 113 q 686 96 710 96 q 631 103 669 96 q 571 99 594 103 q 545 95 567 96 q 513 94 524 94 q 493 96 506 96 q 403 76 461 96 q 303 46 372 64 q 221 32 233 28 z "},"3":{"ha":625,"x_min":197,"x_max":701,"o":"m 338 22 q 240 40 282 22 q 200 81 197 57 q 205 101 201 96 q 219 106 208 106 l 249 103 q 299 97 279 97 q 426 121 361 97 q 525 178 492 144 q 558 244 558 210 q 515 313 558 283 q 435 346 489 331 q 351 358 381 361 q 340 357 347 357 q 306 369 326 357 q 281 408 293 383 q 288 422 279 415 q 332 449 297 429 q 422 499 367 469 q 544 569 507 546 q 601 608 581 592 q 619 633 613 622 q 626 650 626 644 q 618 660 626 656 q 590 668 610 664 q 517 672 550 672 q 492 668 492 672 l 486 668 q 433 663 476 672 q 388 647 389 653 q 358 633 386 643 q 324 624 331 624 q 299 650 313 626 q 290 683 286 674 q 376 735 294 696 q 465 745 403 742 q 556 746 526 749 q 697 642 681 732 q 701 617 701 628 q 691 588 701 601 q 649 546 681 575 l 615 524 q 525 469 569 494 q 490 446 522 467 q 454 419 454 424 q 467 410 457 417 q 489 394 478 404 q 558 353 525 382 q 610 300 592 325 q 626 228 626 263 q 601 145 626 183 q 524 76 575 107 q 435 40 486 56 q 338 22 383 25 z "},"4":{"ha":625,"x_min":253,"x_max":736,"o":"m 440 10 q 431 38 431 21 q 443 107 431 53 q 465 208 451 156 l 475 253 q 491 297 485 275 q 499 324 497 318 q 476 321 493 324 q 438 310 458 318 q 356 297 388 297 q 305 308 325 297 q 269 344 285 319 q 258 368 263 351 q 253 401 253 385 q 260 426 253 421 q 273 454 267 442 q 283 476 279 467 q 299 511 299 507 q 302 520 299 514 q 306 531 306 526 q 383 652 318 557 q 468 768 447 747 q 492 776 481 774 q 508 775 504 779 q 519 740 514 763 q 521 718 525 718 q 517 717 519 718 q 514 711 514 715 q 469 650 514 703 q 343 456 389 540 q 325 389 325 403 q 329 378 325 382 q 350 375 338 375 q 440 392 383 375 q 522 413 507 406 q 542 417 533 413 q 551 426 551 421 q 562 452 551 431 q 575 483 572 474 l 596 525 q 635 601 624 583 q 668 678 660 656 q 684 713 678 701 q 693 725 690 725 q 710 719 700 725 q 724 704 719 714 q 733 693 729 699 q 736 681 736 688 q 728 657 736 674 q 718 626 724 640 q 703 594 713 613 l 681 551 q 598 374 644 481 q 536 219 551 268 q 507 132 518 168 q 496 79 496 96 q 503 53 496 67 q 490 10 504 28 q 461 -8 476 -8 q 440 10 444 -8 z "},"5":{"ha":625,"x_min":178,"x_max":679,"o":"m 232 33 q 215 49 222 40 q 207 64 207 58 q 201 71 204 69 q 194 72 199 72 q 183 91 189 69 q 181 122 178 113 q 203 135 186 135 q 221 130 213 135 q 231 117 229 125 q 251 99 233 106 q 294 93 268 93 q 417 131 350 93 q 521 215 485 168 q 541 277 532 239 q 550 336 550 315 q 546 349 550 349 q 544 360 546 351 q 538 379 542 368 q 506 421 531 399 q 457 453 481 443 q 399 458 418 458 q 375 457 382 458 l 354 456 q 331 457 340 456 q 318 458 321 458 q 285 480 307 461 q 263 508 263 499 q 304 590 267 529 q 372 681 342 650 q 462 747 413 724 q 564 769 511 769 q 634 764 615 769 q 669 736 653 758 q 679 704 679 718 q 674 686 679 693 q 658 679 668 679 q 642 683 650 679 q 597 693 626 693 q 517 679 565 693 q 455 644 488 668 q 415 604 422 619 q 408 597 413 601 q 400 593 404 592 q 395 587 399 592 q 392 578 392 582 q 385 569 388 574 q 380 565 382 565 q 375 568 378 564 l 374 554 l 374 547 q 380 535 374 539 q 406 529 386 531 q 462 518 444 524 q 511 493 479 513 q 585 413 558 465 q 611 299 611 361 q 608 258 611 286 q 599 208 604 224 q 576 165 594 193 q 450 56 528 99 q 304 14 372 14 q 232 33 263 14 z "},"6":{"ha":625,"x_min":164,"x_max":658,"o":"m 351 43 q 290 33 318 33 q 215 65 247 33 q 185 95 194 81 q 172 136 176 110 q 164 178 164 164 q 176 256 164 193 q 197 338 189 313 q 229 397 206 364 q 254 456 239 425 q 276 494 269 486 q 297 523 282 501 q 326 560 311 544 l 364 610 q 390 632 383 622 q 471 695 415 661 q 567 733 526 729 q 596 739 583 739 q 608 732 611 739 q 614 726 610 731 q 628 721 618 722 q 637 710 632 719 q 644 697 642 701 q 643 676 647 685 q 621 651 639 668 q 594 635 601 638 q 581 640 586 633 q 576 647 582 644 q 568 650 571 650 q 502 619 554 653 q 421 553 450 586 q 386 514 390 525 q 358 483 371 499 q 340 461 344 467 q 351 456 342 456 q 368 460 360 456 q 378 467 376 464 q 409 481 378 472 q 472 493 440 490 q 489 496 481 496 q 542 488 500 496 q 585 475 574 481 q 611 450 596 469 q 648 401 638 425 q 658 343 658 376 q 653 298 658 315 q 635 263 649 281 q 587 197 617 233 q 540 149 557 160 q 531 143 535 146 q 525 139 526 140 q 459 89 522 124 q 351 43 396 54 m 258 111 q 292 106 286 106 q 346 121 310 106 q 382 128 376 129 q 405 143 388 132 q 447 169 422 154 q 555 265 514 213 q 596 358 596 318 q 594 369 596 365 l 594 372 q 591 392 594 379 q 588 407 588 404 q 572 410 582 407 q 549 415 561 413 q 524 418 532 418 q 415 399 501 418 q 398 394 408 397 q 374 389 388 392 q 350 380 364 386 q 326 371 336 374 q 289 351 307 356 q 261 325 272 350 q 235 231 250 300 q 224 160 224 171 q 229 139 224 146 q 238 119 231 124 q 258 111 244 114 z "},"7":{"ha":625,"x_min":247,"x_max":693,"o":"m 307 -25 q 257 28 276 -19 q 354 275 247 74 q 385 333 385 324 q 377 340 385 339 q 357 342 369 342 q 331 347 350 343 q 307 357 311 351 q 281 386 281 371 q 290 396 281 394 q 304 404 304 399 q 288 414 304 408 l 303 411 l 372 410 q 408 408 397 410 q 419 407 413 407 q 435 412 429 407 q 449 427 440 417 q 461 443 457 438 l 488 485 q 538 563 515 524 q 613 699 613 669 q 585 718 613 718 q 535 710 563 718 q 450 681 508 703 q 397 660 419 668 q 363 651 374 651 q 343 657 350 651 q 328 668 333 658 q 324 690 324 678 q 325 704 324 700 q 507 774 331 729 q 583 781 551 781 q 646 763 636 781 q 650 759 647 761 q 654 761 653 757 q 663 749 658 760 q 674 728 668 739 q 685 707 676 722 q 693 681 693 692 q 690 661 693 675 q 676 632 686 647 q 661 611 667 617 q 652 599 656 606 q 647 592 649 593 q 638 581 646 588 q 625 568 631 575 q 619 556 624 564 q 613 544 614 549 l 536 429 q 517 403 517 411 q 535 386 517 394 q 594 331 583 364 l 594 318 q 588 299 594 303 q 568 290 582 290 q 547 297 551 290 q 516 319 542 308 q 482 329 490 329 q 458 303 475 325 q 413 218 447 288 l 376 153 q 369 139 375 149 q 360 122 363 129 q 350 93 354 113 q 346 58 346 74 q 350 44 346 44 q 357 46 353 46 q 374 26 369 46 q 369 3 381 17 q 340 -19 358 -11 q 307 -25 322 -28 z "},"8":{"ha":625,"x_min":172,"x_max":735,"o":"m 244 -44 q 219 -34 232 -43 q 189 -8 207 -25 q 179 13 186 -3 q 172 44 172 28 q 175 69 172 50 q 192 144 175 118 q 261 271 208 192 q 353 399 314 350 q 368 428 368 417 q 360 450 368 436 q 339 482 351 464 q 328 503 335 493 q 325 513 322 513 q 321 518 324 514 q 314 532 318 522 q 293 592 293 551 q 314 671 293 632 q 363 747 336 721 q 432 778 390 772 q 530 760 471 772 q 621 735 589 749 q 679 698 646 725 q 715 660 713 671 q 719 651 715 657 q 726 639 724 644 q 735 593 735 621 q 719 529 735 553 q 671 485 685 490 q 656 472 667 482 q 635 460 646 463 q 610 436 617 436 q 598 441 603 440 q 593 436 593 442 q 556 415 592 431 q 511 403 519 399 l 510 403 q 494 397 503 403 q 492 387 488 399 q 515 353 497 375 q 569 196 569 251 q 558 154 569 169 q 501 56 532 94 q 453 19 471 17 l 433 7 q 422 -6 431 -1 q 406 -8 414 -10 l 401 -7 q 363 -22 386 -7 q 319 -42 344 -35 q 271 -49 293 -49 q 244 -44 253 -49 m 482 485 q 540 515 517 515 q 563 503 557 515 q 595 516 565 497 q 647 557 625 535 q 656 573 653 565 q 658 589 658 581 l 656 611 q 647 643 657 632 q 593 671 636 654 q 483 693 532 693 q 376 614 399 693 q 368 568 368 589 q 379 522 368 543 q 395 510 390 518 q 400 499 400 501 q 403 490 400 494 q 411 486 406 486 q 420 475 413 481 q 439 469 428 469 q 482 485 457 469 m 267 26 q 329 46 285 25 q 408 90 374 67 q 470 156 450 125 q 490 218 490 186 q 482 257 490 239 q 447 324 454 314 q 419 351 435 343 q 407 342 417 350 q 392 321 397 333 q 353 264 367 290 l 322 233 q 314 210 322 229 q 294 169 306 190 q 265 105 275 136 q 254 51 254 74 q 267 26 254 29 z "},"9":{"ha":625,"x_min":292,"x_max":721,"o":"m 435 -37 q 413 -25 425 -36 q 400 -8 400 -14 q 400 -3 401 -4 q 394 -1 399 -1 q 391 10 393 1 q 390 26 389 18 q 392 45 390 32 q 393 74 393 58 q 417 188 396 111 q 463 335 439 265 q 481 392 481 382 q 461 406 481 406 q 444 404 451 406 q 422 403 436 403 q 330 442 368 403 q 292 535 292 481 q 299 578 292 560 q 326 631 306 597 q 426 739 369 694 q 538 793 483 783 q 574 796 557 796 q 638 788 617 796 q 694 733 668 775 q 714 667 721 690 q 693 599 706 624 q 661 554 681 575 q 581 431 629 526 q 497 236 532 335 q 471 106 471 161 q 478 82 471 82 q 493 78 482 82 q 507 74 504 74 q 511 63 511 68 q 504 39 511 57 q 471 -10 497 19 q 435 -37 444 -39 m 372 492 q 411 476 386 476 q 494 509 449 476 q 574 593 540 542 l 600 628 q 619 651 617 649 q 640 688 640 675 q 632 706 640 697 q 600 722 622 722 q 553 711 586 722 q 513 698 532 707 q 464 669 494 689 q 442 664 456 661 q 438 663 440 664 q 436 657 436 661 q 438 651 438 656 q 419 625 438 639 q 379 569 393 599 q 365 515 365 539 q 372 492 365 501 z "},"\u0000":{"ha":0,"x_min":0,"x_max":0,"o":""},"\r":{"ha":336,"x_min":0,"x_max":0,"o":""}," ":{"ha":336,"x_min":0,"x_max":0,"o":""},"A":{"ha":697,"x_min":68,"x_max":747,"o":"m 96 -46 q 74 -31 81 -37 q 68 -12 68 -24 q 80 27 68 1 q 121 108 92 53 q 153 172 129 126 q 233 340 233 326 q 232 349 232 343 q 254 374 232 363 q 307 442 286 406 q 344 515 321 472 q 403 615 368 557 q 453 700 419 644 q 585 900 504 792 q 638 942 617 943 q 697 917 664 942 q 742 863 729 893 q 747 821 747 853 q 738 675 747 778 q 732 618 735 657 q 719 485 728 556 q 697 242 704 329 q 690 78 690 154 q 692 21 690 39 l 692 11 l 690 -21 q 665 -29 682 -29 q 628 -20 646 -29 q 607 1 610 -11 q 603 4 606 3 q 600 17 600 6 l 601 47 l 606 125 l 613 350 l 594 349 q 471 338 567 349 q 351 319 375 326 q 321 303 339 319 q 289 260 303 286 q 269 220 285 246 q 254 190 254 194 q 240 176 246 185 q 232 164 233 167 q 203 86 232 149 q 147 -18 175 24 l 118 -62 l 96 -46 m 383 401 q 419 408 392 403 q 469 414 447 413 q 592 438 569 438 q 610 433 601 438 q 619 426 614 428 q 625 424 624 424 q 642 574 628 432 q 658 764 657 717 l 663 833 q 626 801 654 833 q 565 719 599 769 q 504 615 531 668 q 477 569 490 590 q 458 547 464 547 q 413 472 449 538 q 383 401 376 407 z "},"Á":{"ha":697,"x_min":68,"x_max":847,"o":"m 96 -46 q 74 -31 81 -37 q 68 -12 68 -24 q 80 27 68 1 q 121 108 92 53 q 153 172 129 126 q 233 340 233 326 q 232 349 232 343 q 254 374 232 363 q 307 442 286 406 q 344 515 321 472 q 403 615 368 557 q 453 700 419 644 q 585 900 504 792 q 638 942 617 943 q 697 917 664 942 q 742 863 729 893 q 747 821 747 853 q 738 675 747 778 q 732 618 735 657 q 719 485 728 556 q 697 242 704 329 q 690 78 690 154 q 692 21 690 39 l 692 11 l 690 -21 q 665 -29 682 -29 q 628 -20 646 -29 q 607 1 610 -11 q 603 4 606 3 q 600 17 600 6 l 601 47 l 606 125 l 613 350 l 594 349 q 471 338 567 349 q 351 319 375 326 q 321 303 339 319 q 289 260 303 286 q 269 220 285 246 q 254 190 254 194 q 240 176 246 185 q 232 164 233 167 q 203 86 232 149 q 147 -18 175 24 l 118 -62 l 96 -46 m 383 401 q 419 408 392 403 q 469 414 447 413 q 592 438 569 438 q 610 433 601 438 q 619 426 614 428 q 625 424 624 424 q 642 574 628 432 q 658 764 657 717 l 663 833 q 626 801 654 833 q 565 719 599 769 q 504 615 531 668 q 477 569 490 590 q 458 547 464 547 q 413 472 449 538 q 383 401 376 407 m 671 992 q 656 1019 661 1000 q 653 1046 651 1038 q 713 1119 656 1058 q 789 1188 769 1181 q 801 1192 796 1192 q 846 1149 821 1192 q 833 1116 851 1136 q 775 1064 814 1096 q 717 1010 728 1025 q 703 990 710 997 q 690 982 696 982 q 671 992 686 982 z "},"Ă":{"ha":697,"x_min":68,"x_max":901,"o":"m 96 -46 q 74 -31 81 -37 q 68 -12 68 -24 q 80 27 68 1 q 121 108 92 53 q 153 172 129 126 q 233 340 233 326 q 232 349 232 343 q 254 374 232 363 q 307 442 286 406 q 344 515 321 472 q 403 615 368 557 q 453 700 419 644 q 585 900 504 792 q 638 942 617 943 q 697 917 664 942 q 742 863 729 893 q 747 821 747 853 q 738 675 747 778 q 732 618 735 657 q 719 485 728 556 q 697 242 704 329 q 690 78 690 154 q 692 21 690 39 l 692 11 l 690 -21 q 665 -29 682 -29 q 628 -20 646 -29 q 607 1 610 -11 q 603 4 606 3 q 600 17 600 6 l 601 47 l 606 125 l 613 350 l 594 349 q 471 338 567 349 q 351 319 375 326 q 321 303 339 319 q 289 260 303 286 q 269 220 285 246 q 254 190 254 194 q 240 176 246 185 q 232 164 233 167 q 203 86 232 149 q 147 -18 175 24 l 118 -62 l 96 -46 m 383 401 q 419 408 392 403 q 469 414 447 413 q 592 438 569 438 q 610 433 601 438 q 619 426 614 428 q 625 424 624 424 q 642 574 628 432 q 658 764 657 717 l 663 833 q 626 801 654 833 q 565 719 599 769 q 504 615 531 668 q 477 569 490 590 q 458 547 464 547 q 413 472 449 538 q 383 401 376 407 m 726 974 q 626 1006 663 974 q 590 1092 590 1039 q 593 1122 590 1103 q 611 1161 599 1147 q 638 1175 624 1175 q 653 1168 647 1175 q 660 1149 660 1161 l 657 1131 q 654 1107 654 1117 q 673 1055 654 1076 q 736 1035 692 1033 q 790 1067 760 1036 q 838 1128 821 1099 q 875 1161 856 1161 q 897 1144 889 1161 q 900 1114 904 1128 q 869 1059 894 1093 q 807 999 844 1025 q 726 974 769 974 z "},"Â":{"ha":697,"x_min":68,"x_max":840,"o":"m 96 -46 q 74 -31 81 -37 q 68 -12 68 -24 q 80 27 68 1 q 121 108 92 53 q 153 172 129 126 q 233 340 233 326 q 232 349 232 343 q 254 374 232 363 q 307 442 286 406 q 344 515 321 472 q 403 615 368 557 q 453 700 419 644 q 585 900 504 792 q 638 942 617 943 q 697 917 664 942 q 742 863 729 893 q 747 821 747 853 q 738 675 747 778 q 732 618 735 657 q 719 485 728 556 q 697 242 704 329 q 690 78 690 154 q 692 21 690 39 l 692 11 l 690 -21 q 665 -29 682 -29 q 628 -20 646 -29 q 607 1 610 -11 q 603 4 606 3 q 600 17 600 6 l 601 47 l 606 125 l 613 350 l 594 349 q 471 338 567 349 q 351 319 375 326 q 321 303 339 319 q 289 260 303 286 q 269 220 285 246 q 254 190 254 194 q 240 176 246 185 q 232 164 233 167 q 203 86 232 149 q 147 -18 175 24 l 118 -62 l 96 -46 m 383 401 q 419 408 392 403 q 469 414 447 413 q 592 438 569 438 q 610 433 601 438 q 619 426 614 428 q 625 424 624 424 q 642 574 628 432 q 658 764 657 717 l 663 833 q 626 801 654 833 q 565 719 599 769 q 504 615 531 668 q 477 569 490 590 q 458 547 464 547 q 413 472 449 538 q 383 401 376 407 m 600 1014 q 563 994 581 994 q 545 1002 551 994 q 539 1021 539 1010 q 550 1051 539 1036 q 608 1106 561 1065 q 681 1160 654 1146 q 703 1169 692 1169 q 724 1157 715 1169 q 782 1102 746 1139 q 833 1049 818 1065 q 840 1025 840 1040 q 833 1002 840 1013 q 815 992 826 992 q 775 1018 796 992 q 700 1092 747 1051 q 638 1047 671 1075 q 600 1014 606 1018 z "},"Ȁ":{"ha":697,"x_min":68,"x_max":796,"o":"m 96 -46 q 74 -31 81 -37 q 68 -12 68 -24 q 80 27 68 1 q 121 108 92 53 q 153 172 129 126 q 233 340 233 326 q 232 349 232 343 q 254 374 232 363 q 307 442 286 406 q 344 515 321 472 q 403 615 368 557 q 453 700 419 644 q 585 900 504 792 q 638 942 617 943 q 697 917 664 942 q 742 863 729 893 q 747 821 747 853 q 738 675 747 778 q 732 618 735 657 q 719 485 728 556 q 697 242 704 329 q 690 78 690 154 q 692 21 690 39 l 692 11 l 690 -21 q 665 -29 682 -29 q 628 -20 646 -29 q 607 1 610 -11 q 603 4 606 3 q 600 17 600 6 l 601 47 l 606 125 l 613 350 l 594 349 q 471 338 567 349 q 351 319 375 326 q 321 303 339 319 q 289 260 303 286 q 269 220 285 246 q 254 190 254 194 q 240 176 246 185 q 232 164 233 167 q 203 86 232 149 q 147 -18 175 24 l 118 -62 l 96 -46 m 383 401 q 419 408 392 403 q 469 414 447 413 q 592 438 569 438 q 610 433 601 438 q 619 426 614 428 q 625 424 624 424 q 642 574 628 432 q 658 764 657 717 l 663 833 q 626 801 654 833 q 565 719 599 769 q 504 615 531 668 q 477 569 490 590 q 458 547 464 547 q 413 472 449 538 q 383 401 376 407 m 604 999 q 590 994 596 994 q 581 1001 585 994 q 569 1024 576 1007 q 532 1078 565 1033 q 492 1135 504 1115 q 486 1164 479 1156 q 529 1196 508 1196 q 540 1192 536 1196 q 594 1118 556 1182 q 632 1044 632 1054 q 624 1022 633 1039 q 604 999 615 1006 m 769 999 q 754 994 760 994 q 744 1001 749 994 q 733 1024 740 1007 q 696 1078 729 1033 q 656 1135 668 1115 q 650 1164 643 1156 q 704 1192 686 1204 q 758 1117 721 1181 q 796 1044 796 1054 q 788 1022 797 1039 q 769 999 779 1006 z "},"Ä":{"ha":697,"x_min":68,"x_max":888,"o":"m 96 -46 q 74 -31 81 -37 q 68 -12 68 -24 q 80 27 68 1 q 121 108 92 53 q 153 172 129 126 q 233 340 233 326 q 232 349 232 343 q 254 374 232 363 q 307 442 286 406 q 344 515 321 472 q 403 615 368 557 q 453 700 419 644 q 585 900 504 792 q 638 942 617 943 q 697 917 664 942 q 742 863 729 893 q 747 821 747 853 q 738 675 747 778 q 732 618 735 657 q 719 485 728 556 q 697 242 704 329 q 690 78 690 154 q 692 21 690 39 l 692 11 l 690 -21 q 665 -29 682 -29 q 628 -20 646 -29 q 607 1 610 -11 q 603 4 606 3 q 600 17 600 6 l 601 47 l 606 125 l 613 350 l 594 349 q 471 338 567 349 q 351 319 375 326 q 321 303 339 319 q 289 260 303 286 q 269 220 285 246 q 254 190 254 194 q 240 176 246 185 q 232 164 233 167 q 203 86 232 149 q 147 -18 175 24 l 118 -62 l 96 -46 m 383 401 q 419 408 392 403 q 469 414 447 413 q 592 438 569 438 q 610 433 601 438 q 619 426 614 428 q 625 424 624 424 q 642 574 628 432 q 658 764 657 717 l 663 833 q 626 801 654 833 q 565 719 599 769 q 504 615 531 668 q 477 569 490 590 q 458 547 464 547 q 413 472 449 538 q 383 401 376 407 m 618 1042 q 601 1065 608 1051 q 597 1086 594 1079 q 625 1142 610 1129 q 634 1151 628 1144 q 644 1158 640 1157 q 664 1165 653 1165 q 699 1132 688 1165 q 708 1106 708 1115 q 703 1086 708 1096 q 685 1060 697 1076 q 640 1028 661 1028 q 618 1042 628 1028 m 797 1042 q 781 1065 788 1051 q 776 1086 774 1079 q 804 1142 789 1129 q 814 1151 807 1144 q 825 1158 821 1157 q 844 1165 833 1165 q 878 1132 867 1165 q 888 1106 888 1115 q 882 1086 888 1096 q 864 1060 876 1076 q 821 1028 840 1028 q 797 1042 807 1028 z "},"À":{"ha":697,"x_min":68,"x_max":794,"o":"m 96 -46 q 74 -31 81 -37 q 68 -12 68 -24 q 80 27 68 1 q 121 108 92 53 q 153 172 129 126 q 233 340 233 326 q 232 349 232 343 q 254 374 232 363 q 307 442 286 406 q 344 515 321 472 q 403 615 368 557 q 453 700 419 644 q 585 900 504 792 q 638 942 617 943 q 697 917 664 942 q 742 863 729 893 q 747 821 747 853 q 738 675 747 778 q 732 618 735 657 q 719 485 728 556 q 697 242 704 329 q 690 78 690 154 q 692 21 690 39 l 692 11 l 690 -21 q 665 -29 682 -29 q 628 -20 646 -29 q 607 1 610 -11 q 603 4 606 3 q 600 17 600 6 l 601 47 l 606 125 l 613 350 l 594 349 q 471 338 567 349 q 351 319 375 326 q 321 303 339 319 q 289 260 303 286 q 269 220 285 246 q 254 190 254 194 q 240 176 246 185 q 232 164 233 167 q 203 86 232 149 q 147 -18 175 24 l 118 -62 l 96 -46 m 383 401 q 419 408 392 403 q 469 414 447 413 q 592 438 569 438 q 610 433 601 438 q 619 426 614 428 q 625 424 624 424 q 642 574 628 432 q 658 764 657 717 l 663 833 q 626 801 654 833 q 565 719 599 769 q 504 615 531 668 q 477 569 490 590 q 458 547 464 547 q 413 472 449 538 q 383 401 376 407 m 767 988 q 749 979 754 979 q 739 986 743 979 q 729 1010 735 993 q 704 1050 726 1014 q 666 1115 679 1090 q 653 1157 653 1139 q 657 1174 653 1168 q 697 1199 685 1199 q 715 1190 708 1199 q 747 1148 728 1183 q 780 1074 765 1113 q 794 1024 794 1035 q 787 1003 796 1017 q 767 988 778 990 z "},"Ȃ":{"ha":697,"x_min":68,"x_max":858,"o":"m 96 -46 q 74 -31 81 -37 q 68 -12 68 -24 q 80 27 68 1 q 121 108 92 53 q 153 172 129 126 q 233 340 233 326 q 232 349 232 343 q 254 374 232 363 q 307 442 286 406 q 344 515 321 472 q 403 615 368 557 q 453 700 419 644 q 585 900 504 792 q 638 942 617 943 q 697 917 664 942 q 742 863 729 893 q 747 821 747 853 q 738 675 747 778 q 732 618 735 657 q 719 485 728 556 q 697 242 704 329 q 690 78 690 154 q 692 21 690 39 l 692 11 l 690 -21 q 665 -29 682 -29 q 628 -20 646 -29 q 607 1 610 -11 q 603 4 606 3 q 600 17 600 6 l 601 47 l 606 125 l 613 350 l 594 349 q 471 338 567 349 q 351 319 375 326 q 321 303 339 319 q 289 260 303 286 q 269 220 285 246 q 254 190 254 194 q 240 176 246 185 q 232 164 233 167 q 203 86 232 149 q 147 -18 175 24 l 118 -62 l 96 -46 m 383 401 q 419 408 392 403 q 469 414 447 413 q 592 438 569 438 q 610 433 601 438 q 619 426 614 428 q 625 424 624 424 q 642 574 628 432 q 658 764 657 717 l 663 833 q 626 801 654 833 q 565 719 599 769 q 504 615 531 668 q 477 569 490 590 q 458 547 464 547 q 413 472 449 538 q 383 401 376 407 m 792 1014 q 794 1038 794 1028 q 776 1090 794 1068 q 713 1110 757 1111 q 658 1077 689 1108 q 611 1017 628 1046 q 574 983 593 983 q 552 1000 560 983 q 549 1031 544 1017 q 581 1088 554 1053 q 647 1149 607 1124 q 733 1171 688 1175 q 825 1135 792 1167 q 858 1053 858 1103 q 856 1022 858 1042 q 838 983 850 997 q 811 969 825 969 q 795 976 801 969 q 789 996 789 983 l 792 1014 z "},"Ā":{"ha":697,"x_min":68,"x_max":914,"o":"m 96 -46 q 74 -31 81 -37 q 68 -12 68 -24 q 80 27 68 1 q 121 108 92 53 q 153 172 129 126 q 233 340 233 326 q 232 349 232 343 q 254 374 232 363 q 307 442 286 406 q 344 515 321 472 q 403 615 368 557 q 453 700 419 644 q 585 900 504 792 q 638 942 617 943 q 697 917 664 942 q 742 863 729 893 q 747 821 747 853 q 738 675 747 778 q 732 618 735 657 q 719 485 728 556 q 697 242 704 329 q 690 78 690 154 q 692 21 690 39 l 692 11 l 690 -21 q 665 -29 682 -29 q 628 -20 646 -29 q 607 1 610 -11 q 603 4 606 3 q 600 17 600 6 l 601 47 l 606 125 l 613 350 l 594 349 q 471 338 567 349 q 351 319 375 326 q 321 303 339 319 q 289 260 303 286 q 269 220 285 246 q 254 190 254 194 q 240 176 246 185 q 232 164 233 167 q 203 86 232 149 q 147 -18 175 24 l 118 -62 l 96 -46 m 383 401 q 419 408 392 403 q 469 414 447 413 q 592 438 569 438 q 610 433 601 438 q 619 426 614 428 q 625 424 624 424 q 642 574 628 432 q 658 764 657 717 l 663 833 q 626 801 654 833 q 565 719 599 769 q 504 615 531 668 q 477 569 490 590 q 458 547 464 547 q 413 472 449 538 q 383 401 376 407 m 625 1058 q 581 1064 597 1058 q 553 1067 561 1064 q 540 1081 546 1071 q 533 1099 533 1094 q 547 1113 533 1108 q 597 1122 561 1118 q 800 1138 696 1138 q 863 1135 839 1138 q 900 1121 886 1132 q 914 1090 914 1106 q 878 1068 914 1064 q 828 1065 860 1067 q 767 1064 796 1064 l 728 1063 q 625 1058 636 1058 z "},"Ą":{"ha":697,"x_min":68,"x_max":747,"o":"m 96 -46 q 74 -31 81 -37 q 68 -12 68 -24 q 80 27 68 1 q 121 108 92 53 q 153 172 129 126 q 233 340 233 326 q 232 349 232 343 q 254 374 232 363 q 307 442 286 406 q 344 515 321 472 q 403 615 368 557 q 453 700 419 644 q 585 900 504 792 q 638 942 617 943 q 697 917 664 942 q 742 863 729 893 q 747 821 747 853 q 738 675 747 778 q 732 618 735 657 q 719 485 728 556 q 697 242 704 329 q 690 78 690 154 q 692 21 690 39 l 692 11 l 690 -21 q 665 -29 682 -29 q 628 -20 646 -29 q 607 1 610 -11 q 603 4 606 3 q 600 17 600 6 l 601 47 l 606 125 l 613 350 l 594 349 q 471 338 567 349 q 351 319 375 326 q 321 303 339 319 q 289 260 303 286 q 269 220 285 246 q 254 190 254 194 q 240 176 246 185 q 232 164 233 167 q 203 86 232 149 q 147 -18 175 24 l 118 -62 l 96 -46 m 383 401 q 419 408 392 403 q 469 414 447 413 q 592 438 569 438 q 610 433 601 438 q 619 426 614 428 q 625 424 624 424 q 642 574 628 432 q 658 764 657 717 l 663 833 q 626 801 654 833 q 565 719 599 769 q 504 615 531 668 q 477 569 490 590 q 458 547 464 547 q 413 472 449 538 q 383 401 376 407 m 539 -268 q 485 -231 507 -258 q 464 -171 464 -204 q 523 -65 464 -125 q 651 40 582 -6 l 693 -1 q 619 -56 661 -21 q 553 -121 578 -92 q 522 -182 522 -158 q 528 -201 522 -194 q 537 -208 531 -207 q 553 -210 543 -210 q 598 -195 576 -207 q 626 -181 619 -183 l 664 -160 q 685 -154 675 -154 q 699 -160 693 -154 q 704 -175 704 -167 q 697 -197 704 -186 q 676 -214 690 -208 l 649 -226 q 539 -268 571 -264 z "},"Å":{"ha":697,"x_min":68,"x_max":842,"o":"m 96 -46 q 74 -31 81 -37 q 68 -12 68 -24 q 80 27 68 1 q 121 108 92 53 q 153 172 129 126 q 233 340 233 326 q 232 349 232 343 q 254 374 232 363 q 307 442 286 406 q 344 515 321 472 q 403 615 368 557 q 453 700 419 644 q 585 900 504 792 q 638 942 617 943 q 697 917 664 942 q 742 863 729 893 q 747 821 747 853 q 738 675 747 778 q 732 618 735 657 q 719 485 728 556 q 697 242 704 329 q 690 78 690 154 q 692 21 690 39 l 692 11 l 690 -21 q 665 -29 682 -29 q 628 -20 646 -29 q 607 1 610 -11 q 603 4 606 3 q 600 17 600 6 l 601 47 l 606 125 l 613 350 l 594 349 q 471 338 567 349 q 351 319 375 326 q 321 303 339 319 q 289 260 303 286 q 269 220 285 246 q 254 190 254 194 q 240 176 246 185 q 232 164 233 167 q 203 86 232 149 q 147 -18 175 24 l 118 -62 l 96 -46 m 383 401 q 419 408 392 403 q 469 414 447 413 q 592 438 569 438 q 610 433 601 438 q 619 426 614 428 q 625 424 624 424 q 642 574 628 432 q 658 764 657 717 l 663 833 q 626 801 654 833 q 565 719 599 769 q 504 615 531 668 q 477 569 490 590 q 458 547 464 547 q 413 472 449 538 q 383 401 376 407 m 733 958 q 640 1056 650 958 q 667 1144 640 1100 q 736 1188 694 1188 q 813 1167 783 1188 q 842 1107 842 1146 q 812 1005 842 1051 q 733 958 782 958 m 728 1014 q 767 1029 753 1014 q 782 1075 782 1044 q 746 1131 782 1131 q 693 1061 693 1131 q 705 1030 693 1046 q 728 1014 717 1014 z "},"Ǻ":{"ha":697,"x_min":68,"x_max":957,"o":"m 96 -46 q 74 -31 81 -37 q 68 -12 68 -24 q 80 27 68 1 q 121 108 92 53 q 153 172 129 126 q 233 340 233 326 q 232 349 232 343 q 254 374 232 363 q 307 442 286 406 q 344 515 321 472 q 403 615 368 557 q 453 700 419 644 q 585 900 504 792 q 638 942 617 943 q 697 917 664 942 q 742 863 729 893 q 747 821 747 853 q 738 675 747 778 q 732 618 735 657 q 719 485 728 556 q 697 242 704 329 q 690 78 690 154 q 692 21 690 39 l 692 11 l 690 -21 q 665 -29 682 -29 q 628 -20 646 -29 q 607 1 610 -11 q 603 4 606 3 q 600 17 600 6 l 601 47 l 606 125 l 613 350 l 594 349 q 471 338 567 349 q 351 319 375 326 q 321 303 339 319 q 289 260 303 286 q 269 220 285 246 q 254 190 254 194 q 240 176 246 185 q 232 164 233 167 q 203 86 232 149 q 147 -18 175 24 l 118 -62 l 96 -46 m 383 401 q 419 408 392 403 q 469 414 447 413 q 592 438 569 438 q 610 433 601 438 q 619 426 614 428 q 625 424 624 424 q 642 574 628 432 q 658 764 657 717 l 663 833 q 626 801 654 833 q 565 719 599 769 q 504 615 531 668 q 477 569 490 590 q 458 547 464 547 q 413 472 449 538 q 383 401 376 407 m 733 958 q 640 1056 650 958 q 667 1144 640 1100 q 736 1188 694 1188 q 813 1167 783 1188 q 842 1107 842 1146 q 812 1005 842 1051 q 733 958 782 958 m 728 1014 q 767 1029 753 1014 q 782 1075 782 1044 q 746 1131 782 1131 q 693 1061 693 1131 q 705 1030 693 1046 q 728 1014 717 1014 m 781 1124 q 766 1151 771 1132 q 763 1178 761 1169 q 822 1251 765 1190 q 899 1319 879 1313 q 911 1324 906 1324 q 956 1281 931 1324 q 942 1248 961 1268 q 885 1196 924 1228 q 826 1142 838 1157 q 813 1122 819 1129 q 800 1114 806 1114 q 781 1124 796 1114 z "},"Ã":{"ha":697,"x_min":68,"x_max":933,"o":"m 96 -46 q 74 -31 81 -37 q 68 -12 68 -24 q 80 27 68 1 q 121 108 92 53 q 153 172 129 126 q 233 340 233 326 q 232 349 232 343 q 254 374 232 363 q 307 442 286 406 q 344 515 321 472 q 403 615 368 557 q 453 700 419 644 q 585 900 504 792 q 638 942 617 943 q 697 917 664 942 q 742 863 729 893 q 747 821 747 853 q 738 675 747 778 q 732 618 735 657 q 719 485 728 556 q 697 242 704 329 q 690 78 690 154 q 692 21 690 39 l 692 11 l 690 -21 q 665 -29 682 -29 q 628 -20 646 -29 q 607 1 610 -11 q 603 4 606 3 q 600 17 600 6 l 601 47 l 606 125 l 613 350 l 594 349 q 471 338 567 349 q 351 319 375 326 q 321 303 339 319 q 289 260 303 286 q 269 220 285 246 q 254 190 254 194 q 240 176 246 185 q 232 164 233 167 q 203 86 232 149 q 147 -18 175 24 l 118 -62 l 96 -46 m 383 401 q 419 408 392 403 q 469 414 447 413 q 592 438 569 438 q 610 433 601 438 q 619 426 614 428 q 625 424 624 424 q 642 574 628 432 q 658 764 657 717 l 663 833 q 626 801 654 833 q 565 719 599 769 q 504 615 531 668 q 477 569 490 590 q 458 547 464 547 q 413 472 449 538 q 383 401 376 407 m 793 1013 q 756 1019 771 1013 q 726 1037 740 1026 q 704 1051 711 1047 q 685 1067 699 1054 q 657 1090 671 1081 q 633 1100 643 1100 q 617 1094 624 1100 q 600 1076 610 1089 q 587 1060 594 1068 q 569 1051 579 1053 q 561 1033 568 1043 q 551 1031 554 1024 q 531 1044 539 1035 q 524 1061 522 1053 q 547 1110 525 1079 q 611 1161 569 1140 q 631 1164 622 1164 q 672 1156 650 1164 q 710 1133 693 1149 q 734 1110 718 1125 q 760 1090 750 1096 q 781 1083 771 1083 q 801 1089 785 1083 q 850 1111 817 1093 q 900 1138 878 1129 q 925 1131 914 1143 q 933 1104 936 1118 q 924 1083 933 1097 q 903 1064 914 1069 q 824 1022 844 1031 q 793 1013 803 1013 z "},"Æ":{"ha":1089,"x_min":81,"x_max":1258,"o":"m 765 -67 q 659 -59 700 -67 q 586 -26 618 -51 q 548 18 560 -7 q 536 81 536 43 q 557 208 536 129 q 579 286 567 263 l 563 286 q 515 283 540 283 q 363 290 467 283 l 339 261 q 318 233 336 257 q 283 179 300 210 q 207 57 236 92 q 143 -18 157 -18 l 135 -18 q 101 -6 115 -18 q 81 24 81 6 q 122 100 81 53 q 136 118 131 110 q 143 129 142 126 q 192 208 146 139 q 250 282 239 276 q 267 311 267 297 q 254 335 267 322 q 247 344 247 339 q 259 360 247 353 q 283 368 271 368 q 297 375 290 372 q 306 380 303 378 q 310 386 310 382 q 355 459 313 394 q 417 544 397 524 q 449 600 438 583 q 465 622 461 617 q 522 699 475 629 q 578 757 540 713 l 597 779 q 656 850 611 803 q 692 881 679 872 q 717 890 704 890 q 744 882 728 890 q 815 865 758 875 l 865 856 q 985 883 929 879 q 1022 892 993 889 q 1088 894 1051 894 q 1157 892 1113 894 q 1195 887 1179 892 q 1224 876 1211 882 q 1242 867 1236 869 q 1254 844 1250 858 q 1258 825 1258 829 q 1227 817 1258 818 q 1135 815 1196 815 q 1011 803 1083 815 q 974 799 985 799 q 943 792 957 793 q 925 790 929 790 q 876 719 919 790 q 832 638 833 647 q 824 611 832 625 q 794 568 815 597 q 776 529 776 543 q 785 515 776 518 q 890 528 828 522 q 981 535 951 535 q 1006 539 996 539 q 1042 529 1025 539 q 1065 520 1057 526 q 1072 507 1072 514 q 1061 493 1072 497 q 976 461 1049 481 q 826 426 904 442 q 738 413 747 410 q 731 422 733 424 q 719 392 729 419 q 694 331 710 365 q 657 233 671 278 q 632 122 643 188 q 624 79 624 89 q 635 45 624 60 q 676 18 647 31 q 732 14 700 14 q 857 31 792 14 q 902 54 879 43 q 933 69 925 65 q 955 74 943 71 q 975 76 967 76 q 1003 92 986 92 q 1026 69 1007 92 q 1044 42 1046 47 q 1020 16 1044 28 q 914 -28 996 4 q 833 -60 856 -53 q 765 -67 810 -67 m 414 363 q 456 367 424 364 q 521 368 489 369 q 604 369 539 369 q 619 404 611 396 q 636 442 625 408 q 638 454 636 444 q 644 476 639 464 q 665 522 665 511 q 676 539 667 526 q 692 568 686 551 q 788 760 768 703 q 704 765 738 765 q 645 717 699 772 q 575 636 592 661 l 547 597 l 506 538 q 425 415 447 461 q 414 363 403 369 z "},"Ǽ":{"ha":1089,"x_min":81,"x_max":1258,"o":"m 765 -67 q 659 -59 700 -67 q 586 -26 618 -51 q 548 18 560 -7 q 536 81 536 43 q 557 208 536 129 q 579 286 567 263 l 563 286 q 515 283 540 283 q 363 290 467 283 l 339 261 q 318 233 336 257 q 283 179 300 210 q 207 57 236 92 q 143 -18 157 -18 l 135 -18 q 101 -6 115 -18 q 81 24 81 6 q 122 100 81 53 q 136 118 131 110 q 143 129 142 126 q 192 208 146 139 q 250 282 239 276 q 267 311 267 297 q 254 335 267 322 q 247 344 247 339 q 259 360 247 353 q 283 368 271 368 q 297 375 290 372 q 306 380 303 378 q 310 386 310 382 q 355 459 313 394 q 417 544 397 524 q 449 600 438 583 q 465 622 461 617 q 522 699 475 629 q 578 757 540 713 l 597 779 q 656 850 611 803 q 692 881 679 872 q 717 890 704 890 q 744 882 728 890 q 815 865 758 875 l 865 856 q 985 883 929 879 q 1022 892 993 889 q 1088 894 1051 894 q 1157 892 1113 894 q 1195 887 1179 892 q 1224 876 1211 882 q 1242 867 1236 869 q 1254 844 1250 858 q 1258 825 1258 829 q 1227 817 1258 818 q 1135 815 1196 815 q 1011 803 1083 815 q 974 799 985 799 q 943 792 957 793 q 925 790 929 790 q 876 719 919 790 q 832 638 833 647 q 824 611 832 625 q 794 568 815 597 q 776 529 776 543 q 785 515 776 518 q 890 528 828 522 q 981 535 951 535 q 1006 539 996 539 q 1042 529 1025 539 q 1065 520 1057 526 q 1072 507 1072 514 q 1061 493 1072 497 q 976 461 1049 481 q 826 426 904 442 q 738 413 747 410 q 731 422 733 424 q 719 392 729 419 q 694 331 710 365 q 657 233 671 278 q 632 122 643 188 q 624 79 624 89 q 635 45 624 60 q 676 18 647 31 q 732 14 700 14 q 857 31 792 14 q 902 54 879 43 q 933 69 925 65 q 955 74 943 71 q 975 76 967 76 q 1003 92 986 92 q 1026 69 1007 92 q 1044 42 1046 47 q 1020 16 1044 28 q 914 -28 996 4 q 833 -60 856 -53 q 765 -67 810 -67 m 414 363 q 456 367 424 364 q 521 368 489 369 q 604 369 539 369 q 619 404 611 396 q 636 442 625 408 q 638 454 636 444 q 644 476 639 464 q 665 522 665 511 q 676 539 667 526 q 692 568 686 551 q 788 760 768 703 q 704 765 738 765 q 645 717 699 772 q 575 636 592 661 l 547 597 l 506 538 q 425 415 447 461 q 414 363 403 369 m 919 992 q 905 1019 910 1000 q 901 1046 900 1038 q 961 1119 904 1058 q 1038 1188 1018 1181 q 1050 1192 1044 1192 q 1094 1149 1069 1192 q 1081 1116 1100 1136 q 1024 1064 1063 1096 q 965 1010 976 1025 q 951 990 958 997 q 939 982 944 982 q 919 992 935 982 z "},"B":{"ha":722,"x_min":114,"x_max":796,"o":"m 285 -79 q 219 -31 240 -51 q 197 8 197 -10 q 221 40 197 26 q 245 33 228 44 q 279 4 263 21 q 374 -29 315 -29 q 440 -19 399 -29 q 541 29 497 -3 q 625 111 585 61 q 663 185 650 144 q 675 261 675 225 q 658 326 675 306 q 500 401 603 401 q 417 390 456 401 l 336 374 q 324 370 333 372 q 293 310 314 368 q 239 157 272 251 q 193 38 210 72 q 163 4 176 4 q 129 35 149 4 q 114 78 114 60 q 126 117 114 96 q 138 142 133 129 q 149 176 143 154 q 253 446 167 231 q 389 771 340 661 q 410 854 424 850 q 406 867 410 858 q 403 879 401 875 q 442 904 403 888 q 499 918 481 921 l 507 918 q 525 925 525 918 q 551 928 528 925 q 600 928 574 931 q 744 874 693 919 q 794 751 796 828 q 746 649 793 717 q 651 539 699 582 q 601 498 629 519 q 564 471 572 476 l 599 458 q 706 397 667 433 q 761 299 746 360 q 764 274 764 285 q 753 204 764 243 q 731 136 743 165 q 717 118 722 128 q 710 106 711 108 q 685 63 708 100 q 643 4 661 26 q 519 -75 574 -56 q 388 -101 461 -101 q 285 -79 319 -101 m 353 456 q 415 467 368 458 q 479 483 461 476 q 497 492 482 485 q 526 515 511 500 q 608 606 560 546 q 679 708 657 667 q 714 792 714 765 q 699 825 714 810 q 613 847 681 847 q 536 839 568 847 q 508 826 517 833 q 499 803 499 818 q 476 760 499 782 q 470 744 475 751 q 464 735 465 736 q 447 693 464 731 q 406 596 425 650 q 353 456 353 471 z "},"C":{"ha":656,"x_min":160,"x_max":776,"o":"m 297 -78 q 227 -43 254 -62 q 182 21 200 -24 q 160 168 160 83 q 169 308 160 250 q 203 425 179 365 l 215 454 q 247 529 238 511 q 331 669 271 583 q 414 787 383 750 q 473 846 444 824 q 578 921 501 868 q 651 944 610 944 q 716 927 686 944 q 761 878 746 910 q 776 807 776 851 q 749 676 776 744 q 678 569 721 608 q 651 557 664 557 q 611 579 636 557 q 597 607 599 603 q 603 613 596 611 q 640 672 615 628 q 672 740 664 715 q 678 768 675 749 q 689 833 689 817 q 679 860 689 850 q 668 864 675 864 q 629 850 657 864 q 544 788 596 836 q 451 682 493 739 q 353 544 388 599 q 301 435 319 490 l 286 399 q 282 371 288 393 q 269 335 276 349 q 250 175 250 254 q 260 69 250 115 q 290 7 271 24 q 324 -3 301 -3 q 392 11 351 -3 q 493 51 433 25 q 553 81 525 64 q 596 111 582 97 q 654 138 632 138 q 675 143 669 143 q 678 140 678 143 q 679 131 679 136 q 658 88 679 111 q 603 44 638 65 q 536 1 575 17 q 433 -56 492 -31 q 325 -81 374 -81 q 297 -78 314 -81 z "},"Ć":{"ha":669,"x_min":160,"x_max":831,"o":"m 297 -78 q 227 -43 254 -62 q 182 21 200 -24 q 160 168 160 83 q 169 308 160 250 q 203 425 179 365 l 215 454 q 247 529 238 511 q 331 669 271 583 q 414 787 383 750 q 473 846 444 824 q 578 921 501 868 q 651 944 610 944 q 716 927 686 944 q 761 878 746 910 q 776 807 776 851 q 749 676 776 744 q 678 569 721 608 q 651 557 664 557 q 611 579 636 557 q 597 607 599 603 q 603 613 596 611 q 640 672 615 628 q 672 740 664 715 q 678 768 675 749 q 689 833 689 817 q 679 860 689 850 q 668 864 675 864 q 629 850 657 864 q 544 788 596 836 q 451 682 493 739 q 353 544 388 599 q 301 435 319 490 l 286 399 q 282 371 288 393 q 269 335 276 349 q 250 175 250 254 q 260 69 250 115 q 290 7 271 24 q 324 -3 301 -3 q 392 11 351 -3 q 493 51 433 25 q 553 81 525 64 q 596 111 582 97 q 654 138 632 138 q 675 143 669 143 q 678 140 678 143 q 679 131 679 136 q 658 88 679 111 q 603 44 638 65 q 536 1 575 17 q 433 -56 492 -31 q 325 -81 374 -81 q 297 -78 314 -81 m 654 992 q 640 1019 644 1000 q 636 1046 635 1038 q 696 1119 639 1058 q 772 1188 753 1181 q 785 1192 779 1192 q 829 1149 804 1192 q 816 1116 835 1136 q 758 1064 797 1096 q 700 1010 711 1025 q 686 990 693 997 q 674 982 679 982 q 654 992 669 982 z "},"Č":{"ha":669,"x_min":160,"x_max":872,"o":"m 297 -78 q 227 -43 254 -62 q 182 21 200 -24 q 160 168 160 83 q 169 308 160 250 q 203 425 179 365 l 215 454 q 247 529 238 511 q 331 669 271 583 q 414 787 383 750 q 473 846 444 824 q 578 921 501 868 q 651 944 610 944 q 716 927 686 944 q 761 878 746 910 q 776 807 776 851 q 749 676 776 744 q 678 569 721 608 q 651 557 664 557 q 611 579 636 557 q 597 607 599 603 q 603 613 596 611 q 640 672 615 628 q 672 740 664 715 q 678 768 675 749 q 689 833 689 817 q 679 860 689 850 q 668 864 675 864 q 629 850 657 864 q 544 788 596 836 q 451 682 493 739 q 353 544 388 599 q 301 435 319 490 l 286 399 q 282 371 288 393 q 269 335 276 349 q 250 175 250 254 q 260 69 250 115 q 290 7 271 24 q 324 -3 301 -3 q 392 11 351 -3 q 493 51 433 25 q 553 81 525 64 q 596 111 582 97 q 654 138 632 138 q 675 143 669 143 q 678 140 678 143 q 679 131 679 136 q 658 88 679 111 q 603 44 638 65 q 536 1 575 17 q 433 -56 492 -31 q 325 -81 374 -81 q 297 -78 314 -81 m 724 997 q 703 989 714 989 q 682 1000 690 989 q 616 1062 658 1021 q 569 1110 574 1103 q 567 1124 567 1118 q 574 1149 567 1138 q 593 1161 581 1161 q 628 1139 607 1161 q 667 1101 638 1125 q 706 1068 696 1076 q 763 1104 733 1085 q 806 1136 792 1124 q 851 1157 833 1157 q 867 1149 863 1157 q 872 1129 872 1140 q 869 1111 872 1117 q 810 1056 865 1099 q 724 997 754 1014 z "},"Ç":{"ha":669,"x_min":160,"x_max":776,"o":"m 297 -78 q 227 -43 254 -62 q 182 21 200 -24 q 160 168 160 83 q 169 308 160 250 q 203 425 179 365 l 215 454 q 247 529 238 511 q 331 669 271 583 q 414 787 383 750 q 473 846 444 824 q 578 921 501 868 q 651 944 610 944 q 716 927 686 944 q 761 878 746 910 q 776 807 776 851 q 749 676 776 744 q 678 569 721 608 q 651 557 664 557 q 611 579 636 557 q 597 607 599 603 q 603 613 596 611 q 640 672 615 628 q 672 740 664 715 q 678 768 675 749 q 689 833 689 817 q 679 860 689 850 q 668 864 675 864 q 629 850 657 864 q 544 788 596 836 q 451 682 493 739 q 353 544 388 599 q 301 435 319 490 l 286 399 q 282 371 288 393 q 269 335 276 349 q 250 175 250 254 q 260 69 250 115 q 290 7 271 24 q 324 -3 301 -3 q 392 11 351 -3 q 493 51 433 25 q 553 81 525 64 q 596 111 582 97 q 654 138 632 138 q 675 143 669 143 q 678 140 678 143 q 679 131 679 136 q 658 88 679 111 q 603 44 638 65 q 536 1 575 17 q 433 -56 492 -31 q 325 -81 374 -81 q 297 -78 314 -81 m 329 -347 q 306 -349 322 -349 q 192 -329 257 -349 q 168 -300 168 -321 q 177 -278 168 -287 q 199 -268 186 -268 q 210 -269 206 -268 q 251 -283 219 -272 q 303 -293 282 -293 q 340 -274 331 -293 q 346 -256 346 -267 q 322 -212 346 -239 q 301 -185 317 -206 q 269 -151 285 -165 q 254 -117 254 -131 q 278 -78 254 -99 q 363 -26 301 -57 l 408 -58 q 350 -92 369 -78 q 331 -124 331 -107 q 358 -160 332 -126 q 387 -195 374 -176 q 404 -231 400 -214 q 408 -261 408 -247 q 387 -317 408 -296 q 329 -347 365 -339 z "},"Ĉ":{"ha":669,"x_min":160,"x_max":879,"o":"m 297 -78 q 227 -43 254 -62 q 182 21 200 -24 q 160 168 160 83 q 169 308 160 250 q 203 425 179 365 l 215 454 q 247 529 238 511 q 331 669 271 583 q 414 787 383 750 q 473 846 444 824 q 578 921 501 868 q 651 944 610 944 q 716 927 686 944 q 761 878 746 910 q 776 807 776 851 q 749 676 776 744 q 678 569 721 608 q 651 557 664 557 q 611 579 636 557 q 597 607 599 603 q 603 613 596 611 q 640 672 615 628 q 672 740 664 715 q 678 768 675 749 q 689 833 689 817 q 679 860 689 850 q 668 864 675 864 q 629 850 657 864 q 544 788 596 836 q 451 682 493 739 q 353 544 388 599 q 301 435 319 490 l 286 399 q 282 371 288 393 q 269 335 276 349 q 250 175 250 254 q 260 69 250 115 q 290 7 271 24 q 324 -3 301 -3 q 392 11 351 -3 q 493 51 433 25 q 553 81 525 64 q 596 111 582 97 q 654 138 632 138 q 675 143 669 143 q 678 140 678 143 q 679 131 679 136 q 658 88 679 111 q 603 44 638 65 q 536 1 575 17 q 433 -56 492 -31 q 325 -81 374 -81 q 297 -78 314 -81 m 639 1014 q 601 994 619 994 q 584 1002 590 994 q 578 1021 578 1010 q 589 1051 578 1036 q 647 1106 600 1065 q 719 1160 693 1146 q 742 1169 731 1169 q 763 1157 754 1169 q 821 1102 785 1139 q 872 1049 857 1065 q 879 1025 879 1040 q 872 1002 879 1013 q 854 992 865 992 q 814 1018 835 992 q 739 1092 786 1051 q 677 1047 710 1075 q 639 1014 644 1018 z "},"Ċ":{"ha":669,"x_min":160,"x_max":786,"o":"m 297 -78 q 227 -43 254 -62 q 182 21 200 -24 q 160 168 160 83 q 169 308 160 250 q 203 425 179 365 l 215 454 q 247 529 238 511 q 331 669 271 583 q 414 787 383 750 q 473 846 444 824 q 578 921 501 868 q 651 944 610 944 q 716 927 686 944 q 761 878 746 910 q 776 807 776 851 q 749 676 776 744 q 678 569 721 608 q 651 557 664 557 q 611 579 636 557 q 597 607 599 603 q 603 613 596 611 q 640 672 615 628 q 672 740 664 715 q 678 768 675 749 q 689 833 689 817 q 679 860 689 850 q 668 864 675 864 q 629 850 657 864 q 544 788 596 836 q 451 682 493 739 q 353 544 388 599 q 301 435 319 490 l 286 399 q 282 371 288 393 q 269 335 276 349 q 250 175 250 254 q 260 69 250 115 q 290 7 271 24 q 324 -3 301 -3 q 392 11 351 -3 q 493 51 433 25 q 553 81 525 64 q 596 111 582 97 q 654 138 632 138 q 675 143 669 143 q 678 140 678 143 q 679 131 679 136 q 658 88 679 111 q 603 44 638 65 q 536 1 575 17 q 433 -56 492 -31 q 325 -81 374 -81 q 297 -78 314 -81 m 679 1025 q 663 1053 669 1033 q 658 1079 656 1072 q 696 1144 671 1122 q 705 1153 699 1147 q 715 1161 711 1160 q 735 1168 726 1168 q 778 1135 758 1168 q 786 1103 786 1117 q 779 1077 786 1090 q 754 1043 772 1064 q 710 1011 731 1011 q 679 1025 696 1011 z "},"D":{"ha":803,"x_min":113,"x_max":901,"o":"m 313 -132 q 265 -137 276 -137 q 199 -126 238 -137 q 172 -114 181 -121 q 153 -94 164 -107 q 138 -74 143 -81 q 113 -12 113 -39 q 132 3 113 8 q 163 -25 146 -4 q 199 -49 179 -42 q 246 -57 218 -57 q 283 -54 256 -57 q 361 -33 317 -49 q 426 -1 406 -18 q 535 72 493 44 q 589 107 578 100 q 618 124 592 114 l 656 160 q 703 207 692 199 q 708 227 704 217 q 711 243 711 238 q 761 330 728 261 q 807 449 794 399 q 819 564 819 514 q 790 706 819 649 q 703 813 760 764 q 606 865 674 836 q 528 889 539 893 q 490 809 521 888 q 407 583 460 731 l 363 460 q 350 418 357 438 q 339 383 343 399 q 321 325 321 332 q 297 263 306 301 q 276 133 288 225 q 265 92 264 88 q 256 53 260 68 q 247 39 251 38 l 242 33 q 229 25 242 25 q 204 31 218 25 q 182 46 190 38 q 176 74 176 65 q 188 129 176 92 q 224 262 199 176 q 268 401 250 347 q 296 490 278 425 q 330 596 311 542 q 357 664 349 650 q 376 719 360 674 q 414 821 392 765 l 424 867 l 408 874 q 386 869 396 869 q 371 874 379 869 q 333 885 357 869 q 306 915 308 901 q 302 928 303 919 q 301 939 301 936 q 357 965 304 953 q 472 976 410 976 q 513 975 499 976 q 560 967 538 974 q 617 946 583 960 l 650 933 q 745 875 694 917 q 835 777 796 833 q 889 663 875 721 q 897 613 893 644 q 901 556 901 581 q 896 519 901 526 q 892 506 892 514 q 897 496 892 497 q 888 465 894 488 q 872 418 881 443 q 794 213 864 331 q 783 210 788 213 q 785 207 779 208 q 769 181 785 200 q 752 160 765 178 q 733 139 739 143 q 725 123 732 129 q 713 117 718 117 q 710 116 713 117 q 708 111 708 115 q 617 22 683 75 q 500 -53 551 -31 q 467 -71 486 -62 q 442 -82 449 -79 q 385 -109 431 -92 q 313 -132 340 -126 z "},"Ð":{"ha":803,"x_min":113,"x_max":901,"o":"m 313 -132 q 265 -137 276 -137 q 199 -126 238 -137 q 172 -114 181 -121 q 153 -94 164 -107 q 138 -74 143 -81 q 113 -12 113 -39 q 132 3 113 8 q 163 -25 146 -4 q 199 -49 179 -42 q 246 -57 218 -57 q 283 -54 256 -57 q 361 -33 317 -49 q 426 -1 406 -18 q 535 72 493 44 q 589 107 578 100 q 618 124 592 114 l 656 160 q 703 207 692 199 q 708 227 704 217 q 711 243 711 238 q 761 330 728 261 q 807 449 794 399 q 819 564 819 514 q 790 706 819 649 q 703 813 760 764 q 606 865 674 836 q 528 889 539 893 q 481 783 521 886 q 400 564 442 679 l 372 488 l 397 488 q 442 485 431 488 q 469 471 454 482 q 483 440 483 456 q 447 418 483 414 q 364 414 406 414 q 349 413 354 414 q 333 367 344 401 q 321 325 321 333 q 297 263 306 301 q 276 133 288 225 q 265 92 264 88 q 256 53 260 68 q 247 39 251 38 l 242 33 q 229 25 242 25 q 204 31 218 25 q 182 46 190 38 q 176 74 176 65 q 188 129 176 92 q 224 262 199 176 q 268 401 250 347 q 269 405 269 403 q 271 408 269 407 l 250 408 q 206 414 222 408 q 178 417 186 414 q 165 431 171 421 q 158 449 158 444 q 172 463 158 458 q 222 472 186 468 l 293 482 l 296 490 q 330 596 311 542 q 357 664 349 650 q 376 719 360 674 q 414 821 392 765 l 424 867 l 408 874 q 386 869 396 869 q 371 874 379 869 q 333 885 357 869 q 306 915 308 901 q 302 928 303 919 q 301 939 301 936 q 357 965 304 953 q 472 976 410 976 q 513 975 499 976 q 560 967 538 974 q 617 946 583 960 l 650 933 q 745 875 694 917 q 835 777 796 833 q 889 663 875 721 q 897 613 893 644 q 901 556 901 581 q 896 519 901 526 q 892 506 892 514 q 897 496 892 497 q 888 465 894 488 q 872 418 881 443 q 794 213 864 331 q 783 210 788 213 q 785 207 779 208 q 769 181 785 200 q 752 160 765 178 q 733 139 739 143 q 725 123 732 129 q 713 117 718 117 q 710 116 713 117 q 708 111 708 115 q 617 22 683 75 q 500 -53 551 -31 q 467 -71 486 -62 q 442 -82 449 -79 q 385 -109 431 -92 q 313 -132 340 -126 z "},"Ď":{"ha":803,"x_min":113,"x_max":939,"o":"m 313 -132 q 265 -137 276 -137 q 199 -126 238 -137 q 172 -114 181 -121 q 153 -94 164 -107 q 138 -74 143 -81 q 113 -12 113 -39 q 132 3 113 8 q 163 -25 146 -4 q 199 -49 179 -42 q 246 -57 218 -57 q 283 -54 256 -57 q 361 -33 317 -49 q 426 -1 406 -18 q 535 72 493 44 q 589 107 578 100 q 618 124 592 114 l 656 160 q 703 207 692 199 q 708 227 704 217 q 711 243 711 238 q 761 330 728 261 q 807 449 794 399 q 819 564 819 514 q 790 706 819 649 q 703 813 760 764 q 606 865 674 836 q 528 889 539 893 q 490 809 521 888 q 407 583 460 731 l 363 460 q 350 418 357 438 q 339 383 343 399 q 321 325 321 332 q 297 263 306 301 q 276 133 288 225 q 265 92 264 88 q 256 53 260 68 q 247 39 251 38 l 242 33 q 229 25 242 25 q 204 31 218 25 q 182 46 190 38 q 176 74 176 65 q 188 129 176 92 q 224 262 199 176 q 268 401 250 347 q 296 490 278 425 q 330 596 311 542 q 357 664 349 650 q 376 719 360 674 q 414 821 392 765 l 424 867 l 408 874 q 386 869 396 869 q 371 874 379 869 q 333 885 357 869 q 306 915 308 901 q 302 928 303 919 q 301 939 301 936 q 357 965 304 953 q 472 976 410 976 q 513 975 499 976 q 560 967 538 974 q 617 946 583 960 l 650 933 q 745 875 694 917 q 835 777 796 833 q 889 663 875 721 q 897 613 893 644 q 901 556 901 581 q 896 519 901 526 q 892 506 892 514 q 897 496 892 497 q 888 465 894 488 q 872 418 881 443 q 794 213 864 331 q 783 210 788 213 q 785 207 779 208 q 769 181 785 200 q 752 160 765 178 q 733 139 739 143 q 725 123 732 129 q 713 117 718 117 q 710 116 713 117 q 708 111 708 115 q 617 22 683 75 q 500 -53 551 -31 q 467 -71 486 -62 q 442 -82 449 -79 q 385 -109 431 -92 q 313 -132 340 -126 m 790 997 q 769 989 781 989 q 749 1000 757 989 q 683 1062 725 1021 q 636 1110 640 1103 q 633 1124 633 1118 q 640 1149 633 1138 q 660 1161 647 1161 q 694 1139 674 1161 q 733 1101 704 1125 q 772 1068 763 1076 q 829 1104 800 1085 q 872 1136 858 1124 q 918 1157 900 1157 q 934 1149 929 1157 q 939 1129 939 1140 q 936 1111 939 1117 q 876 1056 932 1099 q 790 997 821 1014 z "},"Đ":{"ha":803,"x_min":113,"x_max":901,"o":"m 313 -132 q 265 -137 276 -137 q 199 -126 238 -137 q 172 -114 181 -121 q 153 -94 164 -107 q 138 -74 143 -81 q 113 -12 113 -39 q 132 3 113 8 q 163 -25 146 -4 q 199 -49 179 -42 q 246 -57 218 -57 q 283 -54 256 -57 q 361 -33 317 -49 q 426 -1 406 -18 q 535 72 493 44 q 589 107 578 100 q 618 124 592 114 l 656 160 q 703 207 692 199 q 708 227 704 217 q 711 243 711 238 q 761 330 728 261 q 807 449 794 399 q 819 564 819 514 q 790 706 819 649 q 703 813 760 764 q 606 865 674 836 q 528 889 539 893 q 481 783 521 886 q 400 564 442 679 l 372 488 l 397 488 q 442 485 431 488 q 469 471 454 482 q 483 440 483 456 q 447 418 483 414 q 364 414 406 414 q 349 413 354 414 q 333 367 344 401 q 321 325 321 333 q 297 263 306 301 q 276 133 288 225 q 265 92 264 88 q 256 53 260 68 q 247 39 251 38 l 242 33 q 229 25 242 25 q 204 31 218 25 q 182 46 190 38 q 176 74 176 65 q 188 129 176 92 q 224 262 199 176 q 268 401 250 347 q 269 405 269 403 q 271 408 269 407 l 250 408 q 206 414 222 408 q 178 417 186 414 q 165 431 171 421 q 158 449 158 444 q 172 463 158 458 q 222 472 186 468 l 293 482 l 296 490 q 330 596 311 542 q 357 664 349 650 q 376 719 360 674 q 414 821 392 765 l 424 867 l 408 874 q 386 869 396 869 q 371 874 379 869 q 333 885 357 869 q 306 915 308 901 q 302 928 303 919 q 301 939 301 936 q 357 965 304 953 q 472 976 410 976 q 513 975 499 976 q 560 967 538 974 q 617 946 583 960 l 650 933 q 745 875 694 917 q 835 777 796 833 q 889 663 875 721 q 897 613 893 644 q 901 556 901 581 q 896 519 901 526 q 892 506 892 514 q 897 496 892 497 q 888 465 894 488 q 872 418 881 443 q 794 213 864 331 q 783 210 788 213 q 785 207 779 208 q 769 181 785 200 q 752 160 765 178 q 733 139 739 143 q 725 123 732 129 q 713 117 718 117 q 710 116 713 117 q 708 111 708 115 q 617 22 683 75 q 500 -53 551 -31 q 467 -71 486 -62 q 442 -82 449 -79 q 385 -109 431 -92 q 313 -132 340 -126 z "},"Ḍ":{"ha":803,"x_min":113,"x_max":901,"o":"m 313 -132 q 265 -137 276 -137 q 199 -126 238 -137 q 172 -114 181 -121 q 153 -94 164 -107 q 138 -74 143 -81 q 113 -12 113 -39 q 132 3 113 8 q 163 -25 146 -4 q 199 -49 179 -42 q 246 -57 218 -57 q 283 -54 256 -57 q 361 -33 317 -49 q 426 -1 406 -18 q 535 72 493 44 q 589 107 578 100 q 618 124 592 114 l 656 160 q 703 207 692 199 q 708 227 704 217 q 711 243 711 238 q 761 330 728 261 q 807 449 794 399 q 819 564 819 514 q 790 706 819 649 q 703 813 760 764 q 606 865 674 836 q 528 889 539 893 q 490 809 521 888 q 407 583 460 731 l 363 460 q 350 418 357 438 q 339 383 343 399 q 321 325 321 332 q 297 263 306 301 q 276 133 288 225 q 265 92 264 88 q 256 53 260 68 q 247 39 251 38 l 242 33 q 229 25 242 25 q 204 31 218 25 q 182 46 190 38 q 176 74 176 65 q 188 129 176 92 q 224 262 199 176 q 268 401 250 347 q 296 490 278 425 q 330 596 311 542 q 357 664 349 650 q 376 719 360 674 q 414 821 392 765 l 424 867 l 408 874 q 386 869 396 869 q 371 874 379 869 q 333 885 357 869 q 306 915 308 901 q 302 928 303 919 q 301 939 301 936 q 357 965 304 953 q 472 976 410 976 q 513 975 499 976 q 560 967 538 974 q 617 946 583 960 l 650 933 q 745 875 694 917 q 835 777 796 833 q 889 663 875 721 q 897 613 893 644 q 901 556 901 581 q 896 519 901 526 q 892 506 892 514 q 897 496 892 497 q 888 465 894 488 q 872 418 881 443 q 794 213 864 331 q 783 210 788 213 q 785 207 779 208 q 769 181 785 200 q 752 160 765 178 q 733 139 739 143 q 725 123 732 129 q 713 117 718 117 q 710 116 713 117 q 708 111 708 115 q 617 22 683 75 q 500 -53 551 -31 q 467 -71 486 -62 q 442 -82 449 -79 q 385 -109 431 -92 q 313 -132 340 -126 m 326 -300 q 311 -278 317 -290 q 307 -258 306 -265 q 332 -206 319 -215 q 341 -197 335 -203 q 351 -189 347 -190 q 371 -182 363 -182 q 401 -214 392 -182 q 411 -240 411 -228 q 390 -282 411 -254 q 347 -314 367 -314 q 326 -300 336 -314 z "},"E":{"ha":735,"x_min":114,"x_max":879,"o":"m 321 -33 q 264 -18 290 -32 q 204 22 238 -4 l 176 42 q 138 94 151 67 q 117 164 125 121 q 114 193 114 181 q 128 288 114 233 q 158 378 142 343 q 293 614 189 451 q 301 622 299 619 q 302 624 303 624 q 301 625 301 625 q 342 711 301 635 q 365 754 365 736 q 361 769 365 764 q 387 803 356 776 q 465 857 418 831 q 539 886 503 886 q 558 883 550 886 q 567 872 565 879 q 622 878 567 864 q 658 885 647 883 q 687 897 664 892 q 751 907 710 901 q 797 907 774 906 q 828 910 821 908 q 852 906 839 914 q 875 876 865 899 q 879 858 879 867 q 860 834 879 843 q 796 819 842 825 q 739 813 750 814 q 578 786 663 804 q 499 758 524 775 q 444 694 475 742 q 419 659 435 688 q 389 600 404 631 q 379 586 385 594 q 365 568 374 578 q 310 490 325 514 q 299 460 294 465 q 315 456 303 458 q 335 451 326 453 q 369 461 347 458 q 401 467 392 464 q 651 528 622 524 q 675 536 664 536 q 719 503 700 536 q 724 488 724 494 q 704 464 724 475 q 631 437 685 453 q 500 400 576 421 l 456 388 q 315 361 365 361 q 274 385 272 361 q 242 354 260 392 q 213 262 225 317 q 200 169 200 207 q 204 139 200 150 q 235 86 217 104 q 299 56 254 68 q 323 53 308 54 q 357 51 338 51 q 413 63 385 51 q 534 90 483 75 q 596 113 585 106 q 610 118 604 117 q 621 119 615 119 l 619 117 q 619 116 619 117 q 621 115 619 115 q 646 139 625 115 q 710 176 669 158 q 753 185 751 194 q 756 171 756 176 q 723 108 756 144 q 635 39 690 71 q 483 -15 567 3 q 321 -33 399 -32 z "},"É":{"ha":761,"x_min":114,"x_max":879,"o":"m 321 -33 q 264 -18 290 -32 q 204 22 238 -4 l 176 42 q 138 94 151 67 q 117 164 125 121 q 114 193 114 181 q 128 288 114 233 q 158 378 142 343 q 293 614 189 451 q 301 622 299 619 q 302 624 303 624 q 301 625 301 625 q 342 711 301 635 q 365 754 365 736 q 361 769 365 764 q 387 803 356 776 q 465 857 418 831 q 539 886 503 886 q 558 883 550 886 q 567 872 565 879 q 622 878 567 864 q 658 885 647 883 q 687 897 664 892 q 751 907 710 901 q 797 907 774 906 q 828 910 821 908 q 852 906 839 914 q 875 876 865 899 q 879 858 879 867 q 860 834 879 843 q 796 819 842 825 q 739 813 750 814 q 578 786 663 804 q 499 758 524 775 q 444 694 475 742 q 419 659 435 688 q 389 600 404 631 q 379 586 385 594 q 365 568 374 578 q 310 490 325 514 q 299 460 294 465 q 315 456 303 458 q 335 451 326 453 q 369 461 347 458 q 401 467 392 464 q 651 528 622 524 q 675 536 664 536 q 719 503 700 536 q 724 488 724 494 q 704 464 724 475 q 631 437 685 453 q 500 400 576 421 l 456 388 q 315 361 365 361 q 274 385 272 361 q 242 354 260 392 q 213 262 225 317 q 200 169 200 207 q 204 139 200 150 q 235 86 217 104 q 299 56 254 68 q 323 53 308 54 q 357 51 338 51 q 413 63 385 51 q 534 90 483 75 q 596 113 585 106 q 610 118 604 117 q 621 119 615 119 l 619 117 q 619 116 619 117 q 621 115 619 115 q 646 139 625 115 q 710 176 669 158 q 753 185 751 194 q 756 171 756 176 q 723 108 756 144 q 635 39 690 71 q 483 -15 567 3 q 321 -33 399 -32 m 701 992 q 687 1019 692 1000 q 683 1046 682 1038 q 743 1119 686 1058 q 819 1188 800 1181 q 832 1192 826 1192 q 876 1149 851 1192 q 863 1116 882 1136 q 806 1064 844 1096 q 747 1010 758 1025 q 733 990 740 997 q 721 982 726 982 q 701 992 717 982 z "},"Ĕ":{"ha":761,"x_min":114,"x_max":932,"o":"m 321 -33 q 264 -18 290 -32 q 204 22 238 -4 l 176 42 q 138 94 151 67 q 117 164 125 121 q 114 193 114 181 q 128 288 114 233 q 158 378 142 343 q 293 614 189 451 q 301 622 299 619 q 302 624 303 624 q 301 625 301 625 q 342 711 301 635 q 365 754 365 736 q 361 769 365 764 q 387 803 356 776 q 465 857 418 831 q 539 886 503 886 q 558 883 550 886 q 567 872 565 879 q 622 878 567 864 q 658 885 647 883 q 687 897 664 892 q 751 907 710 901 q 797 907 774 906 q 828 910 821 908 q 852 906 839 914 q 875 876 865 899 q 879 858 879 867 q 860 834 879 843 q 796 819 842 825 q 739 813 750 814 q 578 786 663 804 q 499 758 524 775 q 444 694 475 742 q 419 659 435 688 q 389 600 404 631 q 379 586 385 594 q 365 568 374 578 q 310 490 325 514 q 299 460 294 465 q 315 456 303 458 q 335 451 326 453 q 369 461 347 458 q 401 467 392 464 q 651 528 622 524 q 675 536 664 536 q 719 503 700 536 q 724 488 724 494 q 704 464 724 475 q 631 437 685 453 q 500 400 576 421 l 456 388 q 315 361 365 361 q 274 385 272 361 q 242 354 260 392 q 213 262 225 317 q 200 169 200 207 q 204 139 200 150 q 235 86 217 104 q 299 56 254 68 q 323 53 308 54 q 357 51 338 51 q 413 63 385 51 q 534 90 483 75 q 596 113 585 106 q 610 118 604 117 q 621 119 615 119 l 619 117 q 619 116 619 117 q 621 115 619 115 q 646 139 625 115 q 710 176 669 158 q 753 185 751 194 q 756 171 756 176 q 723 108 756 144 q 635 39 690 71 q 483 -15 567 3 q 321 -33 399 -32 m 757 974 q 657 1006 693 974 q 621 1092 621 1039 q 624 1122 621 1103 q 642 1161 629 1147 q 668 1175 654 1175 q 684 1168 678 1175 q 690 1149 690 1161 l 688 1131 q 685 1107 685 1117 q 703 1055 685 1076 q 767 1035 722 1033 q 821 1067 790 1036 q 868 1128 851 1099 q 906 1161 886 1161 q 927 1144 919 1161 q 931 1114 935 1128 q 900 1059 925 1093 q 838 999 875 1025 q 757 974 800 974 z "},"Ě":{"ha":761,"x_min":114,"x_max":919,"o":"m 321 -33 q 264 -18 290 -32 q 204 22 238 -4 l 176 42 q 138 94 151 67 q 117 164 125 121 q 114 193 114 181 q 128 288 114 233 q 158 378 142 343 q 293 614 189 451 q 301 622 299 619 q 302 624 303 624 q 301 625 301 625 q 342 711 301 635 q 365 754 365 736 q 361 769 365 764 q 387 803 356 776 q 465 857 418 831 q 539 886 503 886 q 558 883 550 886 q 567 872 565 879 q 622 878 567 864 q 658 885 647 883 q 687 897 664 892 q 751 907 710 901 q 797 907 774 906 q 828 910 821 908 q 852 906 839 914 q 875 876 865 899 q 879 858 879 867 q 860 834 879 843 q 796 819 842 825 q 739 813 750 814 q 578 786 663 804 q 499 758 524 775 q 444 694 475 742 q 419 659 435 688 q 389 600 404 631 q 379 586 385 594 q 365 568 374 578 q 310 490 325 514 q 299 460 294 465 q 315 456 303 458 q 335 451 326 453 q 369 461 347 458 q 401 467 392 464 q 651 528 622 524 q 675 536 664 536 q 719 503 700 536 q 724 488 724 494 q 704 464 724 475 q 631 437 685 453 q 500 400 576 421 l 456 388 q 315 361 365 361 q 274 385 272 361 q 242 354 260 392 q 213 262 225 317 q 200 169 200 207 q 204 139 200 150 q 235 86 217 104 q 299 56 254 68 q 323 53 308 54 q 357 51 338 51 q 413 63 385 51 q 534 90 483 75 q 596 113 585 106 q 610 118 604 117 q 621 119 615 119 l 619 117 q 619 116 619 117 q 621 115 619 115 q 646 139 625 115 q 710 176 669 158 q 753 185 751 194 q 756 171 756 176 q 723 108 756 144 q 635 39 690 71 q 483 -15 567 3 q 321 -33 399 -32 m 771 997 q 750 989 761 989 q 729 1000 738 989 q 663 1062 706 1021 q 617 1110 621 1103 q 614 1124 614 1118 q 621 1149 614 1138 q 640 1161 628 1161 q 675 1139 654 1161 q 714 1101 685 1125 q 753 1068 743 1076 q 810 1104 781 1085 q 853 1136 839 1124 q 899 1157 881 1157 q 915 1149 910 1157 q 919 1129 919 1140 q 917 1111 919 1117 q 857 1056 913 1099 q 771 997 801 1014 z "},"Ê":{"ha":761,"x_min":114,"x_max":926,"o":"m 321 -33 q 264 -18 290 -32 q 204 22 238 -4 l 176 42 q 138 94 151 67 q 117 164 125 121 q 114 193 114 181 q 128 288 114 233 q 158 378 142 343 q 293 614 189 451 q 301 622 299 619 q 302 624 303 624 q 301 625 301 625 q 342 711 301 635 q 365 754 365 736 q 361 769 365 764 q 387 803 356 776 q 465 857 418 831 q 539 886 503 886 q 558 883 550 886 q 567 872 565 879 q 622 878 567 864 q 658 885 647 883 q 687 897 664 892 q 751 907 710 901 q 797 907 774 906 q 828 910 821 908 q 852 906 839 914 q 875 876 865 899 q 879 858 879 867 q 860 834 879 843 q 796 819 842 825 q 739 813 750 814 q 578 786 663 804 q 499 758 524 775 q 444 694 475 742 q 419 659 435 688 q 389 600 404 631 q 379 586 385 594 q 365 568 374 578 q 310 490 325 514 q 299 460 294 465 q 315 456 303 458 q 335 451 326 453 q 369 461 347 458 q 401 467 392 464 q 651 528 622 524 q 675 536 664 536 q 719 503 700 536 q 724 488 724 494 q 704 464 724 475 q 631 437 685 453 q 500 400 576 421 l 456 388 q 315 361 365 361 q 274 385 272 361 q 242 354 260 392 q 213 262 225 317 q 200 169 200 207 q 204 139 200 150 q 235 86 217 104 q 299 56 254 68 q 323 53 308 54 q 357 51 338 51 q 413 63 385 51 q 534 90 483 75 q 596 113 585 106 q 610 118 604 117 q 621 119 615 119 l 619 117 q 619 116 619 117 q 621 115 619 115 q 646 139 625 115 q 710 176 669 158 q 753 185 751 194 q 756 171 756 176 q 723 108 756 144 q 635 39 690 71 q 483 -15 567 3 q 321 -33 399 -32 m 686 1014 q 649 994 667 994 q 631 1002 638 994 q 625 1021 625 1010 q 636 1051 625 1036 q 694 1106 647 1065 q 767 1160 740 1146 q 789 1169 778 1169 q 810 1157 801 1169 q 868 1102 832 1139 q 919 1049 904 1065 q 926 1025 926 1040 q 919 1002 926 1013 q 901 992 913 992 q 861 1018 882 992 q 786 1092 833 1051 q 724 1047 757 1075 q 686 1014 692 1018 z "},"Ȅ":{"ha":761,"x_min":114,"x_max":879,"o":"m 321 -33 q 264 -18 290 -32 q 204 22 238 -4 l 176 42 q 138 94 151 67 q 117 164 125 121 q 114 193 114 181 q 128 288 114 233 q 158 378 142 343 q 293 614 189 451 q 301 622 299 619 q 302 624 303 624 q 301 625 301 625 q 342 711 301 635 q 365 754 365 736 q 361 769 365 764 q 387 803 356 776 q 465 857 418 831 q 539 886 503 886 q 558 883 550 886 q 567 872 565 879 q 622 878 567 864 q 658 885 647 883 q 687 897 664 892 q 751 907 710 901 q 797 907 774 906 q 828 910 821 908 q 852 906 839 914 q 875 876 865 899 q 879 858 879 867 q 860 834 879 843 q 796 819 842 825 q 739 813 750 814 q 578 786 663 804 q 499 758 524 775 q 444 694 475 742 q 419 659 435 688 q 389 600 404 631 q 379 586 385 594 q 365 568 374 578 q 310 490 325 514 q 299 460 294 465 q 315 456 303 458 q 335 451 326 453 q 369 461 347 458 q 401 467 392 464 q 651 528 622 524 q 675 536 664 536 q 719 503 700 536 q 724 488 724 494 q 704 464 724 475 q 631 437 685 453 q 500 400 576 421 l 456 388 q 315 361 365 361 q 274 385 272 361 q 242 354 260 392 q 213 262 225 317 q 200 169 200 207 q 204 139 200 150 q 235 86 217 104 q 299 56 254 68 q 323 53 308 54 q 357 51 338 51 q 413 63 385 51 q 534 90 483 75 q 596 113 585 106 q 610 118 604 117 q 621 119 615 119 l 619 117 q 619 116 619 117 q 621 115 619 115 q 646 139 625 115 q 710 176 669 158 q 753 185 751 194 q 756 171 756 176 q 723 108 756 144 q 635 39 690 71 q 483 -15 567 3 q 321 -33 399 -32 m 635 999 q 621 994 626 994 q 611 1001 615 994 q 600 1024 607 1007 q 563 1078 596 1033 q 522 1135 535 1115 q 517 1164 510 1156 q 560 1196 539 1196 q 571 1192 567 1196 q 624 1118 586 1182 q 663 1044 663 1054 q 655 1022 664 1039 q 635 999 646 1006 m 800 999 q 785 994 790 994 q 775 1001 779 994 q 764 1024 771 1007 q 726 1078 760 1033 q 686 1135 699 1115 q 681 1164 674 1156 q 735 1192 717 1204 q 789 1117 751 1181 q 826 1044 826 1054 q 819 1022 828 1039 q 800 999 810 1006 z "},"Ë":{"ha":761,"x_min":114,"x_max":918,"o":"m 321 -33 q 264 -18 290 -32 q 204 22 238 -4 l 176 42 q 138 94 151 67 q 117 164 125 121 q 114 193 114 181 q 128 288 114 233 q 158 378 142 343 q 293 614 189 451 q 301 622 299 619 q 302 624 303 624 q 301 625 301 625 q 342 711 301 635 q 365 754 365 736 q 361 769 365 764 q 387 803 356 776 q 465 857 418 831 q 539 886 503 886 q 558 883 550 886 q 567 872 565 879 q 622 878 567 864 q 658 885 647 883 q 687 897 664 892 q 751 907 710 901 q 797 907 774 906 q 828 910 821 908 q 852 906 839 914 q 875 876 865 899 q 879 858 879 867 q 860 834 879 843 q 796 819 842 825 q 739 813 750 814 q 578 786 663 804 q 499 758 524 775 q 444 694 475 742 q 419 659 435 688 q 389 600 404 631 q 379 586 385 594 q 365 568 374 578 q 310 490 325 514 q 299 460 294 465 q 315 456 303 458 q 335 451 326 453 q 369 461 347 458 q 401 467 392 464 q 651 528 622 524 q 675 536 664 536 q 719 503 700 536 q 724 488 724 494 q 704 464 724 475 q 631 437 685 453 q 500 400 576 421 l 456 388 q 315 361 365 361 q 274 385 272 361 q 242 354 260 392 q 213 262 225 317 q 200 169 200 207 q 204 139 200 150 q 235 86 217 104 q 299 56 254 68 q 323 53 308 54 q 357 51 338 51 q 413 63 385 51 q 534 90 483 75 q 596 113 585 106 q 610 118 604 117 q 621 119 615 119 l 619 117 q 619 116 619 117 q 621 115 619 115 q 646 139 625 115 q 710 176 669 158 q 753 185 751 194 q 756 171 756 176 q 723 108 756 144 q 635 39 690 71 q 483 -15 567 3 q 321 -33 399 -32 m 649 1042 q 632 1065 639 1051 q 628 1086 625 1079 q 656 1142 640 1129 q 665 1151 658 1144 q 675 1158 671 1157 q 694 1165 683 1165 q 729 1132 718 1165 q 739 1106 739 1115 q 733 1086 739 1096 q 715 1060 728 1076 q 671 1028 692 1028 q 649 1042 658 1028 m 828 1042 q 811 1065 818 1051 q 807 1086 804 1079 q 835 1142 819 1129 q 844 1151 838 1144 q 856 1158 851 1157 q 875 1165 864 1165 q 908 1132 897 1165 q 918 1106 918 1115 q 913 1086 918 1096 q 894 1060 907 1076 q 851 1028 871 1028 q 828 1042 838 1028 z "},"Ė":{"ha":761,"x_min":114,"x_max":879,"o":"m 321 -33 q 264 -18 290 -32 q 204 22 238 -4 l 176 42 q 138 94 151 67 q 117 164 125 121 q 114 193 114 181 q 128 288 114 233 q 158 378 142 343 q 293 614 189 451 q 301 622 299 619 q 302 624 303 624 q 301 625 301 625 q 342 711 301 635 q 365 754 365 736 q 361 769 365 764 q 387 803 356 776 q 465 857 418 831 q 539 886 503 886 q 558 883 550 886 q 567 872 565 879 q 622 878 567 864 q 658 885 647 883 q 687 897 664 892 q 751 907 710 901 q 797 907 774 906 q 828 910 821 908 q 852 906 839 914 q 875 876 865 899 q 879 858 879 867 q 860 834 879 843 q 796 819 842 825 q 739 813 750 814 q 578 786 663 804 q 499 758 524 775 q 444 694 475 742 q 419 659 435 688 q 389 600 404 631 q 379 586 385 594 q 365 568 374 578 q 310 490 325 514 q 299 460 294 465 q 315 456 303 458 q 335 451 326 453 q 369 461 347 458 q 401 467 392 464 q 651 528 622 524 q 675 536 664 536 q 719 503 700 536 q 724 488 724 494 q 704 464 724 475 q 631 437 685 453 q 500 400 576 421 l 456 388 q 315 361 365 361 q 274 385 272 361 q 242 354 260 392 q 213 262 225 317 q 200 169 200 207 q 204 139 200 150 q 235 86 217 104 q 299 56 254 68 q 323 53 308 54 q 357 51 338 51 q 413 63 385 51 q 534 90 483 75 q 596 113 585 106 q 610 118 604 117 q 621 119 615 119 l 619 117 q 619 116 619 117 q 621 115 619 115 q 646 139 625 115 q 710 176 669 158 q 753 185 751 194 q 756 171 756 176 q 723 108 756 144 q 635 39 690 71 q 483 -15 567 3 q 321 -33 399 -32 m 726 1025 q 710 1053 717 1033 q 706 1079 703 1072 q 743 1144 718 1122 q 752 1153 746 1147 q 763 1161 758 1160 q 782 1168 774 1168 q 825 1135 806 1168 q 833 1103 833 1117 q 826 1077 833 1090 q 801 1043 819 1064 q 757 1011 778 1011 q 726 1025 743 1011 z "},"Ẹ":{"ha":761,"x_min":114,"x_max":879,"o":"m 321 -33 q 264 -18 290 -32 q 204 22 238 -4 l 176 42 q 138 94 151 67 q 117 164 125 121 q 114 193 114 181 q 128 288 114 233 q 158 378 142 343 q 293 614 189 451 q 301 622 299 619 q 302 624 303 624 q 301 625 301 625 q 342 711 301 635 q 365 754 365 736 q 361 769 365 764 q 387 803 356 776 q 465 857 418 831 q 539 886 503 886 q 558 883 550 886 q 567 872 565 879 q 622 878 567 864 q 658 885 647 883 q 687 897 664 892 q 751 907 710 901 q 797 907 774 906 q 828 910 821 908 q 852 906 839 914 q 875 876 865 899 q 879 858 879 867 q 860 834 879 843 q 796 819 842 825 q 739 813 750 814 q 578 786 663 804 q 499 758 524 775 q 444 694 475 742 q 419 659 435 688 q 389 600 404 631 q 379 586 385 594 q 365 568 374 578 q 310 490 325 514 q 299 460 294 465 q 315 456 303 458 q 335 451 326 453 q 369 461 347 458 q 401 467 392 464 q 651 528 622 524 q 675 536 664 536 q 719 503 700 536 q 724 488 724 494 q 704 464 724 475 q 631 437 685 453 q 500 400 576 421 l 456 388 q 315 361 365 361 q 274 385 272 361 q 242 354 260 392 q 213 262 225 317 q 200 169 200 207 q 204 139 200 150 q 235 86 217 104 q 299 56 254 68 q 323 53 308 54 q 357 51 338 51 q 413 63 385 51 q 534 90 483 75 q 596 113 585 106 q 610 118 604 117 q 621 119 615 119 l 619 117 q 619 116 619 117 q 621 115 619 115 q 646 139 625 115 q 710 176 669 158 q 753 185 751 194 q 756 171 756 176 q 723 108 756 144 q 635 39 690 71 q 483 -15 567 3 q 321 -33 399 -32 m 315 -214 q 300 -192 306 -204 q 296 -172 294 -179 q 321 -119 308 -129 q 330 -110 324 -117 q 340 -103 336 -104 q 360 -96 351 -96 q 390 -128 381 -96 q 400 -154 400 -142 q 379 -196 400 -168 q 336 -228 356 -228 q 315 -214 325 -228 z "},"È":{"ha":761,"x_min":114,"x_max":879,"o":"m 321 -33 q 264 -18 290 -32 q 204 22 238 -4 l 176 42 q 138 94 151 67 q 117 164 125 121 q 114 193 114 181 q 128 288 114 233 q 158 378 142 343 q 293 614 189 451 q 301 622 299 619 q 302 624 303 624 q 301 625 301 625 q 342 711 301 635 q 365 754 365 736 q 361 769 365 764 q 387 803 356 776 q 465 857 418 831 q 539 886 503 886 q 558 883 550 886 q 567 872 565 879 q 622 878 567 864 q 658 885 647 883 q 687 897 664 892 q 751 907 710 901 q 797 907 774 906 q 828 910 821 908 q 852 906 839 914 q 875 876 865 899 q 879 858 879 867 q 860 834 879 843 q 796 819 842 825 q 739 813 750 814 q 578 786 663 804 q 499 758 524 775 q 444 694 475 742 q 419 659 435 688 q 389 600 404 631 q 379 586 385 594 q 365 568 374 578 q 310 490 325 514 q 299 460 294 465 q 315 456 303 458 q 335 451 326 453 q 369 461 347 458 q 401 467 392 464 q 651 528 622 524 q 675 536 664 536 q 719 503 700 536 q 724 488 724 494 q 704 464 724 475 q 631 437 685 453 q 500 400 576 421 l 456 388 q 315 361 365 361 q 274 385 272 361 q 242 354 260 392 q 213 262 225 317 q 200 169 200 207 q 204 139 200 150 q 235 86 217 104 q 299 56 254 68 q 323 53 308 54 q 357 51 338 51 q 413 63 385 51 q 534 90 483 75 q 596 113 585 106 q 610 118 604 117 q 621 119 615 119 l 619 117 q 619 116 619 117 q 621 115 619 115 q 646 139 625 115 q 710 176 669 158 q 753 185 751 194 q 756 171 756 176 q 723 108 756 144 q 635 39 690 71 q 483 -15 567 3 q 321 -33 399 -32 m 797 988 q 779 979 785 979 q 769 986 774 979 q 760 1010 765 993 q 735 1050 757 1014 q 697 1115 710 1090 q 683 1157 683 1139 q 688 1174 683 1168 q 728 1199 715 1199 q 746 1190 739 1199 q 777 1148 758 1183 q 810 1074 796 1113 q 825 1024 825 1035 q 817 1003 826 1017 q 797 988 808 990 z "},"Ȇ":{"ha":761,"x_min":114,"x_max":889,"o":"m 321 -33 q 264 -18 290 -32 q 204 22 238 -4 l 176 42 q 138 94 151 67 q 117 164 125 121 q 114 193 114 181 q 128 288 114 233 q 158 378 142 343 q 293 614 189 451 q 301 622 299 619 q 302 624 303 624 q 301 625 301 625 q 342 711 301 635 q 365 754 365 736 q 361 769 365 764 q 387 803 356 776 q 465 857 418 831 q 539 886 503 886 q 558 883 550 886 q 567 872 565 879 q 622 878 567 864 q 658 885 647 883 q 687 897 664 892 q 751 907 710 901 q 797 907 774 906 q 828 910 821 908 q 852 906 839 914 q 875 876 865 899 q 879 858 879 867 q 860 834 879 843 q 796 819 842 825 q 739 813 750 814 q 578 786 663 804 q 499 758 524 775 q 444 694 475 742 q 419 659 435 688 q 389 600 404 631 q 379 586 385 594 q 365 568 374 578 q 310 490 325 514 q 299 460 294 465 q 315 456 303 458 q 335 451 326 453 q 369 461 347 458 q 401 467 392 464 q 651 528 622 524 q 675 536 664 536 q 719 503 700 536 q 724 488 724 494 q 704 464 724 475 q 631 437 685 453 q 500 400 576 421 l 456 388 q 315 361 365 361 q 274 385 272 361 q 242 354 260 392 q 213 262 225 317 q 200 169 200 207 q 204 139 200 150 q 235 86 217 104 q 299 56 254 68 q 323 53 308 54 q 357 51 338 51 q 413 63 385 51 q 534 90 483 75 q 596 113 585 106 q 610 118 604 117 q 621 119 615 119 l 619 117 q 619 116 619 117 q 621 115 619 115 q 646 139 625 115 q 710 176 669 158 q 753 185 751 194 q 756 171 756 176 q 723 108 756 144 q 635 39 690 71 q 483 -15 567 3 q 321 -33 399 -32 m 822 1014 q 825 1038 825 1028 q 806 1090 825 1068 q 743 1110 788 1111 q 689 1077 719 1108 q 642 1017 658 1046 q 604 983 624 983 q 583 1000 590 983 q 579 1031 575 1017 q 611 1088 585 1053 q 678 1149 638 1124 q 764 1171 718 1175 q 856 1135 822 1167 q 889 1053 889 1103 q 886 1022 889 1042 q 868 983 881 997 q 842 969 856 969 q 826 976 832 969 q 819 996 819 983 l 822 1014 z "},"Ē":{"ha":761,"x_min":114,"x_max":944,"o":"m 321 -33 q 264 -18 290 -32 q 204 22 238 -4 l 176 42 q 138 94 151 67 q 117 164 125 121 q 114 193 114 181 q 128 288 114 233 q 158 378 142 343 q 293 614 189 451 q 301 622 299 619 q 302 624 303 624 q 301 625 301 625 q 342 711 301 635 q 365 754 365 736 q 361 769 365 764 q 387 803 356 776 q 465 857 418 831 q 539 886 503 886 q 558 883 550 886 q 567 872 565 879 q 622 878 567 864 q 658 885 647 883 q 687 897 664 892 q 751 907 710 901 q 797 907 774 906 q 828 910 821 908 q 852 906 839 914 q 875 876 865 899 q 879 858 879 867 q 860 834 879 843 q 796 819 842 825 q 739 813 750 814 q 578 786 663 804 q 499 758 524 775 q 444 694 475 742 q 419 659 435 688 q 389 600 404 631 q 379 586 385 594 q 365 568 374 578 q 310 490 325 514 q 299 460 294 465 q 315 456 303 458 q 335 451 326 453 q 369 461 347 458 q 401 467 392 464 q 651 528 622 524 q 675 536 664 536 q 719 503 700 536 q 724 488 724 494 q 704 464 724 475 q 631 437 685 453 q 500 400 576 421 l 456 388 q 315 361 365 361 q 274 385 272 361 q 242 354 260 392 q 213 262 225 317 q 200 169 200 207 q 204 139 200 150 q 235 86 217 104 q 299 56 254 68 q 323 53 308 54 q 357 51 338 51 q 413 63 385 51 q 534 90 483 75 q 596 113 585 106 q 610 118 604 117 q 621 119 615 119 l 619 117 q 619 116 619 117 q 621 115 619 115 q 646 139 625 115 q 710 176 669 158 q 753 185 751 194 q 756 171 756 176 q 723 108 756 144 q 635 39 690 71 q 483 -15 567 3 q 321 -33 399 -32 m 656 1058 q 611 1064 628 1058 q 584 1067 592 1064 q 571 1081 576 1071 q 564 1099 564 1094 q 578 1113 564 1108 q 628 1122 592 1118 q 831 1138 726 1138 q 893 1135 869 1138 q 931 1121 917 1132 q 944 1090 944 1106 q 908 1068 944 1064 q 858 1065 890 1067 q 797 1064 826 1064 l 758 1063 q 656 1058 667 1058 z "},"Ę":{"ha":761,"x_min":114,"x_max":879,"o":"m 321 -33 q 264 -18 290 -32 q 204 22 238 -4 l 176 42 q 138 94 151 67 q 117 164 125 121 q 114 193 114 181 q 128 288 114 233 q 158 378 142 343 q 293 614 189 451 q 301 622 299 619 q 302 624 303 624 q 301 625 301 625 q 342 711 301 635 q 365 754 365 736 q 361 769 365 764 q 387 803 356 776 q 465 857 418 831 q 539 886 503 886 q 558 883 550 886 q 567 872 565 879 q 622 878 567 864 q 658 885 647 883 q 687 897 664 892 q 751 907 710 901 q 797 907 774 906 q 828 910 821 908 q 852 906 839 914 q 875 876 865 899 q 879 858 879 867 q 860 834 879 843 q 796 819 842 825 q 739 813 750 814 q 578 786 663 804 q 499 758 524 775 q 444 694 475 742 q 419 659 435 688 q 389 600 404 631 q 379 586 385 594 q 365 568 374 578 q 310 490 325 514 q 299 460 294 465 q 315 456 303 458 q 335 451 326 453 q 369 461 347 458 q 401 467 392 464 q 651 528 622 524 q 675 536 664 536 q 719 503 700 536 q 724 488 724 494 q 704 464 724 475 q 631 437 685 453 q 500 400 576 421 l 456 388 q 315 361 365 361 q 274 385 272 361 q 242 354 260 392 q 213 262 225 317 q 200 169 200 207 q 204 139 200 150 q 235 86 217 104 q 299 56 254 68 q 323 53 308 54 q 357 51 338 51 q 413 63 385 51 q 534 90 483 75 q 596 113 585 106 q 610 118 604 117 q 621 119 615 119 l 619 117 q 619 116 619 117 q 621 115 619 115 q 646 139 625 115 q 710 176 669 158 q 753 185 751 194 q 756 171 756 176 q 723 108 756 144 q 635 39 690 71 q 483 -15 567 3 q 321 -33 399 -32 m 511 -226 q 458 -190 479 -217 q 436 -129 436 -162 q 495 -24 436 -83 q 624 82 554 36 l 665 40 q 592 -15 633 21 q 525 -79 550 -50 q 494 -140 494 -117 q 500 -160 494 -153 q 509 -167 503 -165 q 525 -168 515 -168 q 570 -153 549 -165 q 599 -139 592 -142 l 636 -118 q 657 -112 647 -112 q 671 -119 665 -112 q 676 -133 676 -125 q 669 -156 676 -144 q 649 -172 663 -167 l 621 -185 q 511 -226 543 -222 z "},"Ẽ":{"ha":761,"x_min":114,"x_max":964,"o":"m 321 -33 q 264 -18 290 -32 q 204 22 238 -4 l 176 42 q 138 94 151 67 q 117 164 125 121 q 114 193 114 181 q 128 288 114 233 q 158 378 142 343 q 293 614 189 451 q 301 622 299 619 q 302 624 303 624 q 301 625 301 625 q 342 711 301 635 q 365 754 365 736 q 361 769 365 764 q 387 803 356 776 q 465 857 418 831 q 539 886 503 886 q 558 883 550 886 q 567 872 565 879 q 622 878 567 864 q 658 885 647 883 q 687 897 664 892 q 751 907 710 901 q 797 907 774 906 q 828 910 821 908 q 852 906 839 914 q 875 876 865 899 q 879 858 879 867 q 860 834 879 843 q 796 819 842 825 q 739 813 750 814 q 578 786 663 804 q 499 758 524 775 q 444 694 475 742 q 419 659 435 688 q 389 600 404 631 q 379 586 385 594 q 365 568 374 578 q 310 490 325 514 q 299 460 294 465 q 315 456 303 458 q 335 451 326 453 q 369 461 347 458 q 401 467 392 464 q 651 528 622 524 q 675 536 664 536 q 719 503 700 536 q 724 488 724 494 q 704 464 724 475 q 631 437 685 453 q 500 400 576 421 l 456 388 q 315 361 365 361 q 274 385 272 361 q 242 354 260 392 q 213 262 225 317 q 200 169 200 207 q 204 139 200 150 q 235 86 217 104 q 299 56 254 68 q 323 53 308 54 q 357 51 338 51 q 413 63 385 51 q 534 90 483 75 q 596 113 585 106 q 610 118 604 117 q 621 119 615 119 l 619 117 q 619 116 619 117 q 621 115 619 115 q 646 139 625 115 q 710 176 669 158 q 753 185 751 194 q 756 171 756 176 q 723 108 756 144 q 635 39 690 71 q 483 -15 567 3 q 321 -33 399 -32 m 824 1013 q 786 1019 801 1013 q 756 1037 771 1026 q 735 1051 742 1047 q 715 1067 729 1054 q 688 1090 701 1081 q 664 1100 674 1100 q 647 1094 654 1100 q 631 1076 640 1089 q 617 1060 625 1068 q 600 1051 610 1053 q 592 1033 599 1043 q 582 1031 585 1024 q 561 1044 569 1035 q 554 1061 553 1053 q 578 1110 556 1079 q 642 1161 600 1140 q 661 1164 653 1164 q 702 1156 681 1164 q 740 1133 724 1149 q 765 1110 749 1125 q 791 1090 781 1096 q 811 1083 801 1083 q 832 1089 815 1083 q 881 1111 847 1093 q 931 1138 908 1129 q 956 1131 944 1143 q 964 1104 967 1118 q 954 1083 964 1097 q 933 1064 944 1069 q 854 1022 875 1031 q 824 1013 833 1013 z "},"F":{"ha":631,"x_min":114,"x_max":906,"o":"m 179 -26 q 169 -31 179 -31 q 151 -26 161 -31 q 133 -14 140 -22 q 119 0 124 -6 q 114 14 114 6 q 122 50 114 25 q 163 193 133 100 q 217 333 193 286 q 232 368 226 350 q 239 392 238 386 q 247 421 246 417 l 246 435 q 249 446 246 440 q 258 458 251 451 q 300 524 278 475 l 353 675 l 369 722 q 375 742 371 728 q 379 761 379 756 q 376 767 379 767 q 332 763 365 764 q 307 759 315 760 q 294 757 299 758 l 285 757 q 258 776 258 757 q 274 813 261 799 q 308 829 288 828 l 363 842 q 397 849 375 844 q 426 851 418 854 q 444 871 444 864 q 451 882 444 878 q 468 886 458 886 q 496 874 488 886 q 519 865 501 865 q 617 881 547 865 q 655 884 628 882 q 700 886 682 886 q 740 882 725 886 q 763 885 753 885 q 779 886 772 885 q 808 890 803 886 q 837 885 821 888 q 860 881 853 883 q 872 874 867 878 q 876 864 876 868 q 875 858 876 860 l 872 860 q 877 858 874 860 q 885 851 881 856 q 899 819 906 840 q 892 808 897 811 q 869 803 888 804 q 822 804 851 803 q 731 811 769 811 q 571 797 672 811 q 524 790 546 796 q 497 783 503 785 q 476 763 490 783 q 451 710 463 742 q 422 644 443 697 q 394 574 401 590 q 360 486 364 493 q 426 481 376 481 q 618 492 499 481 q 692 500 682 504 q 706 479 700 494 q 713 451 713 464 q 710 439 713 444 q 680 424 706 429 q 589 411 654 418 q 411 406 528 406 q 339 408 350 406 q 331 400 336 407 q 326 383 326 393 q 253 211 301 339 q 204 58 204 83 q 189 1 194 33 q 185 -14 188 -4 q 179 -26 182 -24 z "},"G":{"ha":676,"x_min":157,"x_max":807,"o":"m 238 -43 q 178 24 200 -19 q 160 113 157 67 q 217 458 158 276 q 278 613 242 532 q 339 738 314 694 q 425 850 378 801 q 501 915 472 899 q 551 933 519 925 q 617 942 582 942 q 668 936 644 942 q 733 913 701 928 q 776 889 765 899 q 790 869 782 881 q 801 850 797 858 q 806 832 806 842 q 794 799 807 818 q 767 779 781 779 q 750 789 758 779 q 722 820 736 810 q 693 838 708 831 q 671 849 678 844 q 621 860 653 860 q 570 852 596 860 q 526 829 544 844 q 465 763 501 807 q 410 682 429 719 q 292 407 326 536 q 267 306 281 367 q 249 214 253 244 q 240 121 240 163 q 258 42 240 69 q 315 15 275 15 q 383 29 343 15 q 488 83 429 35 q 585 192 546 131 q 647 349 647 308 q 621 376 647 376 q 551 379 593 379 q 508 381 524 379 q 481 389 493 382 q 471 415 471 404 q 489 450 471 432 q 565 458 508 458 q 692 436 646 458 q 735 351 735 415 q 729 297 735 321 q 644 135 717 243 q 549 38 613 90 q 447 -29 486 -14 q 310 -64 371 -64 q 238 -43 267 -64 z "},"Ǵ":{"ha":692,"x_min":160,"x_max":842,"o":"m 238 -43 q 178 24 200 -19 q 160 113 157 67 q 217 458 158 276 q 278 613 242 532 q 339 738 314 694 q 425 850 378 801 q 501 915 472 899 q 551 933 519 925 q 617 942 582 942 q 668 936 644 942 q 733 913 701 928 q 776 889 765 899 q 790 869 782 881 q 801 850 797 858 q 806 832 806 842 q 794 799 807 818 q 767 779 781 779 q 750 789 758 779 q 722 820 736 810 q 693 838 708 831 q 671 849 678 844 q 621 860 653 860 q 570 852 596 860 q 526 829 544 844 q 465 763 501 807 q 410 682 429 719 q 292 407 326 536 q 267 306 281 367 q 249 214 253 244 q 240 121 240 163 q 258 42 240 69 q 315 15 275 15 q 383 29 343 15 q 488 83 429 35 q 585 192 546 131 q 647 349 647 308 q 621 376 647 376 q 551 379 593 379 q 508 381 524 379 q 481 389 493 382 q 471 415 471 404 q 489 450 471 432 q 565 458 508 458 q 692 436 646 458 q 735 351 735 415 q 729 297 735 321 q 644 135 717 243 q 549 38 613 90 q 447 -29 486 -14 q 310 -64 371 -64 q 238 -43 267 -64 m 665 992 q 651 1019 656 1000 q 647 1046 646 1038 q 707 1119 650 1058 q 783 1188 764 1181 q 796 1192 790 1192 q 840 1149 815 1192 q 827 1116 846 1136 q 769 1064 808 1096 q 711 1010 722 1025 q 697 990 704 997 q 685 982 690 982 q 665 992 681 982 z "},"Ğ":{"ha":692,"x_min":160,"x_max":896,"o":"m 238 -43 q 178 24 200 -19 q 160 113 157 67 q 217 458 158 276 q 278 613 242 532 q 339 738 314 694 q 425 850 378 801 q 501 915 472 899 q 551 933 519 925 q 617 942 582 942 q 668 936 644 942 q 733 913 701 928 q 776 889 765 899 q 790 869 782 881 q 801 850 797 858 q 806 832 806 842 q 794 799 807 818 q 767 779 781 779 q 750 789 758 779 q 722 820 736 810 q 693 838 708 831 q 671 849 678 844 q 621 860 653 860 q 570 852 596 860 q 526 829 544 844 q 465 763 501 807 q 410 682 429 719 q 292 407 326 536 q 267 306 281 367 q 249 214 253 244 q 240 121 240 163 q 258 42 240 69 q 315 15 275 15 q 383 29 343 15 q 488 83 429 35 q 585 192 546 131 q 647 349 647 308 q 621 376 647 376 q 551 379 593 379 q 508 381 524 379 q 481 389 493 382 q 471 415 471 404 q 489 450 471 432 q 565 458 508 458 q 692 436 646 458 q 735 351 735 415 q 729 297 735 321 q 644 135 717 243 q 549 38 613 90 q 447 -29 486 -14 q 310 -64 371 -64 q 238 -43 267 -64 m 721 974 q 621 1006 657 974 q 585 1092 585 1039 q 588 1122 585 1103 q 606 1161 593 1147 q 632 1175 618 1175 q 648 1168 642 1175 q 654 1149 654 1161 l 651 1131 q 649 1107 649 1117 q 667 1055 649 1076 q 731 1035 686 1033 q 785 1067 754 1036 q 832 1128 815 1099 q 869 1161 850 1161 q 891 1144 883 1161 q 894 1114 899 1128 q 864 1059 889 1093 q 801 999 839 1025 q 721 974 764 974 z "},"Ĝ":{"ha":692,"x_min":160,"x_max":890,"o":"m 238 -43 q 178 24 200 -19 q 160 113 157 67 q 217 458 158 276 q 278 613 242 532 q 339 738 314 694 q 425 850 378 801 q 501 915 472 899 q 551 933 519 925 q 617 942 582 942 q 668 936 644 942 q 733 913 701 928 q 776 889 765 899 q 790 869 782 881 q 801 850 797 858 q 806 832 806 842 q 794 799 807 818 q 767 779 781 779 q 750 789 758 779 q 722 820 736 810 q 693 838 708 831 q 671 849 678 844 q 621 860 653 860 q 570 852 596 860 q 526 829 544 844 q 465 763 501 807 q 410 682 429 719 q 292 407 326 536 q 267 306 281 367 q 249 214 253 244 q 240 121 240 163 q 258 42 240 69 q 315 15 275 15 q 383 29 343 15 q 488 83 429 35 q 585 192 546 131 q 647 349 647 308 q 621 376 647 376 q 551 379 593 379 q 508 381 524 379 q 481 389 493 382 q 471 415 471 404 q 489 450 471 432 q 565 458 508 458 q 692 436 646 458 q 735 351 735 415 q 729 297 735 321 q 644 135 717 243 q 549 38 613 90 q 447 -29 486 -14 q 310 -64 371 -64 q 238 -43 267 -64 m 650 1014 q 613 994 631 994 q 595 1002 601 994 q 589 1021 589 1010 q 600 1051 589 1036 q 658 1106 611 1065 q 731 1160 704 1146 q 753 1169 742 1169 q 774 1157 765 1169 q 832 1102 796 1139 q 883 1049 868 1065 q 890 1025 890 1040 q 883 1002 890 1013 q 865 992 876 992 q 825 1018 846 992 q 750 1092 797 1051 q 688 1047 721 1075 q 650 1014 656 1018 z "},"Ģ":{"ha":692,"x_min":160,"x_max":806,"o":"m 238 -43 q 178 24 200 -19 q 160 113 157 67 q 217 458 158 276 q 278 613 242 532 q 339 738 314 694 q 425 850 378 801 q 501 915 472 899 q 551 933 519 925 q 617 942 582 942 q 668 936 644 942 q 733 913 701 928 q 776 889 765 899 q 790 869 782 881 q 801 850 797 858 q 806 832 806 842 q 794 799 807 818 q 767 779 781 779 q 750 789 758 779 q 722 820 736 810 q 693 838 708 831 q 671 849 678 844 q 621 860 653 860 q 570 852 596 860 q 526 829 544 844 q 465 763 501 807 q 410 682 429 719 q 292 407 326 536 q 267 306 281 367 q 249 214 253 244 q 240 121 240 163 q 258 42 240 69 q 315 15 275 15 q 383 29 343 15 q 488 83 429 35 q 585 192 546 131 q 647 349 647 308 q 621 376 647 376 q 551 379 593 379 q 508 381 524 379 q 481 389 493 382 q 471 415 471 404 q 489 450 471 432 q 565 458 508 458 q 692 436 646 458 q 735 351 735 415 q 729 297 735 321 q 644 135 717 243 q 549 38 613 90 q 447 -29 486 -14 q 310 -64 371 -64 q 238 -43 267 -64 m 217 -325 q 199 -324 203 -325 q 190 -315 196 -322 q 210 -289 190 -306 q 275 -187 276 -218 q 284 -144 274 -161 q 311 -126 294 -126 q 344 -140 326 -126 q 347 -167 347 -160 q 341 -201 347 -183 q 324 -243 335 -219 q 292 -285 313 -258 q 267 -312 271 -312 q 247 -319 258 -312 q 235 -324 242 -324 q 217 -325 229 -325 z "},"Ġ":{"ha":692,"x_min":160,"x_max":806,"o":"m 238 -43 q 178 24 200 -19 q 160 113 157 67 q 217 458 158 276 q 278 613 242 532 q 339 738 314 694 q 425 850 378 801 q 501 915 472 899 q 551 933 519 925 q 617 942 582 942 q 668 936 644 942 q 733 913 701 928 q 776 889 765 899 q 790 869 782 881 q 801 850 797 858 q 806 832 806 842 q 794 799 807 818 q 767 779 781 779 q 750 789 758 779 q 722 820 736 810 q 693 838 708 831 q 671 849 678 844 q 621 860 653 860 q 570 852 596 860 q 526 829 544 844 q 465 763 501 807 q 410 682 429 719 q 292 407 326 536 q 267 306 281 367 q 249 214 253 244 q 240 121 240 163 q 258 42 240 69 q 315 15 275 15 q 383 29 343 15 q 488 83 429 35 q 585 192 546 131 q 647 349 647 308 q 621 376 647 376 q 551 379 593 379 q 508 381 524 379 q 481 389 493 382 q 471 415 471 404 q 489 450 471 432 q 565 458 508 458 q 692 436 646 458 q 735 351 735 415 q 729 297 735 321 q 644 135 717 243 q 549 38 613 90 q 447 -29 486 -14 q 310 -64 371 -64 q 238 -43 267 -64 m 690 1025 q 674 1053 681 1033 q 669 1079 667 1072 q 707 1144 682 1122 q 716 1153 710 1147 q 726 1161 722 1160 q 746 1168 738 1168 q 789 1135 769 1168 q 797 1103 797 1117 q 790 1077 797 1090 q 765 1043 783 1064 q 721 1011 742 1011 q 690 1025 707 1011 z "},"H":{"ha":782,"x_min":114,"x_max":990,"o":"m 181 -115 q 169 -111 178 -114 q 151 -108 161 -108 q 124 -90 135 -104 q 114 -58 114 -76 q 115 -43 114 -49 q 123 -22 119 -39 q 126 10 126 -4 q 133 27 131 18 q 140 53 136 36 q 192 258 151 114 q 242 413 232 403 l 242 428 q 244 444 242 432 q 257 471 247 457 q 266 503 263 488 q 271 528 269 519 q 290 569 276 535 q 307 615 303 604 q 331 677 317 642 q 351 724 346 713 l 351 731 q 366 759 354 733 q 386 803 378 785 q 438 918 396 825 q 451 942 442 928 q 460 963 460 957 q 479 972 465 972 q 505 963 492 972 q 525 940 518 954 l 539 918 l 489 818 q 453 749 468 782 q 438 710 438 715 q 416 653 432 696 q 390 579 400 610 q 374 535 383 558 q 360 503 364 513 q 349 475 349 478 q 515 481 349 481 q 609 482 542 481 q 693 486 676 483 l 765 493 l 813 636 q 874 825 826 685 q 907 902 894 885 q 938 919 919 919 q 958 913 944 919 q 975 897 971 907 q 990 865 990 882 q 968 811 990 846 q 921 701 951 782 q 906 658 908 664 q 892 615 906 629 q 872 576 886 610 q 858 536 858 542 q 854 512 858 525 q 844 493 850 499 l 835 460 q 758 215 786 283 q 751 190 758 208 q 744 165 744 172 q 732 126 742 156 q 722 92 722 97 q 711 43 719 76 q 690 -60 690 -51 q 682 -62 688 -62 q 665 -58 676 -62 q 647 -51 653 -54 q 614 -10 614 -33 q 626 31 614 6 q 653 121 631 38 l 665 172 q 703 304 674 194 q 729 392 726 389 l 729 406 q 628 413 725 413 q 426 401 518 413 l 361 401 l 325 401 q 283 273 318 386 q 243 131 247 160 q 213 3 233 85 q 181 -115 192 -78 z "},"Ħ":{"ha":783,"x_min":114,"x_max":1032,"o":"m 1018 721 q 1032 690 1032 706 q 996 668 1032 664 q 913 664 954 664 l 908 664 l 906 658 q 892 615 906 629 q 872 576 886 610 q 858 536 858 542 q 854 512 858 525 q 844 493 850 499 l 835 460 q 758 215 786 283 q 751 190 758 208 q 744 165 744 172 q 732 126 742 156 q 722 92 722 97 q 711 43 719 76 q 690 -60 690 -51 q 682 -62 688 -62 q 665 -58 676 -62 q 647 -51 653 -54 q 614 -10 614 -33 q 626 31 614 6 q 653 121 631 38 l 665 172 q 703 304 674 194 q 729 392 726 389 l 729 406 q 628 413 725 413 q 426 401 518 413 l 361 401 l 325 401 q 283 273 318 386 q 243 131 247 160 q 213 3 233 85 q 181 -115 192 -78 q 169 -111 178 -114 q 151 -108 161 -108 q 124 -90 135 -104 q 114 -58 114 -76 q 115 -43 114 -49 q 123 -22 119 -39 q 126 10 126 -4 q 133 27 131 18 q 140 53 136 36 q 192 258 151 114 q 242 413 232 403 l 242 428 q 244 444 242 432 q 257 471 247 457 q 266 503 263 488 q 271 528 269 519 q 290 569 276 535 q 307 615 303 604 l 331 676 l 290 676 q 246 682 263 676 q 219 685 226 682 q 206 699 211 689 q 199 717 199 713 q 213 731 199 726 q 263 740 226 736 q 358 744 282 742 q 396 825 368 761 q 438 918 417 876 q 451 942 442 928 q 460 963 460 957 q 479 972 465 972 q 505 963 492 972 q 525 940 518 954 l 539 918 l 489 818 q 451 744 463 769 l 844 739 l 874 825 q 907 902 894 885 q 938 919 919 919 q 958 913 944 919 q 975 897 971 907 q 990 865 990 882 q 968 811 990 846 q 935 738 953 783 l 946 738 q 991 735 979 738 q 1018 721 1003 732 m 821 665 q 424 674 572 672 q 390 579 401 618 q 374 535 383 558 q 360 503 364 513 q 349 475 349 478 q 515 481 349 481 q 609 482 542 481 q 693 486 676 483 l 765 493 l 813 636 l 821 665 z "},"Ĥ":{"ha":783,"x_min":114,"x_max":990,"o":"m 181 -115 q 169 -111 178 -114 q 151 -108 161 -108 q 124 -90 135 -104 q 114 -58 114 -76 q 115 -43 114 -49 q 123 -22 119 -39 q 126 10 126 -4 q 133 27 131 18 q 140 53 136 36 q 192 258 151 114 q 242 413 232 403 l 242 428 q 244 444 242 432 q 257 471 247 457 q 266 503 263 488 q 271 528 269 519 q 290 569 276 535 q 307 615 303 604 q 331 677 317 642 q 351 724 346 713 l 351 731 q 366 759 354 733 q 386 803 378 785 q 438 918 396 825 q 451 942 442 928 q 460 963 460 957 q 479 972 465 972 q 505 963 492 972 q 525 940 518 954 l 539 918 l 489 818 q 453 749 468 782 q 438 710 438 715 q 416 653 432 696 q 390 579 400 610 q 374 535 383 558 q 360 503 364 513 q 349 475 349 478 q 515 481 349 481 q 609 482 542 481 q 693 486 676 483 l 765 493 l 813 636 q 874 825 826 685 q 907 902 894 885 q 938 919 919 919 q 958 913 944 919 q 975 897 971 907 q 990 865 990 882 q 968 811 990 846 q 921 701 951 782 q 906 658 908 664 q 892 615 906 629 q 872 576 886 610 q 858 536 858 542 q 854 512 858 525 q 844 493 850 499 l 835 460 q 758 215 786 283 q 751 190 758 208 q 744 165 744 172 q 732 126 742 156 q 722 92 722 97 q 711 43 719 76 q 690 -60 690 -51 q 682 -62 688 -62 q 665 -58 676 -62 q 647 -51 653 -54 q 614 -10 614 -33 q 626 31 614 6 q 653 121 631 38 l 665 172 q 703 304 674 194 q 729 392 726 389 l 729 406 q 628 413 725 413 q 426 401 518 413 l 361 401 l 325 401 q 283 273 318 386 q 243 131 247 160 q 213 3 233 85 q 181 -115 192 -78 m 697 1014 q 660 994 678 994 q 642 1002 649 994 q 636 1021 636 1010 q 647 1051 636 1036 q 705 1106 658 1065 q 778 1160 751 1146 q 800 1169 789 1169 q 821 1157 813 1169 q 879 1102 843 1139 q 931 1049 915 1065 q 938 1025 938 1040 q 931 1002 938 1013 q 913 992 924 992 q 872 1018 893 992 q 797 1092 844 1051 q 735 1047 768 1075 q 697 1014 703 1018 z "},"Ḥ":{"ha":783,"x_min":114,"x_max":990,"o":"m 181 -115 q 169 -111 178 -114 q 151 -108 161 -108 q 124 -90 135 -104 q 114 -58 114 -76 q 115 -43 114 -49 q 123 -22 119 -39 q 126 10 126 -4 q 133 27 131 18 q 140 53 136 36 q 192 258 151 114 q 242 413 232 403 l 242 428 q 244 444 242 432 q 257 471 247 457 q 266 503 263 488 q 271 528 269 519 q 290 569 276 535 q 307 615 303 604 q 331 677 317 642 q 351 724 346 713 l 351 731 q 366 759 354 733 q 386 803 378 785 q 438 918 396 825 q 451 942 442 928 q 460 963 460 957 q 479 972 465 972 q 505 963 492 972 q 525 940 518 954 l 539 918 l 489 818 q 453 749 468 782 q 438 710 438 715 q 416 653 432 696 q 390 579 400 610 q 374 535 383 558 q 360 503 364 513 q 349 475 349 478 q 515 481 349 481 q 609 482 542 481 q 693 486 676 483 l 765 493 l 813 636 q 874 825 826 685 q 907 902 894 885 q 938 919 919 919 q 958 913 944 919 q 975 897 971 907 q 990 865 990 882 q 968 811 990 846 q 921 701 951 782 q 906 658 908 664 q 892 615 906 629 q 872 576 886 610 q 858 536 858 542 q 854 512 858 525 q 844 493 850 499 l 835 460 q 758 215 786 283 q 751 190 758 208 q 744 165 744 172 q 732 126 742 156 q 722 92 722 97 q 711 43 719 76 q 690 -60 690 -51 q 682 -62 688 -62 q 665 -58 676 -62 q 647 -51 653 -54 q 614 -10 614 -33 q 626 31 614 6 q 653 121 631 38 l 665 172 q 703 304 674 194 q 729 392 726 389 l 729 406 q 628 413 725 413 q 426 401 518 413 l 361 401 l 325 401 q 283 273 318 386 q 243 131 247 160 q 213 3 233 85 q 181 -115 192 -78 m 336 -226 q 321 -204 326 -217 q 317 -185 315 -192 q 342 -132 329 -142 q 351 -123 344 -129 q 361 -115 357 -117 q 381 -108 372 -108 q 411 -140 401 -108 q 421 -167 421 -154 q 400 -208 421 -181 q 357 -240 376 -240 q 336 -226 346 -240 z "},"I":{"ha":556,"x_min":63,"x_max":838,"o":"m 267 -43 q 140 -22 249 -18 l 128 -24 q 82 -11 101 -24 q 67 17 63 1 q 182 54 69 53 l 256 56 l 269 83 q 301 186 281 115 q 331 275 308 213 q 376 419 374 408 q 399 486 383 436 q 422 568 414 536 q 475 772 488 769 q 399 767 461 774 q 331 757 338 761 q 317 751 326 751 q 299 758 308 751 q 286 772 289 764 q 285 788 285 778 q 293 803 285 797 q 360 831 308 815 q 461 853 413 847 q 509 863 485 856 q 546 882 533 871 q 594 890 575 892 q 642 883 604 883 q 690 885 674 883 q 775 890 740 890 q 813 885 801 890 q 832 867 825 879 q 838 838 838 844 q 807 813 838 811 q 693 804 783 807 q 588 785 594 796 q 577 772 581 778 q 569 761 574 767 q 563 726 571 756 q 544 665 556 696 l 519 592 q 469 443 481 471 q 456 394 460 419 q 417 265 432 313 q 393 188 401 217 q 353 57 367 110 l 432 64 q 539 72 514 72 q 566 68 558 72 q 578 51 574 64 q 594 17 594 31 q 568 -7 594 0 q 486 -12 542 -14 q 380 -17 422 -15 q 323 -24 338 -19 q 306 -37 308 -28 q 293 -49 306 -49 q 267 -43 279 -49 z "},"Ĳ":{"ha":1036,"x_min":67,"x_max":1226,"o":"m 267 -43 q 140 -22 249 -18 l 128 -24 q 82 -11 101 -24 q 67 17 63 1 q 182 54 69 53 l 256 56 l 269 83 q 301 186 281 115 q 331 275 308 213 q 376 419 374 408 q 399 486 383 436 q 422 568 414 536 q 475 772 488 769 q 399 767 461 774 q 331 757 338 761 q 317 751 326 751 q 299 758 308 751 q 286 772 289 764 q 285 788 285 778 q 293 803 285 797 q 360 831 308 815 q 461 853 413 847 q 509 863 485 856 q 546 882 533 871 q 594 890 575 892 q 642 883 604 883 q 690 885 674 883 q 775 890 740 890 q 813 885 801 890 q 832 867 825 879 q 838 838 838 844 q 807 813 838 811 q 693 804 783 807 q 588 785 594 796 q 577 772 581 778 q 569 761 574 767 q 563 726 571 756 q 544 665 556 696 l 519 592 q 469 443 481 471 q 456 394 460 419 q 417 265 432 313 q 393 188 401 217 q 353 57 367 110 l 432 64 q 539 72 514 72 q 566 68 558 72 q 578 51 574 64 q 594 17 594 31 q 568 -7 594 0 q 486 -12 542 -14 q 380 -17 422 -15 q 323 -24 338 -19 q 306 -37 308 -28 q 293 -49 306 -49 q 267 -43 279 -49 m 735 -251 q 690 -261 710 -261 q 626 -247 658 -261 q 571 -206 594 -232 q 557 -176 557 -192 q 561 -156 557 -168 q 579 -131 568 -131 q 595 -138 585 -131 q 614 -157 606 -146 q 667 -181 642 -181 q 772 -94 717 -181 l 808 -14 q 896 186 886 157 q 897 192 896 188 q 903 201 899 196 q 910 225 904 207 q 921 263 917 243 l 979 428 q 995 488 985 456 q 1014 543 1006 521 q 1056 663 1019 554 q 1085 753 1072 715 q 1106 819 1090 769 q 1118 874 1121 869 l 1040 860 q 1003 853 1025 853 q 980 856 989 853 q 972 863 971 858 l 972 869 q 953 877 965 864 q 943 901 942 890 q 970 922 943 913 q 1042 936 997 931 l 1142 950 q 1176 945 1149 956 q 1215 924 1204 935 q 1226 893 1226 908 q 1215 838 1226 874 q 1161 690 1203 803 l 1115 561 q 1064 418 1082 460 q 1049 374 1058 400 q 1014 265 1025 306 q 978 160 997 226 q 972 135 978 149 q 960 114 967 121 l 926 32 l 914 -1 q 899 -39 911 -10 q 878 -82 888 -68 q 863 -111 874 -93 q 851 -133 851 -129 q 850 -138 851 -135 q 844 -142 849 -142 q 840 -147 843 -143 q 836 -156 836 -150 q 793 -207 829 -172 q 735 -251 757 -242 z "},"Í":{"ha":556,"x_min":67,"x_max":838,"o":"m 267 -43 q 140 -22 249 -18 l 128 -24 q 82 -11 101 -24 q 67 17 63 1 q 182 54 69 53 l 256 56 l 269 83 q 301 186 281 115 q 331 275 308 213 q 376 419 374 408 q 399 486 383 436 q 422 568 414 536 q 475 772 488 769 q 399 767 461 774 q 331 757 338 761 q 317 751 326 751 q 299 758 308 751 q 286 772 289 764 q 285 788 285 778 q 293 803 285 797 q 360 831 308 815 q 461 853 413 847 q 509 863 485 856 q 546 882 533 871 q 594 890 575 892 q 642 883 604 883 q 690 885 674 883 q 775 890 740 890 q 813 885 801 890 q 832 867 825 879 q 838 838 838 844 q 807 813 838 811 q 693 804 783 807 q 588 785 594 796 q 577 772 581 778 q 569 761 574 767 q 563 726 571 756 q 544 665 556 696 l 519 592 q 469 443 481 471 q 456 394 460 419 q 417 265 432 313 q 393 188 401 217 q 353 57 367 110 l 432 64 q 539 72 514 72 q 566 68 558 72 q 578 51 574 64 q 594 17 594 31 q 568 -7 594 0 q 486 -12 542 -14 q 380 -17 422 -15 q 323 -24 338 -19 q 306 -37 308 -28 q 293 -49 306 -49 q 267 -43 279 -49 m 561 992 q 547 1019 551 1000 q 543 1046 542 1038 q 603 1119 546 1058 q 679 1188 660 1181 q 692 1192 686 1192 q 736 1149 711 1192 q 723 1116 742 1136 q 665 1064 704 1096 q 607 1010 618 1025 q 593 990 600 997 q 581 982 586 982 q 561 992 576 982 z "},"Ĭ":{"ha":556,"x_min":67,"x_max":838,"o":"m 267 -43 q 140 -22 249 -18 l 128 -24 q 82 -11 101 -24 q 67 17 63 1 q 182 54 69 53 l 256 56 l 269 83 q 301 186 281 115 q 331 275 308 213 q 376 419 374 408 q 399 486 383 436 q 422 568 414 536 q 475 772 488 769 q 399 767 461 774 q 331 757 338 761 q 317 751 326 751 q 299 758 308 751 q 286 772 289 764 q 285 788 285 778 q 293 803 285 797 q 360 831 308 815 q 461 853 413 847 q 509 863 485 856 q 546 882 533 871 q 594 890 575 892 q 642 883 604 883 q 690 885 674 883 q 775 890 740 890 q 813 885 801 890 q 832 867 825 879 q 838 838 838 844 q 807 813 838 811 q 693 804 783 807 q 588 785 594 796 q 577 772 581 778 q 569 761 574 767 q 563 726 571 756 q 544 665 556 696 l 519 592 q 469 443 481 471 q 456 394 460 419 q 417 265 432 313 q 393 188 401 217 q 353 57 367 110 l 432 64 q 539 72 514 72 q 566 68 558 72 q 578 51 574 64 q 594 17 594 31 q 568 -7 594 0 q 486 -12 542 -14 q 380 -17 422 -15 q 323 -24 338 -19 q 306 -37 308 -28 q 293 -49 306 -49 q 267 -43 279 -49 m 617 974 q 517 1006 553 974 q 481 1092 481 1039 q 483 1122 481 1103 q 501 1161 489 1147 q 528 1175 514 1175 q 544 1168 538 1175 q 550 1149 550 1161 l 547 1131 q 544 1107 544 1117 q 563 1055 544 1076 q 626 1035 582 1033 q 681 1067 650 1036 q 728 1128 711 1099 q 765 1161 746 1161 q 787 1144 779 1161 q 790 1114 794 1128 q 760 1059 785 1093 q 697 999 735 1025 q 617 974 660 974 z "},"Î":{"ha":556,"x_min":67,"x_max":838,"o":"m 267 -43 q 140 -22 249 -18 l 128 -24 q 82 -11 101 -24 q 67 17 63 1 q 182 54 69 53 l 256 56 l 269 83 q 301 186 281 115 q 331 275 308 213 q 376 419 374 408 q 399 486 383 436 q 422 568 414 536 q 475 772 488 769 q 399 767 461 774 q 331 757 338 761 q 317 751 326 751 q 299 758 308 751 q 286 772 289 764 q 285 788 285 778 q 293 803 285 797 q 360 831 308 815 q 461 853 413 847 q 509 863 485 856 q 546 882 533 871 q 594 890 575 892 q 642 883 604 883 q 690 885 674 883 q 775 890 740 890 q 813 885 801 890 q 832 867 825 879 q 838 838 838 844 q 807 813 838 811 q 693 804 783 807 q 588 785 594 796 q 577 772 581 778 q 569 761 574 767 q 563 726 571 756 q 544 665 556 696 l 519 592 q 469 443 481 471 q 456 394 460 419 q 417 265 432 313 q 393 188 401 217 q 353 57 367 110 l 432 64 q 539 72 514 72 q 566 68 558 72 q 578 51 574 64 q 594 17 594 31 q 568 -7 594 0 q 486 -12 542 -14 q 380 -17 422 -15 q 323 -24 338 -19 q 306 -37 308 -28 q 293 -49 306 -49 q 267 -43 279 -49 m 546 1014 q 508 994 526 994 q 491 1002 497 994 q 485 1021 485 1010 q 496 1051 485 1036 q 553 1106 507 1065 q 626 1160 600 1146 q 649 1169 638 1169 q 669 1157 661 1169 q 728 1102 692 1139 q 779 1049 764 1065 q 786 1025 786 1040 q 779 1002 786 1013 q 761 992 772 992 q 721 1018 742 992 q 646 1092 693 1051 q 584 1047 617 1075 q 546 1014 551 1018 z "},"Ȉ":{"ha":556,"x_min":67,"x_max":838,"o":"m 267 -43 q 140 -22 249 -18 l 128 -24 q 82 -11 101 -24 q 67 17 63 1 q 182 54 69 53 l 256 56 l 269 83 q 301 186 281 115 q 331 275 308 213 q 376 419 374 408 q 399 486 383 436 q 422 568 414 536 q 475 772 488 769 q 399 767 461 774 q 331 757 338 761 q 317 751 326 751 q 299 758 308 751 q 286 772 289 764 q 285 788 285 778 q 293 803 285 797 q 360 831 308 815 q 461 853 413 847 q 509 863 485 856 q 546 882 533 871 q 594 890 575 892 q 642 883 604 883 q 690 885 674 883 q 775 890 740 890 q 813 885 801 890 q 832 867 825 879 q 838 838 838 844 q 807 813 838 811 q 693 804 783 807 q 588 785 594 796 q 577 772 581 778 q 569 761 574 767 q 563 726 571 756 q 544 665 556 696 l 519 592 q 469 443 481 471 q 456 394 460 419 q 417 265 432 313 q 393 188 401 217 q 353 57 367 110 l 432 64 q 539 72 514 72 q 566 68 558 72 q 578 51 574 64 q 594 17 594 31 q 568 -7 594 0 q 486 -12 542 -14 q 380 -17 422 -15 q 323 -24 338 -19 q 306 -37 308 -28 q 293 -49 306 -49 q 267 -43 279 -49 m 494 999 q 481 994 486 994 q 471 1001 475 994 q 460 1024 467 1007 q 422 1078 456 1033 q 382 1135 394 1115 q 376 1164 369 1156 q 419 1196 399 1196 q 431 1192 426 1196 q 484 1118 446 1182 q 522 1044 522 1054 q 515 1022 524 1039 q 494 999 506 1006 m 660 999 q 644 994 650 994 q 635 1001 639 994 q 624 1024 631 1007 q 586 1078 619 1033 q 546 1135 558 1115 q 540 1164 533 1156 q 594 1192 576 1204 q 649 1117 611 1181 q 686 1044 686 1054 q 678 1022 688 1039 q 660 999 669 1006 z "},"Ï":{"ha":556,"x_min":67,"x_max":838,"o":"m 267 -43 q 140 -22 249 -18 l 128 -24 q 82 -11 101 -24 q 67 17 63 1 q 182 54 69 53 l 256 56 l 269 83 q 301 186 281 115 q 331 275 308 213 q 376 419 374 408 q 399 486 383 436 q 422 568 414 536 q 475 772 488 769 q 399 767 461 774 q 331 757 338 761 q 317 751 326 751 q 299 758 308 751 q 286 772 289 764 q 285 788 285 778 q 293 803 285 797 q 360 831 308 815 q 461 853 413 847 q 509 863 485 856 q 546 882 533 871 q 594 890 575 892 q 642 883 604 883 q 690 885 674 883 q 775 890 740 890 q 813 885 801 890 q 832 867 825 879 q 838 838 838 844 q 807 813 838 811 q 693 804 783 807 q 588 785 594 796 q 577 772 581 778 q 569 761 574 767 q 563 726 571 756 q 544 665 556 696 l 519 592 q 469 443 481 471 q 456 394 460 419 q 417 265 432 313 q 393 188 401 217 q 353 57 367 110 l 432 64 q 539 72 514 72 q 566 68 558 72 q 578 51 574 64 q 594 17 594 31 q 568 -7 594 0 q 486 -12 542 -14 q 380 -17 422 -15 q 323 -24 338 -19 q 306 -37 308 -28 q 293 -49 306 -49 q 267 -43 279 -49 m 508 1042 q 492 1065 499 1051 q 488 1086 485 1079 q 515 1142 500 1129 q 524 1151 518 1144 q 535 1158 531 1157 q 554 1165 543 1165 q 589 1132 578 1165 q 599 1106 599 1115 q 593 1086 599 1096 q 575 1060 588 1076 q 531 1028 551 1028 q 508 1042 518 1028 m 688 1042 q 671 1065 678 1051 q 667 1086 664 1079 q 694 1142 679 1129 q 704 1151 697 1144 q 715 1158 711 1157 q 735 1165 724 1165 q 768 1132 757 1165 q 778 1106 778 1115 q 772 1086 778 1096 q 754 1060 767 1076 q 711 1028 731 1028 q 688 1042 697 1028 z "},"İ":{"ha":556,"x_min":67,"x_max":838,"o":"m 267 -43 q 140 -22 249 -18 l 128 -24 q 82 -11 101 -24 q 67 17 63 1 q 182 54 69 53 l 256 56 l 269 83 q 301 186 281 115 q 331 275 308 213 q 376 419 374 408 q 399 486 383 436 q 422 568 414 536 q 475 772 488 769 q 399 767 461 774 q 331 757 338 761 q 317 751 326 751 q 299 758 308 751 q 286 772 289 764 q 285 788 285 778 q 293 803 285 797 q 360 831 308 815 q 461 853 413 847 q 509 863 485 856 q 546 882 533 871 q 594 890 575 892 q 642 883 604 883 q 690 885 674 883 q 775 890 740 890 q 813 885 801 890 q 832 867 825 879 q 838 838 838 844 q 807 813 838 811 q 693 804 783 807 q 588 785 594 796 q 577 772 581 778 q 569 761 574 767 q 563 726 571 756 q 544 665 556 696 l 519 592 q 469 443 481 471 q 456 394 460 419 q 417 265 432 313 q 393 188 401 217 q 353 57 367 110 l 432 64 q 539 72 514 72 q 566 68 558 72 q 578 51 574 64 q 594 17 594 31 q 568 -7 594 0 q 486 -12 542 -14 q 380 -17 422 -15 q 323 -24 338 -19 q 306 -37 308 -28 q 293 -49 306 -49 q 267 -43 279 -49 m 586 1025 q 569 1053 576 1033 q 565 1079 563 1072 q 603 1144 578 1122 q 612 1153 606 1147 q 622 1161 618 1160 q 642 1168 633 1168 q 685 1135 665 1168 q 693 1103 693 1117 q 686 1077 693 1090 q 661 1043 679 1064 q 617 1011 638 1011 q 586 1025 603 1011 z "},"Ị":{"ha":556,"x_min":67,"x_max":838,"o":"m 267 -43 q 140 -22 249 -18 l 128 -24 q 82 -11 101 -24 q 67 17 63 1 q 182 54 69 53 l 256 56 l 269 83 q 301 186 281 115 q 331 275 308 213 q 376 419 374 408 q 399 486 383 436 q 422 568 414 536 q 475 772 488 769 q 399 767 461 774 q 331 757 338 761 q 317 751 326 751 q 299 758 308 751 q 286 772 289 764 q 285 788 285 778 q 293 803 285 797 q 360 831 308 815 q 461 853 413 847 q 509 863 485 856 q 546 882 533 871 q 594 890 575 892 q 642 883 604 883 q 690 885 674 883 q 775 890 740 890 q 813 885 801 890 q 832 867 825 879 q 838 838 838 844 q 807 813 838 811 q 693 804 783 807 q 588 785 594 796 q 577 772 581 778 q 569 761 574 767 q 563 726 571 756 q 544 665 556 696 l 519 592 q 469 443 481 471 q 456 394 460 419 q 417 265 432 313 q 393 188 401 217 q 353 57 367 110 l 432 64 q 539 72 514 72 q 566 68 558 72 q 578 51 574 64 q 594 17 594 31 q 568 -7 594 0 q 486 -12 542 -14 q 380 -17 422 -15 q 323 -24 338 -19 q 306 -37 308 -28 q 293 -49 306 -49 q 267 -43 279 -49 m 204 -239 q 189 -217 194 -229 q 185 -197 183 -204 q 210 -144 197 -154 q 219 -135 213 -142 q 229 -128 225 -129 q 249 -121 240 -121 q 279 -153 269 -121 q 289 -179 289 -167 q 268 -221 289 -193 q 225 -253 244 -253 q 204 -239 214 -253 z "},"Ì":{"ha":556,"x_min":67,"x_max":838,"o":"m 267 -43 q 140 -22 249 -18 l 128 -24 q 82 -11 101 -24 q 67 17 63 1 q 182 54 69 53 l 256 56 l 269 83 q 301 186 281 115 q 331 275 308 213 q 376 419 374 408 q 399 486 383 436 q 422 568 414 536 q 475 772 488 769 q 399 767 461 774 q 331 757 338 761 q 317 751 326 751 q 299 758 308 751 q 286 772 289 764 q 285 788 285 778 q 293 803 285 797 q 360 831 308 815 q 461 853 413 847 q 509 863 485 856 q 546 882 533 871 q 594 890 575 892 q 642 883 604 883 q 690 885 674 883 q 775 890 740 890 q 813 885 801 890 q 832 867 825 879 q 838 838 838 844 q 807 813 838 811 q 693 804 783 807 q 588 785 594 796 q 577 772 581 778 q 569 761 574 767 q 563 726 571 756 q 544 665 556 696 l 519 592 q 469 443 481 471 q 456 394 460 419 q 417 265 432 313 q 393 188 401 217 q 353 57 367 110 l 432 64 q 539 72 514 72 q 566 68 558 72 q 578 51 574 64 q 594 17 594 31 q 568 -7 594 0 q 486 -12 542 -14 q 380 -17 422 -15 q 323 -24 338 -19 q 306 -37 308 -28 q 293 -49 306 -49 q 267 -43 279 -49 m 657 988 q 639 979 644 979 q 629 986 633 979 q 619 1010 625 993 q 594 1050 617 1014 q 556 1115 569 1090 q 543 1157 543 1139 q 547 1174 543 1168 q 588 1199 575 1199 q 606 1190 599 1199 q 637 1148 618 1183 q 670 1074 656 1113 q 685 1024 685 1035 q 677 1003 686 1017 q 657 988 668 990 z "},"Ȋ":{"ha":556,"x_min":67,"x_max":838,"o":"m 267 -43 q 140 -22 249 -18 l 128 -24 q 82 -11 101 -24 q 67 17 63 1 q 182 54 69 53 l 256 56 l 269 83 q 301 186 281 115 q 331 275 308 213 q 376 419 374 408 q 399 486 383 436 q 422 568 414 536 q 475 772 488 769 q 399 767 461 774 q 331 757 338 761 q 317 751 326 751 q 299 758 308 751 q 286 772 289 764 q 285 788 285 778 q 293 803 285 797 q 360 831 308 815 q 461 853 413 847 q 509 863 485 856 q 546 882 533 871 q 594 890 575 892 q 642 883 604 883 q 690 885 674 883 q 775 890 740 890 q 813 885 801 890 q 832 867 825 879 q 838 838 838 844 q 807 813 838 811 q 693 804 783 807 q 588 785 594 796 q 577 772 581 778 q 569 761 574 767 q 563 726 571 756 q 544 665 556 696 l 519 592 q 469 443 481 471 q 456 394 460 419 q 417 265 432 313 q 393 188 401 217 q 353 57 367 110 l 432 64 q 539 72 514 72 q 566 68 558 72 q 578 51 574 64 q 594 17 594 31 q 568 -7 594 0 q 486 -12 542 -14 q 380 -17 422 -15 q 323 -24 338 -19 q 306 -37 308 -28 q 293 -49 306 -49 q 267 -43 279 -49 m 682 1014 q 685 1038 685 1028 q 666 1090 685 1068 q 603 1110 647 1111 q 549 1077 579 1108 q 501 1017 518 1046 q 464 983 483 983 q 442 1000 450 983 q 439 1031 435 1017 q 471 1088 444 1053 q 538 1149 497 1124 q 624 1171 578 1175 q 715 1135 682 1167 q 749 1053 749 1103 q 746 1022 749 1042 q 728 983 740 997 q 701 969 715 969 q 685 976 692 969 q 679 996 679 983 l 682 1014 z "},"Ī":{"ha":556,"x_min":67,"x_max":838,"o":"m 267 -43 q 140 -22 249 -18 l 128 -24 q 82 -11 101 -24 q 67 17 63 1 q 182 54 69 53 l 256 56 l 269 83 q 301 186 281 115 q 331 275 308 213 q 376 419 374 408 q 399 486 383 436 q 422 568 414 536 q 475 772 488 769 q 399 767 461 774 q 331 757 338 761 q 317 751 326 751 q 299 758 308 751 q 286 772 289 764 q 285 788 285 778 q 293 803 285 797 q 360 831 308 815 q 461 853 413 847 q 509 863 485 856 q 546 882 533 871 q 594 890 575 892 q 642 883 604 883 q 690 885 674 883 q 775 890 740 890 q 813 885 801 890 q 832 867 825 879 q 838 838 838 844 q 807 813 838 811 q 693 804 783 807 q 588 785 594 796 q 577 772 581 778 q 569 761 574 767 q 563 726 571 756 q 544 665 556 696 l 519 592 q 469 443 481 471 q 456 394 460 419 q 417 265 432 313 q 393 188 401 217 q 353 57 367 110 l 432 64 q 539 72 514 72 q 566 68 558 72 q 578 51 574 64 q 594 17 594 31 q 568 -7 594 0 q 486 -12 542 -14 q 380 -17 422 -15 q 323 -24 338 -19 q 306 -37 308 -28 q 293 -49 306 -49 q 267 -43 279 -49 m 515 1058 q 471 1064 488 1058 q 444 1067 451 1064 q 431 1081 436 1071 q 424 1099 424 1094 q 438 1113 424 1108 q 488 1122 451 1118 q 690 1138 586 1138 q 753 1135 729 1138 q 790 1121 776 1132 q 804 1090 804 1106 q 768 1068 804 1064 q 718 1065 750 1067 q 657 1064 686 1064 l 618 1063 q 515 1058 526 1058 z "},"Į":{"ha":556,"x_min":67,"x_max":838,"o":"m 267 -43 q 140 -22 249 -18 l 128 -24 q 82 -11 101 -24 q 67 17 63 1 q 182 54 69 53 l 256 56 l 269 83 q 301 186 281 115 q 331 275 308 213 q 376 419 374 408 q 399 486 383 436 q 422 568 414 536 q 475 772 488 769 q 399 767 461 774 q 331 757 338 761 q 317 751 326 751 q 299 758 308 751 q 286 772 289 764 q 285 788 285 778 q 293 803 285 797 q 360 831 308 815 q 461 853 413 847 q 509 863 485 856 q 546 882 533 871 q 594 890 575 892 q 642 883 604 883 q 690 885 674 883 q 775 890 740 890 q 813 885 801 890 q 832 867 825 879 q 838 838 838 844 q 807 813 838 811 q 693 804 783 807 q 588 785 594 796 q 577 772 581 778 q 569 761 574 767 q 563 726 571 756 q 544 665 556 696 l 519 592 q 469 443 481 471 q 456 394 460 419 q 417 265 432 313 q 393 188 401 217 q 353 57 367 110 l 432 64 q 539 72 514 72 q 566 68 558 72 q 578 51 574 64 q 594 17 594 31 q 568 -7 594 0 q 486 -12 542 -14 q 380 -17 422 -15 q 323 -24 338 -19 q 306 -37 308 -28 q 293 -49 306 -49 q 267 -43 279 -49 m 190 -283 q 137 -247 158 -274 q 115 -186 115 -219 q 174 -81 115 -140 q 303 25 233 -21 l 344 -17 q 271 -72 313 -36 q 204 -136 229 -107 q 174 -197 174 -174 q 179 -217 174 -210 q 188 -224 182 -222 q 204 -225 194 -225 q 249 -210 228 -222 q 278 -196 271 -199 l 315 -175 q 336 -169 326 -169 q 350 -176 344 -169 q 356 -190 356 -182 q 349 -212 356 -201 q 328 -229 342 -224 l 300 -242 q 190 -283 222 -279 z "},"Ĩ":{"ha":556,"x_min":67,"x_max":838,"o":"m 267 -43 q 140 -22 249 -18 l 128 -24 q 82 -11 101 -24 q 67 17 63 1 q 182 54 69 53 l 256 56 l 269 83 q 301 186 281 115 q 331 275 308 213 q 376 419 374 408 q 399 486 383 436 q 422 568 414 536 q 475 772 488 769 q 399 767 461 774 q 331 757 338 761 q 317 751 326 751 q 299 758 308 751 q 286 772 289 764 q 285 788 285 778 q 293 803 285 797 q 360 831 308 815 q 461 853 413 847 q 509 863 485 856 q 546 882 533 871 q 594 890 575 892 q 642 883 604 883 q 690 885 674 883 q 775 890 740 890 q 813 885 801 890 q 832 867 825 879 q 838 838 838 844 q 807 813 838 811 q 693 804 783 807 q 588 785 594 796 q 577 772 581 778 q 569 761 574 767 q 563 726 571 756 q 544 665 556 696 l 519 592 q 469 443 481 471 q 456 394 460 419 q 417 265 432 313 q 393 188 401 217 q 353 57 367 110 l 432 64 q 539 72 514 72 q 566 68 558 72 q 578 51 574 64 q 594 17 594 31 q 568 -7 594 0 q 486 -12 542 -14 q 380 -17 422 -15 q 323 -24 338 -19 q 306 -37 308 -28 q 293 -49 306 -49 q 267 -43 279 -49 m 683 1013 q 646 1019 661 1013 q 616 1037 631 1026 q 594 1051 601 1047 q 575 1067 589 1054 q 547 1090 561 1081 q 524 1100 533 1100 q 507 1094 514 1100 q 490 1076 500 1089 q 477 1060 485 1068 q 460 1051 469 1053 q 451 1033 458 1043 q 442 1031 444 1024 q 421 1044 429 1035 q 414 1061 413 1053 q 438 1110 415 1079 q 501 1161 460 1140 q 521 1164 513 1164 q 562 1156 540 1164 q 600 1133 583 1149 q 624 1110 608 1125 q 651 1090 640 1096 q 671 1083 661 1083 q 692 1089 675 1083 q 740 1111 707 1093 q 790 1138 768 1129 q 815 1131 804 1143 q 824 1104 826 1118 q 814 1083 824 1097 q 793 1064 804 1069 q 714 1022 735 1031 q 683 1013 693 1013 z "},"J":{"ha":425,"x_min":-54,"x_max":615,"o":"m 124 -251 q 79 -261 99 -261 q 15 -247 47 -261 q -40 -206 -17 -232 q -54 -176 -54 -192 q -50 -156 -54 -168 q -32 -131 -43 -131 q -16 -138 -26 -131 q 3 -157 -6 -146 q 56 -181 31 -181 q 161 -94 106 -181 l 197 -14 q 285 186 275 157 q 286 192 285 188 q 292 201 288 196 q 299 225 293 207 q 310 263 306 243 l 368 428 q 384 488 374 456 q 403 543 394 521 q 444 663 408 554 q 474 753 461 715 q 494 819 479 769 q 507 874 510 869 l 429 860 q 392 853 414 853 q 369 856 378 853 q 361 863 360 858 l 361 869 q 342 877 354 864 q 332 901 331 890 q 359 922 332 913 q 431 936 386 931 l 531 950 q 565 945 538 956 q 604 924 593 935 q 615 893 615 908 q 603 838 615 874 q 550 690 592 803 l 504 561 q 453 418 471 460 q 438 374 447 400 q 403 265 414 306 q 367 160 386 226 q 361 135 367 149 q 349 114 356 121 l 315 32 l 303 -1 q 288 -39 300 -10 q 267 -82 276 -68 q 251 -111 263 -93 q 240 -133 240 -129 q 239 -138 240 -135 q 233 -142 238 -142 q 228 -147 232 -143 q 225 -156 225 -150 q 182 -207 218 -172 q 124 -251 146 -242 z "},"Ĵ":{"ha":425,"x_min":-54,"x_max":701,"o":"m 124 -251 q 79 -261 99 -261 q 15 -247 47 -261 q -40 -206 -17 -232 q -54 -176 -54 -192 q -50 -156 -54 -168 q -32 -131 -43 -131 q -16 -138 -26 -131 q 3 -157 -6 -146 q 56 -181 31 -181 q 161 -94 106 -181 l 197 -14 q 285 186 275 157 q 286 192 285 188 q 292 201 288 196 q 299 225 293 207 q 310 263 306 243 l 368 428 q 384 488 374 456 q 403 543 394 521 q 444 663 408 554 q 474 753 461 715 q 494 819 479 769 q 507 874 510 869 l 429 860 q 392 853 414 853 q 369 856 378 853 q 361 863 360 858 l 361 869 q 342 877 354 864 q 332 901 331 890 q 359 922 332 913 q 431 936 386 931 l 531 950 q 565 945 538 956 q 604 924 593 935 q 615 893 615 908 q 603 838 615 874 q 550 690 592 803 l 504 561 q 453 418 471 460 q 438 374 447 400 q 403 265 414 306 q 367 160 386 226 q 361 135 367 149 q 349 114 356 121 l 315 32 l 303 -1 q 288 -39 300 -10 q 267 -82 276 -68 q 251 -111 263 -93 q 240 -133 240 -129 q 239 -138 240 -135 q 233 -142 238 -142 q 228 -147 232 -143 q 225 -156 225 -150 q 182 -207 218 -172 q 124 -251 146 -242 m 461 1014 q 424 994 442 994 q 406 1002 413 994 q 400 1021 400 1010 q 411 1051 400 1036 q 469 1106 422 1065 q 542 1160 515 1146 q 564 1169 553 1169 q 585 1157 576 1169 q 643 1102 607 1139 q 694 1049 679 1065 q 701 1025 701 1040 q 694 1002 701 1013 q 676 992 688 992 q 636 1018 657 992 q 561 1092 608 1051 q 499 1047 532 1075 q 461 1014 467 1018 z "},"K":{"ha":692,"x_min":114,"x_max":944,"o":"m 942 835 q 935 810 944 821 q 896 783 926 800 q 825 738 833 753 q 794 714 818 732 q 733 669 769 696 q 640 601 679 633 q 588 553 600 569 q 577 549 583 553 q 567 546 571 544 q 554 538 564 544 q 540 525 544 531 q 527 503 536 514 q 506 494 518 493 q 401 418 479 481 q 456 231 411 311 q 538 100 496 142 q 592 50 567 68 q 632 32 618 32 q 667 13 644 28 q 690 -12 689 -3 q 692 -24 692 -15 q 685 -54 692 -44 q 675 -69 679 -64 q 661 -74 671 -74 q 624 -62 646 -74 q 547 -21 601 -64 q 464 58 493 22 q 399 157 426 113 q 358 254 372 201 q 338 329 353 279 q 326 367 328 356 l 326 393 l 310 351 q 292 306 308 347 q 247 158 276 264 l 225 86 q 183 -40 193 -14 q 161 -67 172 -67 q 147 -60 156 -67 q 133 -51 138 -54 q 118 -39 122 -44 q 114 -25 114 -33 q 121 10 114 -15 q 124 44 119 28 q 128 64 128 61 q 138 86 138 64 q 150 135 138 97 l 163 178 l 179 218 q 194 260 194 257 q 213 306 194 278 q 222 342 218 322 q 226 374 226 361 q 242 406 229 381 q 260 456 254 431 q 265 471 261 463 q 272 492 268 479 l 318 617 l 339 664 q 358 707 342 671 q 379 743 374 743 l 379 758 q 394 794 379 764 l 411 828 q 428 863 422 846 q 436 886 435 881 q 442 896 438 889 q 451 908 446 903 q 479 919 467 919 q 513 892 499 919 q 522 857 522 872 q 510 824 522 843 q 415 615 463 722 q 367 492 367 508 l 414 526 q 529 622 450 563 l 700 761 q 792 822 739 781 q 814 838 806 831 q 828 847 822 844 q 861 872 836 854 q 893 888 886 889 q 926 874 908 894 q 942 835 944 853 z "},"Ķ":{"ha":686,"x_min":114,"x_max":942,"o":"m 942 835 q 935 810 944 821 q 896 783 926 800 q 825 738 833 753 q 794 714 818 732 q 733 669 769 696 q 640 601 679 633 q 588 553 600 569 q 577 549 583 553 q 567 546 571 544 q 554 538 564 544 q 540 525 544 531 q 527 503 536 514 q 506 494 518 493 q 401 418 479 481 q 456 231 411 311 q 538 100 496 142 q 592 50 567 68 q 632 32 618 32 q 667 13 644 28 q 690 -12 689 -3 q 692 -24 692 -15 q 685 -54 692 -44 q 675 -69 679 -64 q 661 -74 671 -74 q 624 -62 646 -74 q 547 -21 601 -64 q 464 58 493 22 q 399 157 426 113 q 358 254 372 201 q 338 329 353 279 q 326 367 328 356 l 326 393 l 310 351 q 292 306 308 347 q 247 158 276 264 l 225 86 q 183 -40 193 -14 q 161 -67 172 -67 q 147 -60 156 -67 q 133 -51 138 -54 q 118 -39 122 -44 q 114 -25 114 -33 q 121 10 114 -15 q 124 44 119 28 q 128 64 128 61 q 138 86 138 64 q 150 135 138 97 l 163 178 l 179 218 q 194 260 194 257 q 213 306 194 278 q 222 342 218 322 q 226 374 226 361 q 242 406 229 381 q 260 456 254 431 q 265 471 261 463 q 272 492 268 479 l 318 617 l 339 664 q 358 707 342 671 q 379 743 374 743 l 379 758 q 394 794 379 764 l 411 828 q 428 863 422 846 q 436 886 435 881 q 442 896 438 889 q 451 908 446 903 q 479 919 467 919 q 513 892 499 919 q 522 857 522 872 q 510 824 522 843 q 415 615 463 722 q 367 492 367 508 l 414 526 q 529 622 450 563 l 700 761 q 792 822 739 781 q 814 838 806 831 q 828 847 822 844 q 861 872 836 854 q 893 888 886 889 q 926 874 908 894 q 942 835 944 853 m 225 -254 q 208 -253 211 -254 q 199 -244 204 -251 q 218 -218 199 -235 q 283 -117 285 -147 q 292 -73 282 -90 q 319 -56 303 -56 q 353 -69 335 -56 q 356 -96 356 -89 q 349 -131 356 -112 q 332 -172 343 -149 q 300 -215 321 -187 q 275 -242 279 -242 q 256 -249 267 -242 q 244 -253 250 -253 q 225 -254 238 -254 z "},"L":{"ha":592,"x_min":140,"x_max":624,"o":"m 301 -53 q 203 2 247 -39 q 146 89 158 43 q 140 182 140 131 q 144 219 140 215 q 149 236 149 222 q 158 282 147 244 q 164 325 168 307 q 169 335 165 328 q 178 349 172 342 q 185 363 185 356 q 185 374 186 371 l 185 375 q 188 390 185 381 q 196 404 192 399 q 203 415 200 408 q 208 425 207 422 q 230 487 210 435 q 257 550 250 539 l 257 553 q 272 582 263 567 q 292 636 275 601 q 381 799 324 707 q 472 924 439 892 q 495 945 486 939 q 513 951 504 951 q 544 932 525 951 q 561 888 561 915 q 556 872 561 872 q 483 782 538 860 q 396 643 429 704 q 365 578 378 604 q 347 543 351 551 l 342 531 q 279 378 308 460 q 270 360 272 369 q 268 349 268 351 q 263 341 265 350 q 258 325 261 332 q 249 285 249 317 q 224 190 233 247 q 217 106 214 133 q 293 32 222 60 q 340 19 325 19 q 370 21 350 18 q 417 28 390 24 l 415 28 q 492 44 422 29 q 547 57 525 49 q 601 69 589 69 q 613 67 610 69 q 624 46 624 58 l 621 33 q 576 0 617 22 q 499 -33 536 -22 q 431 -53 469 -46 q 357 -60 393 -60 q 301 -53 319 -60 z "},"Ĺ":{"ha":592,"x_min":140,"x_max":793,"o":"m 301 -53 q 203 2 247 -39 q 146 89 158 43 q 140 182 140 131 q 144 219 140 215 q 149 236 149 222 q 158 282 147 244 q 164 325 168 307 q 169 335 165 328 q 178 349 172 342 q 185 363 185 356 q 185 374 186 371 l 185 375 q 188 390 185 381 q 196 404 192 399 q 203 415 200 408 q 208 425 207 422 q 230 487 210 435 q 257 550 250 539 l 257 553 q 272 582 263 567 q 292 636 275 601 q 381 799 324 707 q 472 924 439 892 q 495 945 486 939 q 513 951 504 951 q 544 932 525 951 q 561 888 561 915 q 556 872 561 872 q 483 782 538 860 q 396 643 429 704 q 365 578 378 604 q 347 543 351 551 l 342 531 q 279 378 308 460 q 270 360 272 369 q 268 349 268 351 q 263 341 265 350 q 258 325 261 332 q 249 285 249 317 q 224 190 233 247 q 217 106 214 133 q 293 32 222 60 q 340 19 325 19 q 370 21 350 18 q 417 28 390 24 l 415 28 q 492 44 422 29 q 547 57 525 49 q 601 69 589 69 q 613 67 610 69 q 624 46 624 58 l 621 33 q 576 0 617 22 q 499 -33 536 -22 q 431 -53 469 -46 q 357 -60 393 -60 q 301 -53 319 -60 m 617 992 q 602 1019 607 1000 q 599 1046 597 1038 q 658 1119 601 1058 q 735 1188 715 1181 q 747 1192 742 1192 q 792 1149 767 1192 q 778 1116 797 1136 q 721 1064 760 1096 q 663 1010 674 1025 q 649 990 656 997 q 636 982 642 982 q 617 992 632 982 z "},"Ľ":{"ha":592,"x_min":140,"x_max":808,"o":"m 301 -53 q 203 2 247 -39 q 146 89 158 43 q 140 182 140 131 q 144 219 140 215 q 149 236 149 222 q 158 282 147 244 q 164 325 168 307 q 169 335 165 328 q 178 349 172 342 q 185 363 185 356 q 185 374 186 371 l 185 375 q 188 390 185 381 q 196 404 192 399 q 203 415 200 408 q 208 425 207 422 q 230 487 210 435 q 257 550 250 539 l 257 553 q 272 582 263 567 q 292 636 275 601 q 381 799 324 707 q 472 924 439 892 q 495 945 486 939 q 513 951 504 951 q 544 932 525 951 q 561 888 561 915 q 556 872 561 872 q 483 782 538 860 q 396 643 429 704 q 365 578 378 604 q 347 543 351 551 l 342 531 q 279 378 308 460 q 270 360 272 369 q 268 349 268 351 q 263 341 265 350 q 258 325 261 332 q 249 285 249 317 q 224 190 233 247 q 217 106 214 133 q 293 32 222 60 q 340 19 325 19 q 370 21 350 18 q 417 28 390 24 l 415 28 q 492 44 422 29 q 547 57 525 49 q 601 69 589 69 q 613 67 610 69 q 624 46 624 58 l 621 33 q 576 0 617 22 q 499 -33 536 -22 q 431 -53 469 -46 q 357 -60 393 -60 q 301 -53 319 -60 m 661 722 q 644 724 647 722 q 635 736 640 725 q 639 751 635 744 q 654 767 643 757 q 706 826 683 796 q 728 876 729 857 q 739 928 726 908 q 771 949 751 949 q 806 932 789 949 q 808 904 808 913 q 785 821 808 875 q 752 774 779 807 q 719 742 725 742 q 700 729 713 742 q 685 724 696 725 q 661 722 675 722 z "},"Ļ":{"ha":592,"x_min":140,"x_max":624,"o":"m 301 -53 q 203 2 247 -39 q 146 89 158 43 q 140 182 140 131 q 144 219 140 215 q 149 236 149 222 q 158 282 147 244 q 164 325 168 307 q 169 335 165 328 q 178 349 172 342 q 185 363 185 356 q 185 374 186 371 l 185 375 q 188 390 185 381 q 196 404 192 399 q 203 415 200 408 q 208 425 207 422 q 230 487 210 435 q 257 550 250 539 l 257 553 q 272 582 263 567 q 292 636 275 601 q 381 799 324 707 q 472 924 439 892 q 495 945 486 939 q 513 951 504 951 q 544 932 525 951 q 561 888 561 915 q 556 872 561 872 q 483 782 538 860 q 396 643 429 704 q 365 578 378 604 q 347 543 351 551 l 342 531 q 279 378 308 460 q 270 360 272 369 q 268 349 268 351 q 263 341 265 350 q 258 325 261 332 q 249 285 249 317 q 224 190 233 247 q 217 106 214 133 q 293 32 222 60 q 340 19 325 19 q 370 21 350 18 q 417 28 390 24 l 415 28 q 492 44 422 29 q 547 57 525 49 q 601 69 589 69 q 613 67 610 69 q 624 46 624 58 l 621 33 q 576 0 617 22 q 499 -33 536 -22 q 431 -53 469 -46 q 357 -60 393 -60 q 301 -53 319 -60 m 182 -317 q 165 -315 168 -317 q 156 -307 161 -314 q 175 -281 156 -297 q 240 -179 242 -210 q 249 -135 239 -153 q 276 -118 260 -118 q 310 -132 292 -118 q 313 -158 313 -151 q 306 -193 313 -175 q 289 -235 300 -211 q 257 -277 278 -250 q 232 -304 236 -304 q 213 -311 224 -304 q 201 -316 207 -315 q 182 -317 194 -317 z "},"Ŀ":{"ha":592,"x_min":140,"x_max":660,"o":"m 301 -53 q 203 2 247 -39 q 146 89 158 43 q 140 182 140 131 q 144 219 140 215 q 149 236 149 222 q 158 282 147 244 q 164 325 168 307 q 169 335 165 328 q 178 349 172 342 q 185 363 185 356 q 185 374 186 371 l 185 375 q 188 390 185 381 q 196 404 192 399 q 203 415 200 408 q 208 425 207 422 q 230 487 210 435 q 257 550 250 539 l 257 553 q 272 582 263 567 q 292 636 275 601 q 381 799 324 707 q 472 924 439 892 q 495 945 486 939 q 513 951 504 951 q 544 932 525 951 q 561 888 561 915 q 556 872 561 872 q 483 782 538 860 q 396 643 429 704 q 365 578 378 604 q 347 543 351 551 l 342 531 q 279 378 308 460 q 270 360 272 369 q 268 349 268 351 q 263 341 265 350 q 258 325 261 332 q 249 285 249 317 q 224 190 233 247 q 217 106 214 133 q 293 32 222 60 q 340 19 325 19 q 370 21 350 18 q 417 28 390 24 l 415 28 q 492 44 422 29 q 547 57 525 49 q 601 69 589 69 q 613 67 610 69 q 624 46 624 58 l 621 33 q 576 0 617 22 q 499 -33 536 -22 q 431 -53 469 -46 q 357 -60 393 -60 q 301 -53 319 -60 m 553 344 q 536 378 543 354 q 536 401 529 401 q 562 426 547 403 q 575 464 576 449 q 579 474 575 469 q 589 481 583 479 q 608 488 600 488 q 651 454 632 488 q 660 422 660 436 q 653 397 660 410 q 628 363 646 383 q 583 331 604 331 q 553 344 569 331 z "},"Ł":{"ha":592,"x_min":64,"x_max":624,"o":"m 613 67 q 624 46 624 58 l 621 33 q 576 0 617 22 q 499 -33 536 -22 q 431 -53 469 -46 q 357 -60 393 -60 q 301 -53 319 -60 q 203 2 247 -39 q 146 89 158 43 q 140 182 140 131 q 144 219 140 215 q 149 236 149 222 q 158 282 147 244 q 165 317 165 301 q 126 307 146 308 q 100 299 108 299 q 82 306 92 299 q 64 326 64 315 q 118 368 64 349 q 208 428 139 390 q 233 497 217 453 q 257 550 250 540 l 257 553 q 272 582 263 567 q 292 636 275 601 q 381 799 324 707 q 472 924 439 892 q 495 945 486 939 q 513 951 504 951 q 544 932 525 951 q 561 888 561 915 q 556 872 561 872 q 483 782 538 860 q 396 643 429 704 q 365 578 378 604 q 347 543 351 551 l 342 531 l 319 481 l 479 553 q 513 566 499 561 q 536 571 526 571 q 556 568 542 571 q 578 556 569 564 q 586 538 586 547 q 560 511 586 521 q 544 497 557 506 q 526 485 532 489 l 488 457 q 410 428 478 458 q 272 367 342 399 q 269 355 269 360 q 268 349 268 350 q 263 341 265 350 q 258 325 261 332 q 249 285 249 317 q 224 190 233 247 q 217 106 214 133 q 293 32 222 60 q 340 19 325 19 q 370 21 350 18 q 417 28 390 24 l 415 28 q 492 44 422 29 q 547 57 525 49 q 601 69 589 69 q 613 67 610 69 z "},"M":{"ha":1000,"x_min":47,"x_max":1108,"o":"m 918 -67 q 908 -72 918 -72 q 892 -67 901 -72 q 876 -51 882 -61 q 865 7 865 -28 l 867 64 q 968 572 910 317 q 1001 701 988 640 q 1017 779 1014 763 q 1009 776 1017 783 q 994 758 1001 768 q 989 743 988 747 l 954 692 q 915 628 946 683 q 878 558 894 583 l 839 485 q 786 389 796 406 q 746 317 772 368 q 696 238 732 283 q 674 204 685 222 q 661 181 664 186 q 633 133 661 174 q 581 67 604 93 q 528 19 549 33 q 489 4 507 4 q 438 31 465 4 q 412 76 419 50 q 404 142 404 103 q 414 258 404 176 q 440 407 415 265 q 472 564 467 550 q 474 583 474 572 q 469 596 474 596 q 454 578 465 596 q 405 500 450 572 q 308 315 360 428 q 189 92 228 167 q 132 -14 150 18 q 104 -64 108 -60 q 51 -29 83 -64 q 47 -14 47 -21 q 56 18 47 -4 q 82 76 65 40 q 139 172 125 161 q 158 221 156 194 q 210 311 176 246 q 259 394 231 344 q 310 490 288 444 l 349 558 q 435 704 403 653 q 485 772 468 756 q 507 814 507 799 q 519 867 507 843 q 543 889 531 892 q 570 885 560 889 q 592 868 581 882 q 601 855 594 864 q 610 835 607 846 q 614 810 614 825 q 610 768 614 793 q 599 686 608 750 q 593 649 593 656 q 528 374 557 539 q 500 143 500 210 q 503 122 500 128 q 520 121 513 115 q 543 157 528 126 q 604 243 561 190 q 658 335 607 247 q 907 756 786 544 l 943 813 q 983 874 964 846 q 1014 911 1003 903 q 1040 922 1028 922 q 1088 890 1067 922 q 1108 810 1108 858 q 1093 695 1108 772 q 1053 540 1078 618 q 1029 443 1044 501 q 997 338 1014 385 q 986 278 994 314 q 978 235 985 271 q 975 188 972 200 q 954 38 954 150 l 950 6 q 944 -47 947 -33 q 936 -60 942 -61 q 928 -58 933 -58 q 918 -67 918 -58 z "},"N":{"ha":832,"x_min":114,"x_max":1024,"o":"m 135 -86 q 114 -49 114 -65 q 119 -22 114 -39 q 126 6 124 -4 q 160 99 139 54 q 182 157 171 125 q 200 226 193 189 q 249 351 228 290 q 276 428 271 411 q 307 496 278 435 q 350 583 331 542 q 385 686 357 603 q 419 786 404 749 q 458 861 435 824 q 518 903 483 903 q 548 892 535 903 q 568 861 561 882 q 585 797 579 835 q 594 668 592 758 q 596 586 596 640 l 596 454 q 599 338 596 383 q 611 258 601 292 q 642 120 622 194 q 672 46 661 46 q 728 145 689 46 q 826 486 767 244 q 846 567 835 514 q 863 669 857 619 q 892 788 878 726 q 907 856 907 850 q 908 869 907 863 q 907 886 908 876 q 919 904 913 886 q 925 938 925 922 q 944 997 925 978 q 965 1007 949 1007 q 998 998 982 1007 q 1019 976 1014 989 q 981 764 1024 947 q 961 664 981 747 q 942 574 949 617 q 928 504 936 533 q 915 476 921 475 q 769 29 858 232 q 681 -67 729 -67 q 613 -22 647 -67 q 560 76 575 26 q 522 251 546 126 q 499 403 499 317 q 506 519 499 453 l 511 615 q 508 692 510 671 q 500 714 506 714 q 483 689 494 714 q 451 604 472 664 q 390 457 429 549 l 354 368 q 317 267 329 318 q 219 -11 258 115 l 207 -50 q 167 -106 186 -106 q 135 -86 153 -106 z "},"Ń":{"ha":786,"x_min":114,"x_max":1019,"o":"m 135 -86 q 114 -49 114 -65 q 119 -22 114 -39 q 126 6 124 -4 q 160 99 139 54 q 182 157 171 125 q 200 226 193 189 q 249 351 228 290 q 276 428 271 411 q 307 496 278 435 q 350 583 331 542 q 385 686 357 603 q 419 786 404 749 q 458 861 435 824 q 518 903 483 903 q 548 892 535 903 q 568 861 561 882 q 585 797 579 835 q 594 668 592 758 q 596 586 596 640 l 596 454 q 599 338 596 383 q 611 258 601 292 q 642 120 622 194 q 672 46 661 46 q 728 145 689 46 q 826 486 767 244 q 846 567 835 514 q 863 669 857 619 q 892 788 878 726 q 907 856 907 850 q 908 869 907 863 q 907 886 908 876 q 919 904 913 886 q 925 938 925 922 q 944 997 925 978 q 965 1007 949 1007 q 998 998 982 1007 q 1019 976 1014 989 q 981 764 1024 947 q 961 664 981 747 q 942 574 949 617 q 928 504 936 533 q 915 476 921 475 q 769 29 858 232 q 681 -67 729 -67 q 613 -22 647 -67 q 560 76 575 26 q 522 251 546 126 q 499 403 499 317 q 506 519 499 453 l 511 615 q 508 692 510 671 q 500 714 506 714 q 483 689 494 714 q 451 604 472 664 q 390 457 429 549 l 354 368 q 317 267 329 318 q 219 -11 258 115 l 207 -50 q 167 -106 186 -106 q 135 -86 153 -106 m 636 992 q 622 1019 626 1000 q 618 1046 617 1038 q 678 1119 621 1058 q 754 1188 735 1181 q 767 1192 761 1192 q 811 1149 786 1192 q 798 1116 817 1136 q 740 1064 779 1096 q 682 1010 693 1025 q 668 990 675 997 q 656 982 661 982 q 636 992 651 982 z "},"Ň":{"ha":786,"x_min":114,"x_max":1019,"o":"m 135 -86 q 114 -49 114 -65 q 119 -22 114 -39 q 126 6 124 -4 q 160 99 139 54 q 182 157 171 125 q 200 226 193 189 q 249 351 228 290 q 276 428 271 411 q 307 496 278 435 q 350 583 331 542 q 385 686 357 603 q 419 786 404 749 q 458 861 435 824 q 518 903 483 903 q 548 892 535 903 q 568 861 561 882 q 585 797 579 835 q 594 668 592 758 q 596 586 596 640 l 596 454 q 599 338 596 383 q 611 258 601 292 q 642 120 622 194 q 672 46 661 46 q 728 145 689 46 q 826 486 767 244 q 846 567 835 514 q 863 669 857 619 q 892 788 878 726 q 907 856 907 850 q 908 869 907 863 q 907 886 908 876 q 919 904 913 886 q 925 938 925 922 q 944 997 925 978 q 965 1007 949 1007 q 998 998 982 1007 q 1019 976 1014 989 q 981 764 1024 947 q 961 664 981 747 q 942 574 949 617 q 928 504 936 533 q 915 476 921 475 q 769 29 858 232 q 681 -67 729 -67 q 613 -22 647 -67 q 560 76 575 26 q 522 251 546 126 q 499 403 499 317 q 506 519 499 453 l 511 615 q 508 692 510 671 q 500 714 506 714 q 483 689 494 714 q 451 604 472 664 q 390 457 429 549 l 354 368 q 317 267 329 318 q 219 -11 258 115 l 207 -50 q 167 -106 186 -106 q 135 -86 153 -106 m 706 997 q 685 989 696 989 q 664 1000 672 989 q 598 1062 640 1021 q 551 1110 556 1103 q 549 1124 549 1118 q 556 1149 549 1138 q 575 1161 563 1161 q 610 1139 589 1161 q 649 1101 619 1125 q 688 1068 678 1076 q 744 1104 715 1085 q 788 1136 774 1124 q 833 1157 815 1157 q 849 1149 844 1157 q 854 1129 854 1140 q 851 1111 854 1117 q 792 1056 847 1099 q 706 997 736 1014 z "},"Ņ":{"ha":786,"x_min":114,"x_max":1019,"o":"m 135 -86 q 114 -49 114 -65 q 119 -22 114 -39 q 126 6 124 -4 q 160 99 139 54 q 182 157 171 125 q 200 226 193 189 q 249 351 228 290 q 276 428 271 411 q 307 496 278 435 q 350 583 331 542 q 385 686 357 603 q 419 786 404 749 q 458 861 435 824 q 518 903 483 903 q 548 892 535 903 q 568 861 561 882 q 585 797 579 835 q 594 668 592 758 q 596 586 596 640 l 596 454 q 599 338 596 383 q 611 258 601 292 q 642 120 622 194 q 672 46 661 46 q 728 145 689 46 q 826 486 767 244 q 846 567 835 514 q 863 669 857 619 q 892 788 878 726 q 907 856 907 850 q 908 869 907 863 q 907 886 908 876 q 919 904 913 886 q 925 938 925 922 q 944 997 925 978 q 965 1007 949 1007 q 998 998 982 1007 q 1019 976 1014 989 q 981 764 1024 947 q 961 664 981 747 q 942 574 949 617 q 928 504 936 533 q 915 476 921 475 q 769 29 858 232 q 681 -67 729 -67 q 613 -22 647 -67 q 560 76 575 26 q 522 251 546 126 q 499 403 499 317 q 506 519 499 453 l 511 615 q 508 692 510 671 q 500 714 506 714 q 483 689 494 714 q 451 604 472 664 q 390 457 429 549 l 354 368 q 317 267 329 318 q 219 -11 258 115 l 207 -50 q 167 -106 186 -106 q 135 -86 153 -106 m 285 -254 q 267 -253 271 -254 q 258 -244 264 -251 q 278 -218 258 -235 q 343 -117 344 -147 q 352 -73 342 -90 q 379 -56 363 -56 q 413 -69 394 -56 q 415 -96 415 -89 q 409 -131 415 -112 q 392 -172 403 -149 q 360 -215 381 -187 q 335 -242 339 -242 q 315 -249 326 -242 q 303 -253 310 -253 q 285 -254 297 -254 z "},"Ṅ":{"ha":786,"x_min":114,"x_max":1019,"o":"m 135 -86 q 114 -49 114 -65 q 119 -22 114 -39 q 126 6 124 -4 q 160 99 139 54 q 182 157 171 125 q 200 226 193 189 q 249 351 228 290 q 276 428 271 411 q 307 496 278 435 q 350 583 331 542 q 385 686 357 603 q 419 786 404 749 q 458 861 435 824 q 518 903 483 903 q 548 892 535 903 q 568 861 561 882 q 585 797 579 835 q 594 668 592 758 q 596 586 596 640 l 596 454 q 599 338 596 383 q 611 258 601 292 q 642 120 622 194 q 672 46 661 46 q 728 145 689 46 q 826 486 767 244 q 846 567 835 514 q 863 669 857 619 q 892 788 878 726 q 907 856 907 850 q 908 869 907 863 q 907 886 908 876 q 919 904 913 886 q 925 938 925 922 q 944 997 925 978 q 965 1007 949 1007 q 998 998 982 1007 q 1019 976 1014 989 q 981 764 1024 947 q 961 664 981 747 q 942 574 949 617 q 928 504 936 533 q 915 476 921 475 q 769 29 858 232 q 681 -67 729 -67 q 613 -22 647 -67 q 560 76 575 26 q 522 251 546 126 q 499 403 499 317 q 506 519 499 453 l 511 615 q 508 692 510 671 q 500 714 506 714 q 483 689 494 714 q 451 604 472 664 q 390 457 429 549 l 354 368 q 317 267 329 318 q 219 -11 258 115 l 207 -50 q 167 -106 186 -106 q 135 -86 153 -106 m 661 1025 q 644 1053 651 1033 q 640 1079 638 1072 q 678 1144 653 1122 q 687 1153 681 1147 q 697 1161 693 1160 q 717 1168 708 1168 q 760 1135 740 1168 q 768 1103 768 1117 q 761 1077 768 1090 q 736 1043 754 1064 q 692 1011 713 1011 q 661 1025 678 1011 z "},"Ŋ":{"ha":786,"x_min":133,"x_max":960,"o":"m 496 -217 q 428 -240 468 -240 q 378 -229 401 -240 q 338 -197 354 -218 q 333 -176 333 -185 q 358 -151 333 -151 q 383 -158 369 -151 q 413 -161 397 -161 q 481 -132 461 -161 q 567 31 503 -107 l 582 63 q 535 122 557 82 q 501 213 513 161 q 486 315 492 260 q 476 472 481 369 q 469 646 475 499 q 469 672 469 664 q 468 681 468 679 q 388 481 463 679 q 290 215 313 282 q 224 22 232 67 q 215 -12 225 6 q 192 -32 204 -31 q 156 -15 175 -35 q 133 19 136 6 q 199 241 143 75 q 318 565 256 407 q 389 739 357 657 q 421 826 421 821 q 434 833 425 828 q 449 842 443 839 q 460 849 456 843 q 467 857 465 856 l 467 860 q 472 872 467 867 q 483 876 476 876 q 511 870 500 879 q 538 836 522 861 q 552 799 549 818 q 558 714 556 779 q 563 542 560 649 q 575 310 564 504 l 578 274 q 578 261 576 272 q 582 244 581 250 q 588 214 588 222 q 596 193 593 204 q 601 182 599 182 q 613 195 604 185 q 632 221 622 206 q 651 247 643 232 q 660 268 658 263 q 714 368 669 276 q 722 384 718 378 q 726 394 725 390 q 741 434 731 414 q 756 464 751 454 q 792 557 767 492 q 817 633 817 622 q 828 658 821 638 q 840 688 835 679 q 845 722 839 699 q 860 767 851 744 q 885 853 876 832 q 903 875 893 875 q 922 865 910 875 q 950 839 935 854 q 960 810 960 818 l 957 789 l 910 653 q 845 467 889 583 q 788 328 801 350 l 760 272 q 750 242 757 257 q 740 222 743 226 l 717 189 q 701 163 713 176 l 703 163 l 694 128 q 668 71 688 117 l 649 28 q 643 17 647 24 q 639 8 639 11 q 625 -30 639 3 q 590 -99 611 -62 q 547 -163 579 -124 q 496 -217 515 -203 z "},"Ñ":{"ha":786,"x_min":114,"x_max":1019,"o":"m 135 -86 q 114 -49 114 -65 q 119 -22 114 -39 q 126 6 124 -4 q 160 99 139 54 q 182 157 171 125 q 200 226 193 189 q 249 351 228 290 q 276 428 271 411 q 307 496 278 435 q 350 583 331 542 q 385 686 357 603 q 419 786 404 749 q 458 861 435 824 q 518 903 483 903 q 548 892 535 903 q 568 861 561 882 q 585 797 579 835 q 594 668 592 758 q 596 586 596 640 l 596 454 q 599 338 596 383 q 611 258 601 292 q 642 120 622 194 q 672 46 661 46 q 728 145 689 46 q 826 486 767 244 q 846 567 835 514 q 863 669 857 619 q 892 788 878 726 q 907 856 907 850 q 908 869 907 863 q 907 886 908 876 q 919 904 913 886 q 925 938 925 922 q 944 997 925 978 q 965 1007 949 1007 q 998 998 982 1007 q 1019 976 1014 989 q 981 764 1024 947 q 961 664 981 747 q 942 574 949 617 q 928 504 936 533 q 915 476 921 475 q 769 29 858 232 q 681 -67 729 -67 q 613 -22 647 -67 q 560 76 575 26 q 522 251 546 126 q 499 403 499 317 q 506 519 499 453 l 511 615 q 508 692 510 671 q 500 714 506 714 q 483 689 494 714 q 451 604 472 664 q 390 457 429 549 l 354 368 q 317 267 329 318 q 219 -11 258 115 l 207 -50 q 167 -106 186 -106 q 135 -86 153 -106 m 758 1013 q 721 1019 736 1013 q 691 1037 706 1026 q 669 1051 676 1047 q 650 1067 664 1054 q 622 1090 636 1081 q 599 1100 608 1100 q 582 1094 589 1100 q 565 1076 575 1089 q 552 1060 560 1068 q 535 1051 544 1053 q 526 1033 533 1043 q 517 1031 519 1024 q 496 1044 504 1035 q 489 1061 488 1053 q 513 1110 490 1079 q 576 1161 535 1140 q 596 1164 588 1164 q 637 1156 615 1164 q 675 1133 658 1149 q 699 1110 683 1125 q 726 1090 715 1096 q 746 1083 736 1083 q 767 1089 750 1083 q 815 1111 782 1093 q 865 1138 843 1129 q 890 1131 879 1143 q 899 1104 901 1118 q 889 1083 899 1097 q 868 1064 879 1069 q 789 1022 810 1031 q 758 1013 768 1013 z "},"O":{"ha":689,"x_min":160,"x_max":817,"o":"m 243 -28 q 179 31 194 10 q 161 85 164 53 q 160 110 160 92 q 167 207 160 149 q 181 300 174 265 q 187 317 186 306 q 186 331 188 328 q 193 358 186 335 q 217 444 210 410 q 290 626 254 558 q 371 754 326 694 q 465 844 431 815 q 540 892 499 872 q 618 924 594 924 q 631 921 622 924 q 747 858 708 904 q 804 714 786 811 q 817 586 817 629 q 792 446 817 517 q 701 268 767 375 q 524 32 626 121 q 332 -57 422 -57 q 243 -28 283 -57 m 332 13 q 422 49 379 18 q 526 153 464 81 q 603 247 581 215 q 644 324 626 279 q 689 460 663 368 q 709 551 704 518 q 714 629 714 583 l 713 719 q 703 769 711 743 q 683 807 694 794 q 629 831 663 831 q 589 821 608 831 q 511 756 563 810 q 419 647 460 703 q 378 574 378 590 q 376 565 378 572 q 371 553 375 558 q 318 451 347 528 q 267 286 289 375 q 242 138 244 197 l 239 90 q 241 71 239 78 q 250 55 243 64 q 263 36 257 46 q 285 18 269 25 q 317 11 300 11 q 332 13 326 11 z "},"Ó":{"ha":689,"x_min":160,"x_max":840,"o":"m 243 -28 q 179 31 194 10 q 161 85 164 53 q 160 110 160 92 q 167 207 160 149 q 181 300 174 265 q 187 317 186 306 q 186 331 188 328 q 193 358 186 335 q 217 444 210 410 q 290 626 254 558 q 371 754 326 694 q 465 844 431 815 q 540 892 499 872 q 618 924 594 924 q 631 921 622 924 q 747 858 708 904 q 804 714 786 811 q 817 586 817 629 q 792 446 817 517 q 701 268 767 375 q 524 32 626 121 q 332 -57 422 -57 q 243 -28 283 -57 m 332 13 q 422 49 379 18 q 526 153 464 81 q 603 247 581 215 q 644 324 626 279 q 689 460 663 368 q 709 551 704 518 q 714 629 714 583 l 713 719 q 703 769 711 743 q 683 807 694 794 q 629 831 663 831 q 589 821 608 831 q 511 756 563 810 q 419 647 460 703 q 378 574 378 590 q 376 565 378 572 q 371 553 375 558 q 318 451 347 528 q 267 286 289 375 q 242 138 244 197 l 239 90 q 241 71 239 78 q 250 55 243 64 q 263 36 257 46 q 285 18 269 25 q 317 11 300 11 q 332 13 326 11 m 664 992 q 649 1019 654 1000 q 646 1046 644 1038 q 706 1119 649 1058 q 782 1188 763 1181 q 794 1192 789 1192 q 839 1149 814 1192 q 826 1116 844 1136 q 768 1064 807 1096 q 710 1010 721 1025 q 696 990 703 997 q 683 982 689 982 q 664 992 679 982 z "},"Ŏ":{"ha":689,"x_min":160,"x_max":894,"o":"m 243 -28 q 179 31 194 10 q 161 85 164 53 q 160 110 160 92 q 167 207 160 149 q 181 300 174 265 q 187 317 186 306 q 186 331 188 328 q 193 358 186 335 q 217 444 210 410 q 290 626 254 558 q 371 754 326 694 q 465 844 431 815 q 540 892 499 872 q 618 924 594 924 q 631 921 622 924 q 747 858 708 904 q 804 714 786 811 q 817 586 817 629 q 792 446 817 517 q 701 268 767 375 q 524 32 626 121 q 332 -57 422 -57 q 243 -28 283 -57 m 332 13 q 422 49 379 18 q 526 153 464 81 q 603 247 581 215 q 644 324 626 279 q 689 460 663 368 q 709 551 704 518 q 714 629 714 583 l 713 719 q 703 769 711 743 q 683 807 694 794 q 629 831 663 831 q 589 821 608 831 q 511 756 563 810 q 419 647 460 703 q 378 574 378 590 q 376 565 378 572 q 371 553 375 558 q 318 451 347 528 q 267 286 289 375 q 242 138 244 197 l 239 90 q 241 71 239 78 q 250 55 243 64 q 263 36 257 46 q 285 18 269 25 q 317 11 300 11 q 332 13 326 11 m 719 974 q 619 1006 656 974 q 583 1092 583 1039 q 586 1122 583 1103 q 604 1161 592 1147 q 631 1175 617 1175 q 647 1168 640 1175 q 653 1149 653 1161 l 650 1131 q 647 1107 647 1117 q 666 1055 647 1076 q 729 1035 685 1033 q 783 1067 753 1036 q 831 1128 814 1099 q 868 1161 849 1161 q 890 1144 882 1161 q 893 1114 897 1128 q 863 1059 888 1093 q 800 999 838 1025 q 719 974 763 974 z "},"Ô":{"ha":689,"x_min":160,"x_max":889,"o":"m 243 -28 q 179 31 194 10 q 161 85 164 53 q 160 110 160 92 q 167 207 160 149 q 181 300 174 265 q 187 317 186 306 q 186 331 188 328 q 193 358 186 335 q 217 444 210 410 q 290 626 254 558 q 371 754 326 694 q 465 844 431 815 q 540 892 499 872 q 618 924 594 924 q 631 921 622 924 q 747 858 708 904 q 804 714 786 811 q 817 586 817 629 q 792 446 817 517 q 701 268 767 375 q 524 32 626 121 q 332 -57 422 -57 q 243 -28 283 -57 m 332 13 q 422 49 379 18 q 526 153 464 81 q 603 247 581 215 q 644 324 626 279 q 689 460 663 368 q 709 551 704 518 q 714 629 714 583 l 713 719 q 703 769 711 743 q 683 807 694 794 q 629 831 663 831 q 589 821 608 831 q 511 756 563 810 q 419 647 460 703 q 378 574 378 590 q 376 565 378 572 q 371 553 375 558 q 318 451 347 528 q 267 286 289 375 q 242 138 244 197 l 239 90 q 241 71 239 78 q 250 55 243 64 q 263 36 257 46 q 285 18 269 25 q 317 11 300 11 q 332 13 326 11 m 649 1014 q 611 994 629 994 q 594 1002 600 994 q 588 1021 588 1010 q 599 1051 588 1036 q 656 1106 610 1065 q 729 1160 703 1146 q 751 1169 740 1169 q 772 1157 764 1169 q 831 1102 794 1139 q 882 1049 867 1065 q 889 1025 889 1040 q 882 1002 889 1013 q 864 992 875 992 q 824 1018 844 992 q 749 1092 796 1051 q 687 1047 719 1075 q 649 1014 654 1018 z "},"Ȍ":{"ha":689,"x_min":160,"x_max":817,"o":"m 243 -28 q 179 31 194 10 q 161 85 164 53 q 160 110 160 92 q 167 207 160 149 q 181 300 174 265 q 187 317 186 306 q 186 331 188 328 q 193 358 186 335 q 217 444 210 410 q 290 626 254 558 q 371 754 326 694 q 465 844 431 815 q 540 892 499 872 q 618 924 594 924 q 631 921 622 924 q 747 858 708 904 q 804 714 786 811 q 817 586 817 629 q 792 446 817 517 q 701 268 767 375 q 524 32 626 121 q 332 -57 422 -57 q 243 -28 283 -57 m 332 13 q 422 49 379 18 q 526 153 464 81 q 603 247 581 215 q 644 324 626 279 q 689 460 663 368 q 709 551 704 518 q 714 629 714 583 l 713 719 q 703 769 711 743 q 683 807 694 794 q 629 831 663 831 q 589 821 608 831 q 511 756 563 810 q 419 647 460 703 q 378 574 378 590 q 376 565 378 572 q 371 553 375 558 q 318 451 347 528 q 267 286 289 375 q 242 138 244 197 l 239 90 q 241 71 239 78 q 250 55 243 64 q 263 36 257 46 q 285 18 269 25 q 317 11 300 11 q 332 13 326 11 m 597 999 q 583 994 589 994 q 574 1001 578 994 q 563 1024 569 1007 q 525 1078 558 1033 q 485 1135 497 1115 q 479 1164 472 1156 q 522 1196 501 1196 q 533 1192 529 1196 q 587 1118 549 1182 q 625 1044 625 1054 q 617 1022 626 1039 q 597 999 608 1006 m 763 999 q 747 994 753 994 q 738 1001 742 994 q 726 1024 733 1007 q 689 1078 722 1033 q 649 1135 661 1115 q 643 1164 636 1156 q 697 1192 679 1204 q 751 1117 714 1181 q 789 1044 789 1054 q 781 1022 790 1039 q 763 999 772 1006 z "},"Ö":{"ha":689,"x_min":160,"x_max":881,"o":"m 243 -28 q 179 31 194 10 q 161 85 164 53 q 160 110 160 92 q 167 207 160 149 q 181 300 174 265 q 187 317 186 306 q 186 331 188 328 q 193 358 186 335 q 217 444 210 410 q 290 626 254 558 q 371 754 326 694 q 465 844 431 815 q 540 892 499 872 q 618 924 594 924 q 631 921 622 924 q 747 858 708 904 q 804 714 786 811 q 817 586 817 629 q 792 446 817 517 q 701 268 767 375 q 524 32 626 121 q 332 -57 422 -57 q 243 -28 283 -57 m 332 13 q 422 49 379 18 q 526 153 464 81 q 603 247 581 215 q 644 324 626 279 q 689 460 663 368 q 709 551 704 518 q 714 629 714 583 l 713 719 q 703 769 711 743 q 683 807 694 794 q 629 831 663 831 q 589 821 608 831 q 511 756 563 810 q 419 647 460 703 q 378 574 378 590 q 376 565 378 572 q 371 553 375 558 q 318 451 347 528 q 267 286 289 375 q 242 138 244 197 l 239 90 q 241 71 239 78 q 250 55 243 64 q 263 36 257 46 q 285 18 269 25 q 317 11 300 11 q 332 13 326 11 m 611 1042 q 594 1065 601 1051 q 590 1086 588 1079 q 618 1142 603 1129 q 627 1151 621 1144 q 638 1158 633 1157 q 657 1165 646 1165 q 692 1132 681 1165 q 701 1106 701 1115 q 696 1086 701 1096 q 678 1060 690 1076 q 633 1028 654 1028 q 611 1042 621 1028 m 790 1042 q 774 1065 781 1051 q 769 1086 767 1079 q 797 1142 782 1129 q 807 1151 800 1144 q 818 1158 814 1157 q 838 1165 826 1165 q 871 1132 860 1165 q 881 1106 881 1115 q 875 1086 881 1096 q 857 1060 869 1076 q 814 1028 833 1028 q 790 1042 800 1028 z "},"Ọ":{"ha":689,"x_min":160,"x_max":817,"o":"m 243 -28 q 179 31 194 10 q 161 85 164 53 q 160 110 160 92 q 167 207 160 149 q 181 300 174 265 q 187 317 186 306 q 186 331 188 328 q 193 358 186 335 q 217 444 210 410 q 290 626 254 558 q 371 754 326 694 q 465 844 431 815 q 540 892 499 872 q 618 924 594 924 q 631 921 622 924 q 747 858 708 904 q 804 714 786 811 q 817 586 817 629 q 792 446 817 517 q 701 268 767 375 q 524 32 626 121 q 332 -57 422 -57 q 243 -28 283 -57 m 332 13 q 422 49 379 18 q 526 153 464 81 q 603 247 581 215 q 644 324 626 279 q 689 460 663 368 q 709 551 704 518 q 714 629 714 583 l 713 719 q 703 769 711 743 q 683 807 694 794 q 629 831 663 831 q 589 821 608 831 q 511 756 563 810 q 419 647 460 703 q 378 574 378 590 q 376 565 378 572 q 371 553 375 558 q 318 451 347 528 q 267 286 289 375 q 242 138 244 197 l 239 90 q 241 71 239 78 q 250 55 243 64 q 263 36 257 46 q 285 18 269 25 q 317 11 300 11 q 332 13 326 11 m 233 -237 q 218 -215 224 -228 q 214 -196 213 -203 q 239 -143 226 -153 q 248 -134 242 -140 q 258 -126 254 -128 q 278 -119 269 -119 q 308 -151 299 -119 q 318 -178 318 -165 q 297 -219 318 -192 q 254 -251 274 -251 q 233 -237 243 -251 z "},"Ò":{"ha":689,"x_min":160,"x_max":817,"o":"m 243 -28 q 179 31 194 10 q 161 85 164 53 q 160 110 160 92 q 167 207 160 149 q 181 300 174 265 q 187 317 186 306 q 186 331 188 328 q 193 358 186 335 q 217 444 210 410 q 290 626 254 558 q 371 754 326 694 q 465 844 431 815 q 540 892 499 872 q 618 924 594 924 q 631 921 622 924 q 747 858 708 904 q 804 714 786 811 q 817 586 817 629 q 792 446 817 517 q 701 268 767 375 q 524 32 626 121 q 332 -57 422 -57 q 243 -28 283 -57 m 332 13 q 422 49 379 18 q 526 153 464 81 q 603 247 581 215 q 644 324 626 279 q 689 460 663 368 q 709 551 704 518 q 714 629 714 583 l 713 719 q 703 769 711 743 q 683 807 694 794 q 629 831 663 831 q 589 821 608 831 q 511 756 563 810 q 419 647 460 703 q 378 574 378 590 q 376 565 378 572 q 371 553 375 558 q 318 451 347 528 q 267 286 289 375 q 242 138 244 197 l 239 90 q 241 71 239 78 q 250 55 243 64 q 263 36 257 46 q 285 18 269 25 q 317 11 300 11 q 332 13 326 11 m 760 988 q 742 979 747 979 q 732 986 736 979 q 722 1010 728 993 q 697 1050 719 1014 q 659 1115 672 1090 q 646 1157 646 1139 q 650 1174 646 1168 q 690 1199 678 1199 q 708 1190 701 1199 q 740 1148 721 1183 q 773 1074 758 1113 q 788 1024 788 1035 q 780 1003 789 1017 q 760 988 771 990 z "},"Ő":{"ha":689,"x_min":160,"x_max":925,"o":"m 243 -28 q 179 31 194 10 q 161 85 164 53 q 160 110 160 92 q 167 207 160 149 q 181 300 174 265 q 187 317 186 306 q 186 331 188 328 q 193 358 186 335 q 217 444 210 410 q 290 626 254 558 q 371 754 326 694 q 465 844 431 815 q 540 892 499 872 q 618 924 594 924 q 631 921 622 924 q 747 858 708 904 q 804 714 786 811 q 817 586 817 629 q 792 446 817 517 q 701 268 767 375 q 524 32 626 121 q 332 -57 422 -57 q 243 -28 283 -57 m 332 13 q 422 49 379 18 q 526 153 464 81 q 603 247 581 215 q 644 324 626 279 q 689 460 663 368 q 709 551 704 518 q 714 629 714 583 l 713 719 q 703 769 711 743 q 683 807 694 794 q 629 831 663 831 q 589 821 608 831 q 511 756 563 810 q 419 647 460 703 q 378 574 378 590 q 376 565 378 572 q 371 553 375 558 q 318 451 347 528 q 267 286 289 375 q 242 138 244 197 l 239 90 q 241 71 239 78 q 250 55 243 64 q 263 36 257 46 q 285 18 269 25 q 317 11 300 11 q 332 13 326 11 m 581 997 q 567 1024 572 1006 q 564 1049 563 1043 q 617 1113 567 1058 q 685 1174 667 1167 q 707 1169 696 1179 q 732 1135 718 1158 q 722 1108 738 1125 q 671 1061 706 1092 q 622 1015 632 1028 q 597 990 607 990 q 581 997 592 990 m 774 997 q 759 1024 764 1006 q 756 1049 754 1043 q 809 1113 758 1058 q 876 1174 860 1167 q 901 1168 889 1179 q 924 1135 914 1157 q 913 1108 929 1125 q 863 1061 897 1092 q 814 1015 824 1028 q 789 990 799 990 q 774 997 783 990 z "},"Ȏ":{"ha":689,"x_min":160,"x_max":851,"o":"m 243 -28 q 179 31 194 10 q 161 85 164 53 q 160 110 160 92 q 167 207 160 149 q 181 300 174 265 q 187 317 186 306 q 186 331 188 328 q 193 358 186 335 q 217 444 210 410 q 290 626 254 558 q 371 754 326 694 q 465 844 431 815 q 540 892 499 872 q 618 924 594 924 q 631 921 622 924 q 747 858 708 904 q 804 714 786 811 q 817 586 817 629 q 792 446 817 517 q 701 268 767 375 q 524 32 626 121 q 332 -57 422 -57 q 243 -28 283 -57 m 332 13 q 422 49 379 18 q 526 153 464 81 q 603 247 581 215 q 644 324 626 279 q 689 460 663 368 q 709 551 704 518 q 714 629 714 583 l 713 719 q 703 769 711 743 q 683 807 694 794 q 629 831 663 831 q 589 821 608 831 q 511 756 563 810 q 419 647 460 703 q 378 574 378 590 q 376 565 378 572 q 371 553 375 558 q 318 451 347 528 q 267 286 289 375 q 242 138 244 197 l 239 90 q 241 71 239 78 q 250 55 243 64 q 263 36 257 46 q 285 18 269 25 q 317 11 300 11 q 332 13 326 11 m 785 1014 q 788 1038 788 1028 q 769 1090 788 1068 q 706 1110 750 1111 q 651 1077 682 1108 q 604 1017 621 1046 q 567 983 586 983 q 545 1000 553 983 q 542 1031 538 1017 q 574 1088 547 1053 q 640 1149 600 1124 q 726 1171 681 1175 q 818 1135 785 1167 q 851 1053 851 1103 q 849 1022 851 1042 q 831 983 843 997 q 804 969 818 969 q 788 976 794 969 q 782 996 782 983 l 785 1014 z "},"Ō":{"ha":689,"x_min":160,"x_max":907,"o":"m 243 -28 q 179 31 194 10 q 161 85 164 53 q 160 110 160 92 q 167 207 160 149 q 181 300 174 265 q 187 317 186 306 q 186 331 188 328 q 193 358 186 335 q 217 444 210 410 q 290 626 254 558 q 371 754 326 694 q 465 844 431 815 q 540 892 499 872 q 618 924 594 924 q 631 921 622 924 q 747 858 708 904 q 804 714 786 811 q 817 586 817 629 q 792 446 817 517 q 701 268 767 375 q 524 32 626 121 q 332 -57 422 -57 q 243 -28 283 -57 m 332 13 q 422 49 379 18 q 526 153 464 81 q 603 247 581 215 q 644 324 626 279 q 689 460 663 368 q 709 551 704 518 q 714 629 714 583 l 713 719 q 703 769 711 743 q 683 807 694 794 q 629 831 663 831 q 589 821 608 831 q 511 756 563 810 q 419 647 460 703 q 378 574 378 590 q 376 565 378 572 q 371 553 375 558 q 318 451 347 528 q 267 286 289 375 q 242 138 244 197 l 239 90 q 241 71 239 78 q 250 55 243 64 q 263 36 257 46 q 285 18 269 25 q 317 11 300 11 q 332 13 326 11 m 618 1058 q 574 1064 590 1058 q 547 1067 554 1064 q 533 1081 539 1071 q 526 1099 526 1094 q 540 1113 526 1108 q 590 1122 554 1118 q 793 1138 689 1138 q 856 1135 832 1138 q 893 1121 879 1132 q 907 1090 907 1106 q 871 1068 907 1064 q 821 1065 853 1067 q 760 1064 789 1064 l 721 1063 q 618 1058 629 1058 z "},"Ǫ":{"ha":689,"x_min":154,"x_max":817,"o":"m 243 -28 q 179 31 194 10 q 161 85 164 53 q 160 110 160 92 q 167 207 160 149 q 181 300 174 265 q 187 317 186 306 q 186 331 188 328 q 193 358 186 335 q 217 444 210 410 q 290 626 254 558 q 371 754 326 694 q 465 844 431 815 q 540 892 499 872 q 618 924 594 924 q 631 921 622 924 q 747 858 708 904 q 804 714 786 811 q 817 586 817 629 q 792 446 817 517 q 701 268 767 375 q 524 32 626 121 q 332 -57 422 -57 q 243 -28 283 -57 m 332 13 q 422 49 379 18 q 526 153 464 81 q 603 247 581 215 q 644 324 626 279 q 689 460 663 368 q 709 551 704 518 q 714 629 714 583 l 713 719 q 703 769 711 743 q 683 807 694 794 q 629 831 663 831 q 589 821 608 831 q 511 756 563 810 q 419 647 460 703 q 378 574 378 590 q 376 565 378 572 q 371 553 375 558 q 318 451 347 528 q 267 286 289 375 q 242 138 244 197 l 239 90 q 241 71 239 78 q 250 55 243 64 q 263 36 257 46 q 285 18 269 25 q 317 11 300 11 q 332 13 326 11 m 229 -297 q 176 -260 197 -287 q 154 -200 154 -233 q 213 -94 154 -154 q 342 11 272 -35 l 383 -31 q 310 -85 351 -50 q 243 -150 268 -121 q 213 -211 213 -187 q 218 -231 213 -224 q 227 -237 221 -236 q 243 -239 233 -239 q 288 -224 267 -236 q 317 -210 310 -212 l 354 -189 q 375 -183 365 -183 q 389 -190 383 -183 q 394 -204 394 -196 q 388 -226 394 -215 q 367 -243 381 -237 l 339 -256 q 229 -297 261 -293 z "},"Ø":{"ha":689,"x_min":140,"x_max":894,"o":"m 888 931 q 894 908 894 917 q 886 878 894 900 q 869 842 879 856 q 817 785 858 828 l 793 761 q 804 714 801 731 q 817 586 817 629 q 792 446 817 517 q 701 268 767 375 q 524 32 626 121 q 332 -57 422 -57 q 243 -28 283 -57 l 229 -17 q 214 -47 217 -39 q 199 -87 204 -78 q 183 -99 194 -96 q 151 -85 163 -97 q 140 -49 140 -72 q 171 46 140 -12 q 161 85 164 57 q 160 110 160 92 q 167 207 160 149 q 181 300 174 265 q 187 317 186 306 q 186 331 188 328 q 193 358 186 335 q 217 444 210 410 q 290 626 254 558 q 371 754 326 694 q 465 844 431 815 q 540 892 499 872 q 618 924 594 924 q 631 921 622 924 q 703 894 674 911 q 754 849 733 878 q 822 944 819 936 q 840 960 826 960 l 851 957 q 863 960 854 960 q 874 958 871 960 q 877 950 874 957 q 888 931 881 943 m 378 574 q 376 565 378 572 q 371 553 375 558 q 296 390 336 518 q 244 163 256 261 q 406 399 314 267 q 506 538 499 531 l 507 538 q 519 545 513 538 q 528 561 525 553 q 540 585 532 574 q 556 597 549 596 q 564 611 557 601 q 572 625 571 621 q 578 634 572 628 q 585 644 583 640 q 699 781 625 685 q 683 807 693 794 q 629 831 663 831 q 589 821 608 831 q 511 756 563 810 q 419 647 460 703 q 378 574 378 590 m 689 460 q 708 547 704 515 q 713 625 713 579 l 713 669 q 705 660 710 665 q 696 646 700 654 q 638 583 678 629 q 596 531 597 536 q 592 522 594 528 q 581 513 589 515 l 579 513 q 573 507 576 513 q 569 500 569 501 q 526 436 569 489 q 263 38 346 172 l 263 36 q 285 18 269 25 q 317 11 300 11 q 332 13 326 11 q 422 49 379 18 q 526 153 464 81 q 603 247 581 215 q 644 324 626 279 q 689 460 663 368 z "},"Ǿ":{"ha":689,"x_min":140,"x_max":894,"o":"m 888 931 q 894 908 894 917 q 886 878 894 900 q 869 842 879 856 q 817 785 858 828 l 793 761 q 804 714 801 731 q 817 586 817 629 q 792 446 817 517 q 701 268 767 375 q 524 32 626 121 q 332 -57 422 -57 q 243 -28 283 -57 l 229 -17 q 214 -47 217 -39 q 199 -87 204 -78 q 183 -99 194 -96 q 151 -85 163 -97 q 140 -49 140 -72 q 171 46 140 -12 q 161 85 164 57 q 160 110 160 92 q 167 207 160 149 q 181 300 174 265 q 187 317 186 306 q 186 331 188 328 q 193 358 186 335 q 217 444 210 410 q 290 626 254 558 q 371 754 326 694 q 465 844 431 815 q 540 892 499 872 q 618 924 594 924 q 631 921 622 924 q 703 894 674 911 q 754 849 733 878 q 822 944 819 936 q 840 960 826 960 l 851 957 q 863 960 854 960 q 874 958 871 960 q 877 950 874 957 q 888 931 881 943 m 378 574 q 376 565 378 572 q 371 553 375 558 q 296 390 336 518 q 244 163 256 261 q 406 399 314 267 q 506 538 499 531 l 507 538 q 519 545 513 538 q 528 561 525 553 q 540 585 532 574 q 556 597 549 596 q 564 611 557 601 q 572 625 571 621 q 578 634 572 628 q 585 644 583 640 q 699 781 625 685 q 683 807 693 794 q 629 831 663 831 q 589 821 608 831 q 511 756 563 810 q 419 647 460 703 q 378 574 378 590 m 689 460 q 708 547 704 515 q 713 625 713 579 l 713 669 q 705 660 710 665 q 696 646 700 654 q 638 583 678 629 q 596 531 597 536 q 592 522 594 528 q 581 513 589 515 l 579 513 q 573 507 576 513 q 569 500 569 501 q 526 436 569 489 q 263 38 346 172 l 263 36 q 285 18 269 25 q 317 11 300 11 q 332 13 326 11 q 422 49 379 18 q 526 153 464 81 q 603 247 581 215 q 644 324 626 279 q 689 460 663 368 m 663 992 q 648 1019 653 1000 q 644 1046 643 1038 q 704 1119 647 1058 q 781 1188 761 1181 q 793 1192 788 1192 q 838 1149 813 1192 q 824 1116 843 1136 q 767 1064 806 1096 q 708 1010 719 1025 q 694 990 701 997 q 682 982 688 982 q 663 992 678 982 z "},"Õ":{"ha":689,"x_min":160,"x_max":926,"o":"m 243 -28 q 179 31 194 10 q 161 85 164 53 q 160 110 160 92 q 167 207 160 149 q 181 300 174 265 q 187 317 186 306 q 186 331 188 328 q 193 358 186 335 q 217 444 210 410 q 290 626 254 558 q 371 754 326 694 q 465 844 431 815 q 540 892 499 872 q 618 924 594 924 q 631 921 622 924 q 747 858 708 904 q 804 714 786 811 q 817 586 817 629 q 792 446 817 517 q 701 268 767 375 q 524 32 626 121 q 332 -57 422 -57 q 243 -28 283 -57 m 332 13 q 422 49 379 18 q 526 153 464 81 q 603 247 581 215 q 644 324 626 279 q 689 460 663 368 q 709 551 704 518 q 714 629 714 583 l 713 719 q 703 769 711 743 q 683 807 694 794 q 629 831 663 831 q 589 821 608 831 q 511 756 563 810 q 419 647 460 703 q 378 574 378 590 q 376 565 378 572 q 371 553 375 558 q 318 451 347 528 q 267 286 289 375 q 242 138 244 197 l 239 90 q 241 71 239 78 q 250 55 243 64 q 263 36 257 46 q 285 18 269 25 q 317 11 300 11 q 332 13 326 11 m 786 1013 q 749 1019 764 1013 q 719 1037 733 1026 q 697 1051 704 1047 q 678 1067 692 1054 q 650 1090 664 1081 q 626 1100 636 1100 q 610 1094 617 1100 q 593 1076 603 1089 q 580 1060 588 1068 q 563 1051 572 1053 q 554 1033 561 1043 q 544 1031 547 1024 q 524 1044 532 1035 q 517 1061 515 1053 q 540 1110 518 1079 q 604 1161 563 1140 q 624 1164 615 1164 q 665 1156 643 1164 q 703 1133 686 1149 q 727 1110 711 1125 q 753 1090 743 1096 q 774 1083 764 1083 q 794 1089 778 1083 q 843 1111 810 1093 q 893 1138 871 1129 q 918 1131 907 1143 q 926 1104 929 1118 q 917 1083 926 1097 q 896 1064 907 1069 q 817 1022 838 1031 q 786 1013 796 1013 z "},"Œ":{"ha":1089,"x_min":118,"x_max":1258,"o":"m 364 -67 q 332 -71 349 -71 q 249 -51 293 -71 q 169 -1 204 -32 q 138 69 157 19 q 122 125 118 118 q 128 141 126 132 q 128 157 129 150 q 125 174 125 165 q 160 316 125 217 q 251 542 194 415 q 345 701 285 615 q 468 853 406 788 q 569 936 531 919 q 597 940 582 940 q 642 935 617 940 q 679 928 668 929 q 744 892 714 922 q 806 819 775 863 l 810 811 l 821 825 q 842 846 817 833 q 908 869 868 858 q 985 883 949 881 q 1022 892 993 889 q 1088 894 1051 894 q 1157 892 1113 894 q 1195 887 1179 892 q 1224 876 1211 882 q 1242 867 1236 869 q 1254 844 1250 858 q 1258 825 1258 829 q 1227 817 1258 818 q 1135 815 1196 815 q 1011 803 1083 815 q 974 799 985 799 q 943 792 957 793 q 925 790 929 790 q 876 719 919 790 q 832 638 833 647 q 824 611 832 625 q 794 568 815 597 q 776 529 776 543 q 785 515 776 518 q 890 528 828 522 q 981 535 951 535 q 1006 539 996 539 q 1042 529 1025 539 q 1065 520 1057 526 q 1072 507 1072 514 q 1061 493 1072 497 q 976 461 1049 481 q 826 426 904 442 q 738 413 747 410 q 731 422 733 424 q 719 392 729 419 q 694 331 710 365 q 657 233 671 278 q 632 122 643 188 q 624 79 624 89 q 635 45 624 60 q 676 18 647 31 q 732 14 700 14 q 857 31 792 14 q 902 54 879 43 q 933 69 925 65 q 955 74 943 71 q 975 76 967 76 q 1003 92 986 92 q 1026 69 1007 92 q 1044 42 1046 47 q 1020 16 1044 28 q 914 -28 996 4 q 833 -60 856 -53 q 765 -67 810 -67 q 659 -59 700 -67 q 586 -26 618 -51 q 554 7 564 -11 q 525 -10 539 0 q 364 -67 435 -65 m 299 6 q 378 15 322 1 q 447 39 433 28 q 465 44 451 40 q 489 49 479 49 q 536 71 493 51 q 557 208 535 121 q 573 270 564 244 q 589 296 582 296 l 599 347 q 604 370 600 356 q 611 392 608 385 q 619 404 614 399 q 636 442 625 408 q 638 454 636 444 q 644 476 639 464 q 665 522 665 511 q 676 539 667 526 q 692 568 686 551 l 721 621 q 731 663 721 639 q 738 706 738 683 q 707 805 738 760 q 629 850 676 850 q 615 849 621 850 q 563 822 586 843 q 488 735 540 801 q 288 413 346 561 q 238 254 257 329 q 215 136 219 179 q 219 107 219 119 q 214 94 219 94 q 230 53 217 78 q 257 14 243 28 q 288 4 267 4 l 299 6 z "},"P":{"ha":644,"x_min":114,"x_max":811,"o":"m 153 -67 q 138 -62 146 -67 q 125 -49 131 -57 q 114 -24 114 -40 q 161 144 114 8 q 182 219 171 183 q 192 257 192 244 q 195 283 192 268 q 199 303 199 297 q 229 360 215 303 q 239 395 235 381 q 244 418 243 410 q 251 431 247 422 q 257 446 254 439 q 283 510 268 479 q 323 641 300 572 q 361 743 346 710 l 378 785 q 384 801 379 789 q 389 818 389 813 q 385 826 389 824 q 378 840 378 831 q 411 888 378 858 q 440 915 428 908 q 472 921 451 921 l 517 918 q 606 917 533 917 q 642 903 621 910 q 683 883 683 889 q 688 874 683 876 q 703 869 693 871 q 747 838 717 869 q 792 774 776 807 q 806 737 801 751 q 811 703 811 722 q 808 669 811 682 q 801 626 806 647 q 792 600 797 606 q 769 571 769 583 q 734 513 769 560 q 667 435 699 465 q 581 361 631 393 q 351 290 417 288 q 297 278 307 283 q 282 256 288 274 q 269 218 275 238 q 263 193 263 199 q 226 90 254 178 q 188 -40 197 3 q 175 -62 182 -58 q 153 -67 168 -67 m 325 364 q 343 361 328 361 q 391 367 361 361 q 449 383 421 372 q 560 438 499 400 q 605 475 578 450 q 657 532 632 500 q 690 597 665 546 q 712 647 701 617 q 722 701 722 678 q 721 718 722 713 q 684 785 714 754 q 615 828 654 817 q 563 833 586 833 q 521 829 544 833 q 488 810 499 822 q 461 757 478 797 q 403 624 429 696 q 353 469 378 531 q 324 399 328 408 l 324 393 q 322 376 324 385 q 325 364 321 368 z "},"Þ":{"ha":656,"x_min":106,"x_max":771,"o":"m 163 -89 q 142 -82 156 -86 q 118 -72 128 -78 q 108 -54 108 -65 q 108 -33 106 -49 q 122 21 111 -18 l 132 54 q 211 300 207 311 q 222 331 214 311 q 233 357 229 351 q 249 410 236 378 q 274 454 261 443 q 297 522 274 469 q 325 575 321 575 q 328 585 325 576 q 343 610 332 594 q 346 628 343 617 q 358 646 349 639 q 363 663 360 650 q 365 679 365 675 q 361 685 364 683 q 358 701 358 692 q 383 722 358 721 q 403 746 392 722 q 408 753 406 751 q 481 963 481 942 q 490 979 481 974 q 513 985 500 985 q 535 992 519 992 l 557 969 q 569 949 567 960 q 572 918 572 939 q 567 882 572 899 q 539 821 561 865 l 518 776 l 564 785 q 617 782 588 785 q 664 775 646 779 q 742 713 714 751 q 771 639 771 675 q 744 521 771 597 q 693 426 717 444 q 687 410 700 426 q 656 377 674 394 q 628 357 638 360 q 617 338 628 354 q 590 313 606 321 q 549 285 563 296 q 525 260 535 274 q 521 267 525 267 q 505 258 515 267 q 489 246 494 249 q 368 197 426 208 q 318 189 358 189 l 271 196 l 242 117 q 221 38 235 88 q 200 -37 207 0 q 184 -85 194 -74 q 163 -89 174 -97 m 303 269 q 423 292 374 268 q 521 361 472 315 q 576 422 543 383 q 629 489 608 460 q 661 559 650 519 q 672 633 672 599 q 665 675 672 661 q 589 708 642 708 q 485 679 536 708 q 424 578 471 674 q 338 384 376 483 q 303 269 299 285 z "},"Q":{"ha":697,"x_min":160,"x_max":819,"o":"m 819 696 q 806 574 819 647 q 773 447 793 501 q 735 393 753 393 q 730 392 733 393 q 726 385 726 390 q 720 339 729 374 q 692 267 711 304 q 553 14 632 107 q 575 -28 567 -17 q 592 -60 578 -37 q 613 -99 608 -85 q 644 -161 644 -147 q 635 -173 644 -169 q 607 -175 626 -176 q 563 -160 586 -176 q 535 -124 540 -143 q 525 -108 526 -115 q 522 -97 524 -100 q 507 -82 517 -94 q 493 -56 497 -69 l 489 -46 q 344 -100 418 -100 q 321 -99 329 -100 q 250 -67 288 -93 q 199 -12 213 -42 q 160 160 160 67 q 181 332 160 232 q 226 478 194 385 q 264 572 258 572 q 268 596 268 576 q 311 679 268 611 q 388 776 354 747 q 521 882 433 838 q 565 901 535 890 q 615 914 594 913 q 718 898 683 918 q 781 822 753 878 q 806 780 800 800 q 817 724 813 760 q 819 696 817 715 m 728 697 q 731 740 731 714 q 718 799 731 778 q 678 832 706 819 q 639 839 657 839 q 502 773 572 839 q 383 586 432 707 q 279 328 313 436 q 246 136 246 219 q 254 58 246 96 q 272 0 257 21 q 313 -21 288 -21 q 332 -18 325 -21 q 443 44 389 -10 l 418 90 q 369 181 376 172 q 365 192 365 185 q 372 208 365 201 q 383 225 378 221 q 396 229 388 229 q 424 224 399 229 q 482 157 456 224 q 500 111 486 142 q 651 418 583 229 l 668 461 q 710 579 694 524 q 728 697 726 635 z "},"R":{"ha":746,"x_min":114,"x_max":889,"o":"m 765 879 q 889 713 889 806 q 874 642 889 679 q 761 510 851 586 q 593 401 671 435 q 522 374 563 388 q 443 347 482 360 q 388 342 415 340 l 390 339 q 514 167 422 268 q 632 52 557 117 q 761 -39 707 -12 q 767 -56 767 -44 q 759 -83 767 -68 q 746 -99 751 -97 q 739 -101 743 -100 q 729 -103 735 -103 q 674 -79 710 -103 q 547 12 608 -40 q 414 147 486 64 q 363 213 382 185 q 324 290 344 242 l 321 282 q 194 -83 279 140 q 174 -100 188 -100 q 136 -82 158 -100 q 126 -72 133 -79 q 117 -60 119 -65 q 114 -50 114 -56 q 136 13 114 -37 l 153 50 q 193 165 161 100 q 306 449 203 199 l 331 510 l 346 546 q 447 781 383 640 q 454 807 454 801 q 431 825 454 825 q 415 858 415 843 q 429 879 415 874 l 501 908 q 596 919 550 919 q 765 879 689 919 m 549 465 q 728 580 649 511 q 803 714 807 649 q 775 769 803 740 q 718 807 747 799 q 604 826 633 826 q 565 816 579 826 q 544 783 550 806 q 526 743 544 779 q 475 624 486 656 l 443 558 q 390 447 399 469 q 388 418 381 425 q 549 465 444 422 z "},"Ŕ":{"ha":692,"x_min":114,"x_max":889,"o":"m 765 879 q 889 713 889 806 q 874 642 889 679 q 761 510 851 586 q 593 401 671 435 q 522 374 563 388 q 443 347 482 360 q 388 342 415 340 l 390 339 q 514 167 422 268 q 632 52 557 117 q 761 -39 707 -12 q 767 -56 767 -44 q 759 -83 767 -68 q 746 -99 751 -97 q 739 -101 743 -100 q 729 -103 735 -103 q 674 -79 710 -103 q 547 12 608 -40 q 414 147 486 64 q 363 213 382 185 q 324 290 344 242 l 321 282 q 194 -83 279 140 q 174 -100 188 -100 q 136 -82 158 -100 q 126 -72 133 -79 q 117 -60 119 -65 q 114 -50 114 -56 q 136 13 114 -37 l 153 50 q 193 165 161 100 q 306 449 203 199 l 331 510 l 346 546 q 447 781 383 640 q 454 807 454 801 q 431 825 454 825 q 415 858 415 843 q 429 879 415 874 l 501 908 q 596 919 550 919 q 765 879 689 919 m 549 465 q 728 580 649 511 q 803 714 807 649 q 775 769 803 740 q 718 807 747 799 q 604 826 633 826 q 565 816 579 826 q 544 783 550 806 q 526 743 544 779 q 475 624 486 656 l 443 558 q 390 447 399 469 q 388 418 381 425 q 549 465 444 422 m 635 992 q 620 1019 625 1000 q 617 1046 615 1038 q 676 1119 619 1058 q 753 1188 733 1181 q 765 1192 760 1192 q 810 1149 785 1192 q 797 1116 815 1136 q 739 1064 778 1096 q 681 1010 692 1025 q 667 990 674 997 q 654 982 660 982 q 635 992 650 982 z "},"Ř":{"ha":692,"x_min":114,"x_max":889,"o":"m 765 879 q 889 713 889 806 q 874 642 889 679 q 761 510 851 586 q 593 401 671 435 q 522 374 563 388 q 443 347 482 360 q 388 342 415 340 l 390 339 q 514 167 422 268 q 632 52 557 117 q 761 -39 707 -12 q 767 -56 767 -44 q 759 -83 767 -68 q 746 -99 751 -97 q 739 -101 743 -100 q 729 -103 735 -103 q 674 -79 710 -103 q 547 12 608 -40 q 414 147 486 64 q 363 213 382 185 q 324 290 344 242 l 321 282 q 194 -83 279 140 q 174 -100 188 -100 q 136 -82 158 -100 q 126 -72 133 -79 q 117 -60 119 -65 q 114 -50 114 -56 q 136 13 114 -37 l 153 50 q 193 165 161 100 q 306 449 203 199 l 331 510 l 346 546 q 447 781 383 640 q 454 807 454 801 q 431 825 454 825 q 415 858 415 843 q 429 879 415 874 l 501 908 q 596 919 550 919 q 765 879 689 919 m 549 465 q 728 580 649 511 q 803 714 807 649 q 775 769 803 740 q 718 807 747 799 q 604 826 633 826 q 565 816 579 826 q 544 783 550 806 q 526 743 544 779 q 475 624 486 656 l 443 558 q 390 447 399 469 q 388 418 381 425 q 549 465 444 422 m 704 997 q 683 989 694 989 q 663 1000 671 989 q 597 1062 639 1021 q 550 1110 554 1103 q 547 1124 547 1118 q 554 1149 547 1138 q 574 1161 561 1161 q 608 1139 588 1161 q 647 1101 618 1125 q 686 1068 676 1076 q 743 1104 714 1085 q 786 1136 772 1124 q 832 1157 814 1157 q 848 1149 843 1157 q 853 1129 853 1140 q 850 1111 853 1117 q 790 1056 846 1099 q 704 997 735 1014 z "},"Ŗ":{"ha":692,"x_min":114,"x_max":889,"o":"m 765 879 q 889 713 889 806 q 874 642 889 679 q 761 510 851 586 q 593 401 671 435 q 522 374 563 388 q 443 347 482 360 q 388 342 415 340 l 390 339 q 514 167 422 268 q 632 52 557 117 q 761 -39 707 -12 q 767 -56 767 -44 q 759 -83 767 -68 q 746 -99 751 -97 q 739 -101 743 -100 q 729 -103 735 -103 q 674 -79 710 -103 q 547 12 608 -40 q 414 147 486 64 q 363 213 382 185 q 324 290 344 242 l 321 282 q 194 -83 279 140 q 174 -100 188 -100 q 136 -82 158 -100 q 126 -72 133 -79 q 117 -60 119 -65 q 114 -50 114 -56 q 136 13 114 -37 l 153 50 q 193 165 161 100 q 306 449 203 199 l 331 510 l 346 546 q 447 781 383 640 q 454 807 454 801 q 431 825 454 825 q 415 858 415 843 q 429 879 415 874 l 501 908 q 596 919 550 919 q 765 879 689 919 m 549 465 q 728 580 649 511 q 803 714 807 649 q 775 769 803 740 q 718 807 747 799 q 604 826 633 826 q 565 816 579 826 q 544 783 550 806 q 526 743 544 779 q 475 624 486 656 l 443 558 q 390 447 399 469 q 388 418 381 425 q 549 465 444 422 m 254 -254 q 237 -253 240 -254 q 228 -244 233 -251 q 247 -218 228 -235 q 313 -117 314 -147 q 322 -73 311 -90 q 349 -56 332 -56 q 382 -69 364 -56 q 385 -96 385 -89 q 378 -131 385 -112 q 361 -172 372 -149 q 329 -215 350 -187 q 304 -242 308 -242 q 285 -249 296 -242 q 273 -253 279 -253 q 254 -254 267 -254 z "},"Ȑ":{"ha":692,"x_min":114,"x_max":889,"o":"m 765 879 q 889 713 889 806 q 874 642 889 679 q 761 510 851 586 q 593 401 671 435 q 522 374 563 388 q 443 347 482 360 q 388 342 415 340 l 390 339 q 514 167 422 268 q 632 52 557 117 q 761 -39 707 -12 q 767 -56 767 -44 q 759 -83 767 -68 q 746 -99 751 -97 q 739 -101 743 -100 q 729 -103 735 -103 q 674 -79 710 -103 q 547 12 608 -40 q 414 147 486 64 q 363 213 382 185 q 324 290 344 242 l 321 282 q 194 -83 279 140 q 174 -100 188 -100 q 136 -82 158 -100 q 126 -72 133 -79 q 117 -60 119 -65 q 114 -50 114 -56 q 136 13 114 -37 l 153 50 q 193 165 161 100 q 306 449 203 199 l 331 510 l 346 546 q 447 781 383 640 q 454 807 454 801 q 431 825 454 825 q 415 858 415 843 q 429 879 415 874 l 501 908 q 596 919 550 919 q 765 879 689 919 m 549 465 q 728 580 649 511 q 803 714 807 649 q 775 769 803 740 q 718 807 747 799 q 604 826 633 826 q 565 816 579 826 q 544 783 550 806 q 526 743 544 779 q 475 624 486 656 l 443 558 q 390 447 399 469 q 388 418 381 425 q 549 465 444 422 m 568 999 q 554 994 560 994 q 544 1001 549 994 q 533 1024 540 1007 q 496 1078 529 1033 q 456 1135 468 1115 q 450 1164 443 1156 q 493 1196 472 1196 q 504 1192 500 1196 q 558 1118 519 1182 q 596 1044 596 1054 q 588 1022 597 1039 q 568 999 579 1006 m 733 999 q 718 994 724 994 q 708 1001 713 994 q 697 1024 704 1007 q 660 1078 693 1033 q 619 1135 632 1115 q 614 1164 607 1156 q 668 1192 650 1204 q 722 1117 685 1181 q 760 1044 760 1054 q 752 1022 761 1039 q 733 999 743 1006 z "},"Ṛ":{"ha":692,"x_min":114,"x_max":889,"o":"m 765 879 q 889 713 889 806 q 874 642 889 679 q 761 510 851 586 q 593 401 671 435 q 522 374 563 388 q 443 347 482 360 q 388 342 415 340 l 390 339 q 514 167 422 268 q 632 52 557 117 q 761 -39 707 -12 q 767 -56 767 -44 q 759 -83 767 -68 q 746 -99 751 -97 q 739 -101 743 -100 q 729 -103 735 -103 q 674 -79 710 -103 q 547 12 608 -40 q 414 147 486 64 q 363 213 382 185 q 324 290 344 242 l 321 282 q 194 -83 279 140 q 174 -100 188 -100 q 136 -82 158 -100 q 126 -72 133 -79 q 117 -60 119 -65 q 114 -50 114 -56 q 136 13 114 -37 l 153 50 q 193 165 161 100 q 306 449 203 199 l 331 510 l 346 546 q 447 781 383 640 q 454 807 454 801 q 431 825 454 825 q 415 858 415 843 q 429 879 415 874 l 501 908 q 596 919 550 919 q 765 879 689 919 m 549 465 q 728 580 649 511 q 803 714 807 649 q 775 769 803 740 q 718 807 747 799 q 604 826 633 826 q 565 816 579 826 q 544 783 550 806 q 526 743 544 779 q 475 624 486 656 l 443 558 q 390 447 399 469 q 388 418 381 425 q 549 465 444 422 m 307 -193 q 292 -171 297 -183 q 288 -151 286 -158 q 313 -99 300 -108 q 322 -90 315 -96 q 332 -82 328 -83 q 351 -75 343 -75 q 382 -107 372 -75 q 392 -133 392 -121 q 371 -175 392 -147 q 328 -207 347 -207 q 307 -193 317 -207 z "},"Ȓ":{"ha":692,"x_min":114,"x_max":889,"o":"m 765 879 q 889 713 889 806 q 874 642 889 679 q 761 510 851 586 q 593 401 671 435 q 522 374 563 388 q 443 347 482 360 q 388 342 415 340 l 390 339 q 514 167 422 268 q 632 52 557 117 q 761 -39 707 -12 q 767 -56 767 -44 q 759 -83 767 -68 q 746 -99 751 -97 q 739 -101 743 -100 q 729 -103 735 -103 q 674 -79 710 -103 q 547 12 608 -40 q 414 147 486 64 q 363 213 382 185 q 324 290 344 242 l 321 282 q 194 -83 279 140 q 174 -100 188 -100 q 136 -82 158 -100 q 126 -72 133 -79 q 117 -60 119 -65 q 114 -50 114 -56 q 136 13 114 -37 l 153 50 q 193 165 161 100 q 306 449 203 199 l 331 510 l 346 546 q 447 781 383 640 q 454 807 454 801 q 431 825 454 825 q 415 858 415 843 q 429 879 415 874 l 501 908 q 596 919 550 919 q 765 879 689 919 m 549 465 q 728 580 649 511 q 803 714 807 649 q 775 769 803 740 q 718 807 747 799 q 604 826 633 826 q 565 816 579 826 q 544 783 550 806 q 526 743 544 779 q 475 624 486 656 l 443 558 q 390 447 399 469 q 388 418 381 425 q 549 465 444 422 m 756 1014 q 758 1038 758 1028 q 740 1090 758 1068 q 676 1110 721 1111 q 622 1077 653 1108 q 575 1017 592 1046 q 538 983 557 983 q 516 1000 524 983 q 513 1031 508 1017 q 544 1088 518 1053 q 611 1149 571 1124 q 697 1171 651 1175 q 789 1135 756 1167 q 822 1053 822 1103 q 819 1022 822 1042 q 801 983 814 997 q 775 969 789 969 q 759 976 765 969 q 753 996 753 983 l 756 1014 z "},"S":{"ha":675,"x_min":182,"x_max":917,"o":"m 297 -53 l 299 -49 q 275 -33 299 -35 q 223 14 246 -15 q 192 65 200 43 q 182 89 182 88 q 187 96 182 93 q 199 103 192 99 q 217 110 207 110 q 227 103 222 110 q 240 82 232 97 q 297 35 257 53 q 389 18 338 18 q 506 43 451 18 q 558 73 542 58 q 575 106 575 88 q 560 146 575 122 q 548 166 556 157 q 526 188 540 175 q 494 218 518 194 q 449 240 472 226 l 419 254 q 333 312 382 271 q 267 383 283 353 q 236 433 247 401 q 225 503 225 465 q 246 594 225 553 q 319 699 263 632 q 407 786 376 765 l 443 821 q 447 827 444 826 q 451 828 450 828 q 481 841 456 831 q 533 878 506 851 q 685 944 628 924 q 781 964 743 964 q 870 931 833 961 q 914 853 907 901 q 917 828 917 844 q 881 720 917 778 q 799 636 844 663 q 750 621 764 621 q 737 628 740 621 q 735 650 733 635 q 744 678 735 663 q 785 731 753 694 q 842 853 842 813 q 821 878 842 876 q 744 871 806 882 q 682 853 682 860 q 681 848 682 851 q 676 846 681 844 q 574 788 671 847 q 474 722 476 729 q 463 708 472 715 q 442 694 454 700 q 393 650 415 679 q 340 567 371 621 q 313 515 324 543 q 303 465 303 488 q 307 439 303 450 q 350 381 314 415 q 440 315 386 347 q 559 237 511 275 q 619 172 607 199 q 651 74 651 128 q 647 38 651 54 q 613 -9 636 14 q 572 -31 589 -32 q 549 -41 558 -35 q 532 -50 539 -47 q 459 -66 517 -60 q 353 -69 401 -72 l 297 -53 z "},"Ś":{"ha":675,"x_min":182,"x_max":917,"o":"m 297 -53 l 299 -49 q 275 -33 299 -35 q 223 14 246 -15 q 192 65 200 43 q 182 89 182 88 q 187 96 182 93 q 199 103 192 99 q 217 110 207 110 q 227 103 222 110 q 240 82 232 97 q 297 35 257 53 q 389 18 338 18 q 506 43 451 18 q 558 73 542 58 q 575 106 575 88 q 560 146 575 122 q 548 166 556 157 q 526 188 540 175 q 494 218 518 194 q 449 240 472 226 l 419 254 q 333 312 382 271 q 267 383 283 353 q 236 433 247 401 q 225 503 225 465 q 246 594 225 553 q 319 699 263 632 q 407 786 376 765 l 443 821 q 447 827 444 826 q 451 828 450 828 q 481 841 456 831 q 533 878 506 851 q 685 944 628 924 q 781 964 743 964 q 870 931 833 961 q 914 853 907 901 q 917 828 917 844 q 881 720 917 778 q 799 636 844 663 q 750 621 764 621 q 737 628 740 621 q 735 650 733 635 q 744 678 735 663 q 785 731 753 694 q 842 853 842 813 q 821 878 842 876 q 744 871 806 882 q 682 853 682 860 q 681 848 682 851 q 676 846 681 844 q 574 788 671 847 q 474 722 476 729 q 463 708 472 715 q 442 694 454 700 q 393 650 415 679 q 340 567 371 621 q 313 515 324 543 q 303 465 303 488 q 307 439 303 450 q 350 381 314 415 q 440 315 386 347 q 559 237 511 275 q 619 172 607 199 q 651 74 651 128 q 647 38 651 54 q 613 -9 636 14 q 572 -31 589 -32 q 549 -41 558 -35 q 532 -50 539 -47 q 459 -66 517 -60 q 353 -69 401 -72 l 297 -53 m 724 992 q 709 1019 714 1000 q 706 1046 704 1038 q 765 1119 708 1058 q 842 1188 822 1181 q 854 1192 849 1192 q 899 1149 874 1192 q 885 1116 904 1136 q 828 1064 867 1096 q 769 1010 781 1025 q 756 990 763 997 q 743 982 749 982 q 724 992 739 982 z "},"Š":{"ha":675,"x_min":182,"x_max":942,"o":"m 297 -53 l 299 -49 q 275 -33 299 -35 q 223 14 246 -15 q 192 65 200 43 q 182 89 182 88 q 187 96 182 93 q 199 103 192 99 q 217 110 207 110 q 227 103 222 110 q 240 82 232 97 q 297 35 257 53 q 389 18 338 18 q 506 43 451 18 q 558 73 542 58 q 575 106 575 88 q 560 146 575 122 q 548 166 556 157 q 526 188 540 175 q 494 218 518 194 q 449 240 472 226 l 419 254 q 333 312 382 271 q 267 383 283 353 q 236 433 247 401 q 225 503 225 465 q 246 594 225 553 q 319 699 263 632 q 407 786 376 765 l 443 821 q 447 827 444 826 q 451 828 450 828 q 481 841 456 831 q 533 878 506 851 q 685 944 628 924 q 781 964 743 964 q 870 931 833 961 q 914 853 907 901 q 917 828 917 844 q 881 720 917 778 q 799 636 844 663 q 750 621 764 621 q 737 628 740 621 q 735 650 733 635 q 744 678 735 663 q 785 731 753 694 q 842 853 842 813 q 821 878 842 876 q 744 871 806 882 q 682 853 682 860 q 681 848 682 851 q 676 846 681 844 q 574 788 671 847 q 474 722 476 729 q 463 708 472 715 q 442 694 454 700 q 393 650 415 679 q 340 567 371 621 q 313 515 324 543 q 303 465 303 488 q 307 439 303 450 q 350 381 314 415 q 440 315 386 347 q 559 237 511 275 q 619 172 607 199 q 651 74 651 128 q 647 38 651 54 q 613 -9 636 14 q 572 -31 589 -32 q 549 -41 558 -35 q 532 -50 539 -47 q 459 -66 517 -60 q 353 -69 401 -72 l 297 -53 m 793 997 q 772 989 783 989 q 751 1000 760 989 q 685 1062 728 1021 q 639 1110 643 1103 q 636 1124 636 1118 q 643 1149 636 1138 q 663 1161 650 1161 q 697 1139 676 1161 q 736 1101 707 1125 q 775 1068 765 1076 q 832 1104 803 1085 q 875 1136 861 1124 q 921 1157 903 1157 q 937 1149 932 1157 q 942 1129 942 1140 q 939 1111 942 1117 q 879 1056 935 1099 q 793 997 824 1014 z "},"Ŝ":{"ha":675,"x_min":182,"x_max":949,"o":"m 297 -53 l 299 -49 q 275 -33 299 -35 q 223 14 246 -15 q 192 65 200 43 q 182 89 182 88 q 187 96 182 93 q 199 103 192 99 q 217 110 207 110 q 227 103 222 110 q 240 82 232 97 q 297 35 257 53 q 389 18 338 18 q 506 43 451 18 q 558 73 542 58 q 575 106 575 88 q 560 146 575 122 q 548 166 556 157 q 526 188 540 175 q 494 218 518 194 q 449 240 472 226 l 419 254 q 333 312 382 271 q 267 383 283 353 q 236 433 247 401 q 225 503 225 465 q 246 594 225 553 q 319 699 263 632 q 407 786 376 765 l 443 821 q 447 827 444 826 q 451 828 450 828 q 481 841 456 831 q 533 878 506 851 q 685 944 628 924 q 781 964 743 964 q 870 931 833 961 q 914 853 907 901 q 917 828 917 844 q 881 720 917 778 q 799 636 844 663 q 750 621 764 621 q 737 628 740 621 q 735 650 733 635 q 744 678 735 663 q 785 731 753 694 q 842 853 842 813 q 821 878 842 876 q 744 871 806 882 q 682 853 682 860 q 681 848 682 851 q 676 846 681 844 q 574 788 671 847 q 474 722 476 729 q 463 708 472 715 q 442 694 454 700 q 393 650 415 679 q 340 567 371 621 q 313 515 324 543 q 303 465 303 488 q 307 439 303 450 q 350 381 314 415 q 440 315 386 347 q 559 237 511 275 q 619 172 607 199 q 651 74 651 128 q 647 38 651 54 q 613 -9 636 14 q 572 -31 589 -32 q 549 -41 558 -35 q 532 -50 539 -47 q 459 -66 517 -60 q 353 -69 401 -72 l 297 -53 m 708 1014 q 671 994 689 994 q 653 1002 660 994 q 647 1021 647 1010 q 658 1051 647 1036 q 716 1106 669 1065 q 789 1160 763 1146 q 811 1169 800 1169 q 832 1157 824 1169 q 890 1102 854 1139 q 942 1049 926 1065 q 949 1025 949 1040 q 942 1002 949 1013 q 924 992 935 992 q 883 1018 904 992 q 808 1092 856 1051 q 747 1047 779 1075 q 708 1014 714 1018 z "},"Ṣ":{"ha":675,"x_min":182,"x_max":917,"o":"m 297 -53 l 299 -49 q 275 -33 299 -35 q 223 14 246 -15 q 192 65 200 43 q 182 89 182 88 q 187 96 182 93 q 199 103 192 99 q 217 110 207 110 q 227 103 222 110 q 240 82 232 97 q 297 35 257 53 q 389 18 338 18 q 506 43 451 18 q 558 73 542 58 q 575 106 575 88 q 560 146 575 122 q 548 166 556 157 q 526 188 540 175 q 494 218 518 194 q 449 240 472 226 l 419 254 q 333 312 382 271 q 267 383 283 353 q 236 433 247 401 q 225 503 225 465 q 246 594 225 553 q 319 699 263 632 q 407 786 376 765 l 443 821 q 447 827 444 826 q 451 828 450 828 q 481 841 456 831 q 533 878 506 851 q 685 944 628 924 q 781 964 743 964 q 870 931 833 961 q 914 853 907 901 q 917 828 917 844 q 881 720 917 778 q 799 636 844 663 q 750 621 764 621 q 737 628 740 621 q 735 650 733 635 q 744 678 735 663 q 785 731 753 694 q 842 853 842 813 q 821 878 842 876 q 744 871 806 882 q 682 853 682 860 q 681 848 682 851 q 676 846 681 844 q 574 788 671 847 q 474 722 476 729 q 463 708 472 715 q 442 694 454 700 q 393 650 415 679 q 340 567 371 621 q 313 515 324 543 q 303 465 303 488 q 307 439 303 450 q 350 381 314 415 q 440 315 386 347 q 559 237 511 275 q 619 172 607 199 q 651 74 651 128 q 647 38 651 54 q 613 -9 636 14 q 572 -31 589 -32 q 549 -41 558 -35 q 532 -50 539 -47 q 459 -66 517 -60 q 353 -69 401 -72 l 297 -53 m 308 -254 q 293 -232 299 -244 q 289 -212 288 -219 q 314 -160 301 -169 q 323 -151 317 -157 q 333 -143 329 -144 q 353 -136 344 -136 q 383 -168 374 -136 q 393 -194 393 -182 q 372 -236 393 -208 q 329 -268 349 -268 q 308 -254 318 -268 z "},"Ə":{"ha":692,"x_min":143,"x_max":879,"o":"m 435 -28 q 406 -35 425 -35 q 336 -23 375 -35 q 275 8 297 -11 q 225 53 253 21 q 188 113 197 86 q 167 144 178 121 q 150 190 157 168 q 146 213 143 213 q 154 216 153 213 q 156 226 156 219 q 156 236 156 233 q 153 267 153 246 q 161 326 153 296 q 179 361 169 356 q 207 365 186 365 l 321 369 q 464 383 436 372 q 619 389 517 389 l 724 394 l 739 422 q 766 483 757 456 q 776 519 775 511 q 783 534 778 522 q 789 561 788 546 q 803 647 803 597 q 799 714 803 676 q 778 758 799 739 q 726 783 758 776 q 646 793 690 793 q 538 782 594 793 q 446 753 482 771 q 408 739 421 739 q 375 769 392 739 q 361 793 361 788 q 363 799 361 796 q 367 804 365 801 q 377 819 371 814 q 388 825 383 825 q 391 828 390 826 q 392 836 392 831 q 401 842 393 838 q 415 846 408 846 q 460 856 443 846 q 483 865 464 860 q 510 879 501 871 q 549 883 549 879 q 722 874 699 883 q 810 815 767 861 q 867 719 853 769 q 879 647 879 689 q 825 417 879 564 q 805 364 813 389 q 797 331 797 339 q 794 326 797 329 q 782 322 792 324 q 774 308 778 317 q 765 296 769 300 q 702 197 749 261 q 615 90 656 132 q 510 8 550 36 q 446 -21 469 -21 q 438 -26 440 -25 q 435 -28 435 -28 m 361 68 q 426 74 407 71 q 475 94 446 78 q 583 190 515 119 q 669 293 650 261 l 669 301 q 665 310 669 308 q 644 311 661 311 l 638 311 q 624 312 632 311 q 617 308 617 313 q 584 308 608 308 q 525 306 560 307 q 303 282 357 290 q 240 263 250 274 q 225 215 231 253 q 239 147 222 182 q 286 89 256 113 q 310 71 300 75 q 335 67 319 67 q 361 68 350 67 z "},"T":{"ha":636,"x_min":233,"x_max":893,"o":"m 892 806 q 893 793 893 800 q 890 784 893 788 q 882 779 886 781 q 876 776 878 778 q 826 767 846 767 q 794 774 813 767 q 761 792 781 786 q 681 801 742 797 q 610 797 640 797 q 578 706 600 746 q 563 658 572 679 q 554 626 553 631 q 528 556 550 621 q 486 431 506 492 q 465 368 472 388 q 448 324 458 354 q 433 282 438 294 l 399 186 q 372 120 388 165 q 346 39 356 75 l 332 -10 q 320 -47 325 -35 q 313 -61 315 -60 q 299 -61 310 -62 q 274 -44 288 -61 q 261 -10 261 -26 q 283 93 261 21 q 324 208 304 165 q 334 249 329 233 q 340 271 339 264 q 353 301 344 276 q 368 346 363 325 q 454 625 372 371 l 464 654 q 488 707 476 675 q 499 736 499 714 q 503 747 499 740 q 508 757 508 754 q 515 770 511 760 q 524 786 518 781 l 524 788 l 501 786 l 433 779 l 403 776 q 310 767 322 769 q 251 771 268 764 q 239 799 233 778 q 256 824 243 815 q 297 836 269 832 q 346 844 310 839 l 383 851 l 431 857 q 601 874 511 869 q 665 877 639 875 q 699 881 690 879 q 762 874 718 879 q 825 861 806 868 q 870 842 856 854 q 892 806 885 829 z "},"Ŧ":{"ha":636,"x_min":199,"x_max":893,"o":"m 892 806 q 893 793 893 800 q 890 784 893 788 q 882 779 886 781 q 876 776 878 778 q 826 767 846 767 q 794 774 813 767 q 761 792 781 786 q 681 801 742 797 q 610 797 640 797 q 578 706 600 746 q 563 658 572 679 q 554 626 553 631 q 528 556 550 621 q 486 431 506 492 q 465 368 472 388 q 443 314 454 347 l 476 314 q 531 311 517 314 q 560 297 544 308 q 581 265 581 281 q 569 249 581 254 q 538 244 558 243 q 443 240 496 240 q 418 239 428 240 l 399 186 q 372 120 388 165 q 346 39 356 75 l 332 -10 q 320 -47 325 -35 q 313 -61 315 -60 q 299 -61 310 -62 q 274 -44 288 -61 q 261 -10 261 -26 q 283 93 261 21 q 324 208 304 165 l 331 235 l 307 235 q 251 240 274 235 q 224 244 232 240 q 210 257 217 247 q 199 276 199 271 q 215 290 199 285 q 274 299 231 294 q 357 308 333 307 q 368 346 365 333 q 454 625 372 371 l 464 654 q 488 707 476 675 q 499 736 499 714 q 503 747 499 740 q 508 757 508 754 q 515 770 511 760 q 524 786 518 781 l 524 788 l 501 786 l 433 779 l 403 776 q 310 767 322 769 q 251 771 268 764 q 239 799 233 778 q 256 824 243 815 q 297 836 269 832 q 346 844 310 839 l 383 851 l 431 857 q 601 874 511 869 q 665 877 639 875 q 699 881 690 879 q 762 874 718 879 q 825 861 806 868 q 870 842 856 854 q 892 806 885 829 z "},"Ť":{"ha":636,"x_min":238,"x_max":893,"o":"m 892 806 q 893 793 893 800 q 890 784 893 788 q 882 779 886 781 q 876 776 878 778 q 826 767 846 767 q 794 774 813 767 q 761 792 781 786 q 681 801 742 797 q 610 797 640 797 q 578 706 600 746 q 563 658 572 679 q 554 626 553 631 q 528 556 550 621 q 486 431 506 492 q 465 368 472 388 q 448 324 458 354 q 433 282 438 294 l 399 186 q 372 120 388 165 q 346 39 356 75 l 332 -10 q 320 -47 325 -35 q 313 -61 315 -60 q 299 -61 310 -62 q 274 -44 288 -61 q 261 -10 261 -26 q 283 93 261 21 q 324 208 304 165 q 334 249 329 233 q 340 271 339 264 q 353 301 344 276 q 368 346 363 325 q 454 625 372 371 l 464 654 q 488 707 476 675 q 499 736 499 714 q 503 747 499 740 q 508 757 508 754 q 515 770 511 760 q 524 786 518 781 l 524 788 l 501 786 l 433 779 l 403 776 q 310 767 322 769 q 251 771 268 764 q 239 799 233 778 q 256 824 243 815 q 297 836 269 832 q 346 844 310 839 l 383 851 l 431 857 q 601 874 511 869 q 665 877 639 875 q 699 881 690 879 q 762 874 718 879 q 825 861 806 868 q 870 842 856 854 q 892 806 885 829 m 667 997 q 646 989 657 989 q 625 1000 633 989 q 559 1062 601 1021 q 513 1110 517 1103 q 510 1124 510 1118 q 517 1149 510 1138 q 536 1161 524 1161 q 571 1139 550 1161 q 610 1101 581 1125 q 649 1068 639 1076 q 706 1104 676 1085 q 749 1136 735 1124 q 794 1157 776 1157 q 810 1149 806 1157 q 815 1129 815 1140 q 813 1111 815 1117 q 753 1056 808 1099 q 667 997 697 1014 z "},"Ṭ":{"ha":636,"x_min":200,"x_max":893,"o":"m 892 806 q 893 793 893 800 q 890 784 893 788 q 882 779 886 781 q 876 776 878 778 q 826 767 846 767 q 794 774 813 767 q 761 792 781 786 q 681 801 742 797 q 610 797 640 797 q 578 706 600 746 q 563 658 572 679 q 554 626 553 631 q 528 556 550 621 q 486 431 506 492 q 465 368 472 388 q 448 324 458 354 q 433 282 438 294 l 399 186 q 372 120 388 165 q 346 39 356 75 l 332 -10 q 320 -47 325 -35 q 313 -61 315 -60 q 299 -61 310 -62 q 274 -44 288 -61 q 261 -10 261 -26 q 283 93 261 21 q 324 208 304 165 q 334 249 329 233 q 340 271 339 264 q 353 301 344 276 q 368 346 363 325 q 454 625 372 371 l 464 654 q 488 707 476 675 q 499 736 499 714 q 503 747 499 740 q 508 757 508 754 q 515 770 511 760 q 524 786 518 781 l 524 788 l 501 786 l 433 779 l 403 776 q 310 767 322 769 q 251 771 268 764 q 239 799 233 778 q 256 824 243 815 q 297 836 269 832 q 346 844 310 839 l 383 851 l 431 857 q 601 874 511 869 q 665 877 639 875 q 699 881 690 879 q 762 874 718 879 q 825 861 806 868 q 870 842 856 854 q 892 806 885 829 m 219 -242 q 204 -219 210 -232 q 200 -200 199 -207 q 225 -147 213 -157 q 234 -138 228 -144 q 244 -131 240 -132 q 264 -124 256 -124 q 294 -156 285 -124 q 304 -182 304 -169 q 283 -224 304 -196 q 240 -256 260 -256 q 219 -242 229 -256 z "},"U":{"ha":669,"x_min":172,"x_max":901,"o":"m 306 -72 q 205 6 238 -47 q 172 157 172 60 q 200 382 172 243 q 272 624 221 483 q 375 858 322 765 q 422 928 406 911 q 456 942 439 944 q 490 920 478 936 q 503 886 503 904 q 475 839 503 857 q 444 790 464 826 q 419 743 425 753 l 386 681 q 315 467 338 542 q 278 308 292 392 q 253 172 258 215 q 249 103 249 128 q 249 71 249 78 q 260 49 253 63 q 272 30 267 36 q 285 22 278 24 q 319 15 299 15 q 397 39 357 15 q 413 56 403 50 q 426 64 424 63 q 431 60 429 60 q 438 69 435 60 l 438 71 q 450 90 438 78 q 496 133 464 96 q 555 211 528 171 q 582 260 582 251 q 590 275 582 267 q 600 286 597 283 q 649 371 610 296 q 722 515 689 446 q 780 707 743 583 q 824 865 817 831 q 832 896 826 883 q 839 913 838 908 q 869 905 849 915 q 894 892 889 894 q 901 868 901 883 q 889 799 901 851 q 871 715 882 771 q 818 550 849 628 q 739 363 788 472 q 726 335 733 350 q 713 303 719 321 l 713 294 q 686 265 696 285 q 676 247 682 258 q 663 231 669 235 q 655 210 658 218 q 650 199 651 201 q 638 183 649 190 q 624 175 626 176 q 615 163 618 172 q 610 150 613 153 q 498 16 560 76 q 382 -64 436 -44 q 333 -75 354 -75 q 306 -72 315 -75 z "},"Ú":{"ha":669,"x_min":172,"x_max":901,"o":"m 306 -72 q 205 6 238 -47 q 172 157 172 60 q 200 382 172 243 q 272 624 221 483 q 375 858 322 765 q 422 928 406 911 q 456 942 439 944 q 490 920 478 936 q 503 886 503 904 q 475 839 503 857 q 444 790 464 826 q 419 743 425 753 l 386 681 q 315 467 338 542 q 278 308 292 392 q 253 172 258 215 q 249 103 249 128 q 249 71 249 78 q 260 49 253 63 q 272 30 267 36 q 285 22 278 24 q 319 15 299 15 q 397 39 357 15 q 413 56 403 50 q 426 64 424 63 q 431 60 429 60 q 438 69 435 60 l 438 71 q 450 90 438 78 q 496 133 464 96 q 555 211 528 171 q 582 260 582 251 q 590 275 582 267 q 600 286 597 283 q 649 371 610 296 q 722 515 689 446 q 780 707 743 583 q 824 865 817 831 q 832 896 826 883 q 839 913 838 908 q 869 905 849 915 q 894 892 889 894 q 901 868 901 883 q 889 799 901 851 q 871 715 882 771 q 818 550 849 628 q 739 363 788 472 q 726 335 733 350 q 713 303 719 321 l 713 294 q 686 265 696 285 q 676 247 682 258 q 663 231 669 235 q 655 210 658 218 q 650 199 651 201 q 638 183 649 190 q 624 175 626 176 q 615 163 618 172 q 610 150 613 153 q 498 16 560 76 q 382 -64 436 -44 q 333 -75 354 -75 q 306 -72 315 -75 m 643 992 q 628 1019 633 1000 q 625 1046 624 1038 q 685 1119 628 1058 q 761 1188 742 1181 q 774 1192 768 1192 q 818 1149 793 1192 q 805 1116 824 1136 q 747 1064 786 1096 q 689 1010 700 1025 q 675 990 682 997 q 663 982 668 982 q 643 992 658 982 z "},"Ŭ":{"ha":669,"x_min":172,"x_max":901,"o":"m 306 -72 q 205 6 238 -47 q 172 157 172 60 q 200 382 172 243 q 272 624 221 483 q 375 858 322 765 q 422 928 406 911 q 456 942 439 944 q 490 920 478 936 q 503 886 503 904 q 475 839 503 857 q 444 790 464 826 q 419 743 425 753 l 386 681 q 315 467 338 542 q 278 308 292 392 q 253 172 258 215 q 249 103 249 128 q 249 71 249 78 q 260 49 253 63 q 272 30 267 36 q 285 22 278 24 q 319 15 299 15 q 397 39 357 15 q 413 56 403 50 q 426 64 424 63 q 431 60 429 60 q 438 69 435 60 l 438 71 q 450 90 438 78 q 496 133 464 96 q 555 211 528 171 q 582 260 582 251 q 590 275 582 267 q 600 286 597 283 q 649 371 610 296 q 722 515 689 446 q 780 707 743 583 q 824 865 817 831 q 832 896 826 883 q 839 913 838 908 q 869 905 849 915 q 894 892 889 894 q 901 868 901 883 q 889 799 901 851 q 871 715 882 771 q 818 550 849 628 q 739 363 788 472 q 726 335 733 350 q 713 303 719 321 l 713 294 q 686 265 696 285 q 676 247 682 258 q 663 231 669 235 q 655 210 658 218 q 650 199 651 201 q 638 183 649 190 q 624 175 626 176 q 615 163 618 172 q 610 150 613 153 q 498 16 560 76 q 382 -64 436 -44 q 333 -75 354 -75 q 306 -72 315 -75 m 699 974 q 599 1006 635 974 q 563 1092 563 1039 q 565 1122 563 1103 q 583 1161 571 1147 q 610 1175 596 1175 q 626 1168 619 1175 q 632 1149 632 1161 l 629 1131 q 626 1107 626 1117 q 645 1055 626 1076 q 708 1035 664 1033 q 763 1067 732 1036 q 810 1128 793 1099 q 847 1161 828 1161 q 869 1144 861 1161 q 872 1114 876 1128 q 842 1059 867 1093 q 779 999 817 1025 q 699 974 742 974 z "},"Û":{"ha":669,"x_min":172,"x_max":901,"o":"m 306 -72 q 205 6 238 -47 q 172 157 172 60 q 200 382 172 243 q 272 624 221 483 q 375 858 322 765 q 422 928 406 911 q 456 942 439 944 q 490 920 478 936 q 503 886 503 904 q 475 839 503 857 q 444 790 464 826 q 419 743 425 753 l 386 681 q 315 467 338 542 q 278 308 292 392 q 253 172 258 215 q 249 103 249 128 q 249 71 249 78 q 260 49 253 63 q 272 30 267 36 q 285 22 278 24 q 319 15 299 15 q 397 39 357 15 q 413 56 403 50 q 426 64 424 63 q 431 60 429 60 q 438 69 435 60 l 438 71 q 450 90 438 78 q 496 133 464 96 q 555 211 528 171 q 582 260 582 251 q 590 275 582 267 q 600 286 597 283 q 649 371 610 296 q 722 515 689 446 q 780 707 743 583 q 824 865 817 831 q 832 896 826 883 q 839 913 838 908 q 869 905 849 915 q 894 892 889 894 q 901 868 901 883 q 889 799 901 851 q 871 715 882 771 q 818 550 849 628 q 739 363 788 472 q 726 335 733 350 q 713 303 719 321 l 713 294 q 686 265 696 285 q 676 247 682 258 q 663 231 669 235 q 655 210 658 218 q 650 199 651 201 q 638 183 649 190 q 624 175 626 176 q 615 163 618 172 q 610 150 613 153 q 498 16 560 76 q 382 -64 436 -44 q 333 -75 354 -75 q 306 -72 315 -75 m 628 1014 q 590 994 608 994 q 573 1002 579 994 q 567 1021 567 1010 q 578 1051 567 1036 q 635 1106 589 1065 q 708 1160 682 1146 q 731 1169 719 1169 q 751 1157 743 1169 q 810 1102 774 1139 q 861 1049 846 1065 q 868 1025 868 1040 q 861 1002 868 1013 q 843 992 854 992 q 803 1018 824 992 q 728 1092 775 1051 q 666 1047 699 1075 q 628 1014 633 1018 z "},"Ȕ":{"ha":669,"x_min":172,"x_max":901,"o":"m 306 -72 q 205 6 238 -47 q 172 157 172 60 q 200 382 172 243 q 272 624 221 483 q 375 858 322 765 q 422 928 406 911 q 456 942 439 944 q 490 920 478 936 q 503 886 503 904 q 475 839 503 857 q 444 790 464 826 q 419 743 425 753 l 386 681 q 315 467 338 542 q 278 308 292 392 q 253 172 258 215 q 249 103 249 128 q 249 71 249 78 q 260 49 253 63 q 272 30 267 36 q 285 22 278 24 q 319 15 299 15 q 397 39 357 15 q 413 56 403 50 q 426 64 424 63 q 431 60 429 60 q 438 69 435 60 l 438 71 q 450 90 438 78 q 496 133 464 96 q 555 211 528 171 q 582 260 582 251 q 590 275 582 267 q 600 286 597 283 q 649 371 610 296 q 722 515 689 446 q 780 707 743 583 q 824 865 817 831 q 832 896 826 883 q 839 913 838 908 q 869 905 849 915 q 894 892 889 894 q 901 868 901 883 q 889 799 901 851 q 871 715 882 771 q 818 550 849 628 q 739 363 788 472 q 726 335 733 350 q 713 303 719 321 l 713 294 q 686 265 696 285 q 676 247 682 258 q 663 231 669 235 q 655 210 658 218 q 650 199 651 201 q 638 183 649 190 q 624 175 626 176 q 615 163 618 172 q 610 150 613 153 q 498 16 560 76 q 382 -64 436 -44 q 333 -75 354 -75 q 306 -72 315 -75 m 576 999 q 563 994 568 994 q 553 1001 557 994 q 542 1024 549 1007 q 504 1078 538 1033 q 464 1135 476 1115 q 458 1164 451 1156 q 501 1196 481 1196 q 513 1192 508 1196 q 566 1118 528 1182 q 604 1044 604 1054 q 597 1022 606 1039 q 576 999 588 1006 m 742 999 q 726 994 732 994 q 717 1001 721 994 q 706 1024 713 1007 q 668 1078 701 1033 q 628 1135 640 1115 q 622 1164 615 1156 q 676 1192 658 1204 q 731 1117 693 1181 q 768 1044 768 1054 q 760 1022 769 1039 q 742 999 751 1006 z "},"Ü":{"ha":669,"x_min":172,"x_max":901,"o":"m 306 -72 q 205 6 238 -47 q 172 157 172 60 q 200 382 172 243 q 272 624 221 483 q 375 858 322 765 q 422 928 406 911 q 456 942 439 944 q 490 920 478 936 q 503 886 503 904 q 475 839 503 857 q 444 790 464 826 q 419 743 425 753 l 386 681 q 315 467 338 542 q 278 308 292 392 q 253 172 258 215 q 249 103 249 128 q 249 71 249 78 q 260 49 253 63 q 272 30 267 36 q 285 22 278 24 q 319 15 299 15 q 397 39 357 15 q 413 56 403 50 q 426 64 424 63 q 431 60 429 60 q 438 69 435 60 l 438 71 q 450 90 438 78 q 496 133 464 96 q 555 211 528 171 q 582 260 582 251 q 590 275 582 267 q 600 286 597 283 q 649 371 610 296 q 722 515 689 446 q 780 707 743 583 q 824 865 817 831 q 832 896 826 883 q 839 913 838 908 q 869 905 849 915 q 894 892 889 894 q 901 868 901 883 q 889 799 901 851 q 871 715 882 771 q 818 550 849 628 q 739 363 788 472 q 726 335 733 350 q 713 303 719 321 l 713 294 q 686 265 696 285 q 676 247 682 258 q 663 231 669 235 q 655 210 658 218 q 650 199 651 201 q 638 183 649 190 q 624 175 626 176 q 615 163 618 172 q 610 150 613 153 q 498 16 560 76 q 382 -64 436 -44 q 333 -75 354 -75 q 306 -72 315 -75 m 590 1042 q 574 1065 581 1051 q 569 1086 567 1079 q 597 1142 582 1129 q 606 1151 600 1144 q 617 1158 613 1157 q 636 1165 625 1165 q 671 1132 660 1165 q 681 1106 681 1115 q 675 1086 681 1096 q 657 1060 669 1076 q 613 1028 633 1028 q 590 1042 600 1028 m 769 1042 q 753 1065 760 1051 q 749 1086 746 1079 q 776 1142 761 1129 q 786 1151 779 1144 q 797 1158 793 1157 q 817 1165 806 1165 q 850 1132 839 1165 q 860 1106 860 1115 q 854 1086 860 1096 q 836 1060 849 1076 q 793 1028 813 1028 q 769 1042 779 1028 z "},"Ụ":{"ha":669,"x_min":172,"x_max":901,"o":"m 306 -72 q 205 6 238 -47 q 172 157 172 60 q 200 382 172 243 q 272 624 221 483 q 375 858 322 765 q 422 928 406 911 q 456 942 439 944 q 490 920 478 936 q 503 886 503 904 q 475 839 503 857 q 444 790 464 826 q 419 743 425 753 l 386 681 q 315 467 338 542 q 278 308 292 392 q 253 172 258 215 q 249 103 249 128 q 249 71 249 78 q 260 49 253 63 q 272 30 267 36 q 285 22 278 24 q 319 15 299 15 q 397 39 357 15 q 413 56 403 50 q 426 64 424 63 q 431 60 429 60 q 438 69 435 60 l 438 71 q 450 90 438 78 q 496 133 464 96 q 555 211 528 171 q 582 260 582 251 q 590 275 582 267 q 600 286 597 283 q 649 371 610 296 q 722 515 689 446 q 780 707 743 583 q 824 865 817 831 q 832 896 826 883 q 839 913 838 908 q 869 905 849 915 q 894 892 889 894 q 901 868 901 883 q 889 799 901 851 q 871 715 882 771 q 818 550 849 628 q 739 363 788 472 q 726 335 733 350 q 713 303 719 321 l 713 294 q 686 265 696 285 q 676 247 682 258 q 663 231 669 235 q 655 210 658 218 q 650 199 651 201 q 638 183 649 190 q 624 175 626 176 q 615 163 618 172 q 610 150 613 153 q 498 16 560 76 q 382 -64 436 -44 q 333 -75 354 -75 q 306 -72 315 -75 m 224 -254 q 208 -232 214 -244 q 204 -212 203 -219 q 229 -160 217 -169 q 238 -151 232 -157 q 249 -143 244 -144 q 268 -136 260 -136 q 299 -168 289 -136 q 308 -194 308 -182 q 288 -236 308 -208 q 244 -268 264 -268 q 224 -254 233 -268 z "},"Ù":{"ha":669,"x_min":172,"x_max":901,"o":"m 306 -72 q 205 6 238 -47 q 172 157 172 60 q 200 382 172 243 q 272 624 221 483 q 375 858 322 765 q 422 928 406 911 q 456 942 439 944 q 490 920 478 936 q 503 886 503 904 q 475 839 503 857 q 444 790 464 826 q 419 743 425 753 l 386 681 q 315 467 338 542 q 278 308 292 392 q 253 172 258 215 q 249 103 249 128 q 249 71 249 78 q 260 49 253 63 q 272 30 267 36 q 285 22 278 24 q 319 15 299 15 q 397 39 357 15 q 413 56 403 50 q 426 64 424 63 q 431 60 429 60 q 438 69 435 60 l 438 71 q 450 90 438 78 q 496 133 464 96 q 555 211 528 171 q 582 260 582 251 q 590 275 582 267 q 600 286 597 283 q 649 371 610 296 q 722 515 689 446 q 780 707 743 583 q 824 865 817 831 q 832 896 826 883 q 839 913 838 908 q 869 905 849 915 q 894 892 889 894 q 901 868 901 883 q 889 799 901 851 q 871 715 882 771 q 818 550 849 628 q 739 363 788 472 q 726 335 733 350 q 713 303 719 321 l 713 294 q 686 265 696 285 q 676 247 682 258 q 663 231 669 235 q 655 210 658 218 q 650 199 651 201 q 638 183 649 190 q 624 175 626 176 q 615 163 618 172 q 610 150 613 153 q 498 16 560 76 q 382 -64 436 -44 q 333 -75 354 -75 q 306 -72 315 -75 m 739 988 q 721 979 726 979 q 711 986 715 979 q 701 1010 707 993 q 676 1050 699 1014 q 638 1115 651 1090 q 625 1157 625 1139 q 629 1174 625 1168 q 669 1199 657 1199 q 688 1190 681 1199 q 719 1148 700 1183 q 752 1074 738 1113 q 767 1024 767 1035 q 759 1003 768 1017 q 739 988 750 990 z "},"Ű":{"ha":669,"x_min":172,"x_max":904,"o":"m 306 -72 q 205 6 238 -47 q 172 157 172 60 q 200 382 172 243 q 272 624 221 483 q 375 858 322 765 q 422 928 406 911 q 456 942 439 944 q 490 920 478 936 q 503 886 503 904 q 475 839 503 857 q 444 790 464 826 q 419 743 425 753 l 386 681 q 315 467 338 542 q 278 308 292 392 q 253 172 258 215 q 249 103 249 128 q 249 71 249 78 q 260 49 253 63 q 272 30 267 36 q 285 22 278 24 q 319 15 299 15 q 397 39 357 15 q 413 56 403 50 q 426 64 424 63 q 431 60 429 60 q 438 69 435 60 l 438 71 q 450 90 438 78 q 496 133 464 96 q 555 211 528 171 q 582 260 582 251 q 590 275 582 267 q 600 286 597 283 q 649 371 610 296 q 722 515 689 446 q 780 707 743 583 q 824 865 817 831 q 832 896 826 883 q 839 913 838 908 q 869 905 849 915 q 894 892 889 894 q 901 868 901 883 q 889 799 901 851 q 871 715 882 771 q 818 550 849 628 q 739 363 788 472 q 726 335 733 350 q 713 303 719 321 l 713 294 q 686 265 696 285 q 676 247 682 258 q 663 231 669 235 q 655 210 658 218 q 650 199 651 201 q 638 183 649 190 q 624 175 626 176 q 615 163 618 172 q 610 150 613 153 q 498 16 560 76 q 382 -64 436 -44 q 333 -75 354 -75 q 306 -72 315 -75 m 560 997 q 547 1024 551 1006 q 543 1049 542 1043 q 596 1113 546 1058 q 664 1174 646 1167 q 686 1169 675 1179 q 711 1135 697 1158 q 701 1108 717 1125 q 650 1061 685 1092 q 601 1015 611 1028 q 576 990 586 990 q 560 997 571 990 m 753 997 q 738 1024 743 1006 q 735 1049 733 1043 q 788 1113 738 1058 q 856 1174 839 1167 q 881 1168 868 1179 q 903 1135 893 1157 q 892 1108 908 1125 q 842 1061 876 1092 q 793 1015 803 1028 q 768 990 778 990 q 753 997 763 990 z "}}}
